<?xml version="1.0" encoding="utf-8" standalone="no"?>
<!DOCTYPE svg PUBLIC "-//W3C//DTD SVG 1.1//EN"
  "http://www.w3.org/Graphics/SVG/1.1/DTD/svg11.dtd">
<svg xmlns:xlink="http://www.w3.org/1999/xlink" width="432pt" height="144pt" viewBox="0 0 432 144" xmlns="http://www.w3.org/2000/svg" version="1.1">
 <metadata>
  <rdf:RDF xmlns:dc="http://purl.org/dc/elements/1.1/" xmlns:cc="http://creativecommons.org/ns#" xmlns:rdf="http://www.w3.org/1999/02/22-rdf-syntax-ns#">
   <cc:Work>
    <dc:type rdf:resource="http://purl.org/dc/dcmitype/StillImage"/>
    <dc:date>2025-06-02T00:48:38.974844</dc:date>
    <dc:format>image/svg+xml</dc:format>
    <dc:creator>
     <cc:Agent>
      <dc:title>Matplotlib v3.9.2, https://matplotlib.org/</dc:title>
     </cc:Agent>
    </dc:creator>
   </cc:Work>
  </rdf:RDF>
 </metadata>
 <defs>
  <style type="text/css">*{stroke-linejoin: round; stroke-linecap: butt}</style>
 </defs>
 <g id="figure_1">
  <g id="patch_1">
   <path d="M 0 144 
L 432 144 
L 432 0 
L 0 0 
z
" style="fill: #ffffff"/>
  </g>
  <g id="axes_1">
   <g id="patch_2">
    <path d="M 48.62 106 
L 116.130839 106 
L 116.130839 23.64 
L 48.62 23.64 
z
" style="fill: #ffffff"/>
   </g>
   <g id="matplotlib.axis_1">
    <g id="xtick_1">
     <g id="line2d_1">
      <path d="M 48.62 106 
L 48.62 23.64 
" clip-path="url(#pf0ee86a476)" style="fill: none; stroke: #b0b0b0; stroke-width: 0.8; stroke-linecap: square"/>
     </g>
     <g id="line2d_2">
      <defs>
       <path id="m4ee22d9c4a" d="M 0 0 
L 0 3.5 
" style="stroke: #000000; stroke-width: 0.8"/>
      </defs>
      <g>
       <use xlink:href="#m4ee22d9c4a" x="48.62" y="106" style="stroke: #000000; stroke-width: 0.8"/>
      </g>
     </g>
     <g id="text_1">
      <!-- 0 -->
      <g transform="translate(46.37 119.249375) scale(0.09 -0.09)">
       <defs>
        <path id="TimesNewRomanPSMT-30" d="M 231 2094 
Q 231 2819 450 3342 
Q 669 3866 1031 4122 
Q 1313 4325 1613 4325 
Q 2100 4325 2488 3828 
Q 2972 3213 2972 2159 
Q 2972 1422 2759 906 
Q 2547 391 2217 158 
Q 1888 -75 1581 -75 
Q 975 -75 572 641 
Q 231 1244 231 2094 
z
M 844 2016 
Q 844 1141 1059 588 
Q 1238 122 1591 122 
Q 1759 122 1940 273 
Q 2122 425 2216 781 
Q 2359 1319 2359 2297 
Q 2359 3022 2209 3506 
Q 2097 3866 1919 4016 
Q 1791 4119 1609 4119 
Q 1397 4119 1231 3928 
Q 1006 3669 925 3112 
Q 844 2556 844 2016 
z
" transform="scale(0.015625)"/>
       </defs>
       <use xlink:href="#TimesNewRomanPSMT-30"/>
      </g>
     </g>
    </g>
    <g id="xtick_2">
     <g id="line2d_3">
      <path d="M 112.916037 106 
L 112.916037 23.64 
" clip-path="url(#pf0ee86a476)" style="fill: none; stroke: #b0b0b0; stroke-width: 0.8; stroke-linecap: square"/>
     </g>
     <g id="line2d_4">
      <g>
       <use xlink:href="#m4ee22d9c4a" x="112.916037" y="106" style="stroke: #000000; stroke-width: 0.8"/>
      </g>
     </g>
     <g id="text_2">
      <!-- 20 -->
      <g transform="translate(108.416037 119.249375) scale(0.09 -0.09)">
       <defs>
        <path id="TimesNewRomanPSMT-32" d="M 2934 816 
L 2638 0 
L 138 0 
L 138 116 
Q 1241 1122 1691 1759 
Q 2141 2397 2141 2925 
Q 2141 3328 1894 3587 
Q 1647 3847 1303 3847 
Q 991 3847 742 3664 
Q 494 3481 375 3128 
L 259 3128 
Q 338 3706 661 4015 
Q 984 4325 1469 4325 
Q 1984 4325 2329 3994 
Q 2675 3663 2675 3213 
Q 2675 2891 2525 2569 
Q 2294 2063 1775 1497 
Q 997 647 803 472 
L 1909 472 
Q 2247 472 2383 497 
Q 2519 522 2628 598 
Q 2738 675 2819 816 
L 2934 816 
z
" transform="scale(0.015625)"/>
       </defs>
       <use xlink:href="#TimesNewRomanPSMT-32"/>
       <use xlink:href="#TimesNewRomanPSMT-30" x="50"/>
      </g>
     </g>
    </g>
    <g id="text_3">
     <!-- time [s] -->
     <g transform="translate(68.504169 131.423906) scale(0.09 -0.09)">
      <defs>
       <path id="TimesNewRomanPSMT-74" d="M 1031 3803 
L 1031 2863 
L 1700 2863 
L 1700 2644 
L 1031 2644 
L 1031 788 
Q 1031 509 1111 412 
Q 1191 316 1316 316 
Q 1419 316 1516 380 
Q 1613 444 1666 569 
L 1788 569 
Q 1678 263 1478 108 
Q 1278 -47 1066 -47 
Q 922 -47 784 33 
Q 647 113 581 261 
Q 516 409 516 719 
L 516 2644 
L 63 2644 
L 63 2747 
Q 234 2816 414 2980 
Q 594 3144 734 3369 
Q 806 3488 934 3803 
L 1031 3803 
z
" transform="scale(0.015625)"/>
       <path id="TimesNewRomanPSMT-69" d="M 928 4444 
Q 1059 4444 1151 4351 
Q 1244 4259 1244 4128 
Q 1244 3997 1151 3903 
Q 1059 3809 928 3809 
Q 797 3809 703 3903 
Q 609 3997 609 4128 
Q 609 4259 701 4351 
Q 794 4444 928 4444 
z
M 1188 2947 
L 1188 647 
Q 1188 378 1227 289 
Q 1266 200 1342 156 
Q 1419 113 1622 113 
L 1622 0 
L 231 0 
L 231 113 
Q 441 113 512 153 
Q 584 194 626 287 
Q 669 381 669 647 
L 669 1750 
Q 669 2216 641 2353 
Q 619 2453 572 2492 
Q 525 2531 444 2531 
Q 356 2531 231 2484 
L 188 2597 
L 1050 2947 
L 1188 2947 
z
" transform="scale(0.015625)"/>
       <path id="TimesNewRomanPSMT-6d" d="M 1050 2338 
Q 1363 2650 1419 2697 
Q 1559 2816 1721 2881 
Q 1884 2947 2044 2947 
Q 2313 2947 2506 2790 
Q 2700 2634 2766 2338 
Q 3088 2713 3309 2830 
Q 3531 2947 3766 2947 
Q 3994 2947 4170 2830 
Q 4347 2713 4450 2447 
Q 4519 2266 4519 1878 
L 4519 647 
Q 4519 378 4559 278 
Q 4591 209 4675 161 
Q 4759 113 4950 113 
L 4950 0 
L 3538 0 
L 3538 113 
L 3597 113 
Q 3781 113 3884 184 
Q 3956 234 3988 344 
Q 4000 397 4000 647 
L 4000 1878 
Q 4000 2228 3916 2372 
Q 3794 2572 3525 2572 
Q 3359 2572 3192 2489 
Q 3025 2406 2788 2181 
L 2781 2147 
L 2788 2013 
L 2788 647 
Q 2788 353 2820 281 
Q 2853 209 2943 161 
Q 3034 113 3253 113 
L 3253 0 
L 1806 0 
L 1806 113 
Q 2044 113 2133 169 
Q 2222 225 2256 338 
Q 2272 391 2272 647 
L 2272 1878 
Q 2272 2228 2169 2381 
Q 2031 2581 1784 2581 
Q 1616 2581 1450 2491 
Q 1191 2353 1050 2181 
L 1050 647 
Q 1050 366 1089 281 
Q 1128 197 1204 155 
Q 1281 113 1516 113 
L 1516 0 
L 100 0 
L 100 113 
Q 297 113 375 155 
Q 453 197 493 289 
Q 534 381 534 647 
L 534 1741 
Q 534 2213 506 2350 
Q 484 2453 437 2492 
Q 391 2531 309 2531 
Q 222 2531 100 2484 
L 53 2597 
L 916 2947 
L 1050 2947 
L 1050 2338 
z
" transform="scale(0.015625)"/>
       <path id="TimesNewRomanPSMT-65" d="M 681 1784 
Q 678 1147 991 784 
Q 1303 422 1725 422 
Q 2006 422 2214 576 
Q 2422 731 2563 1106 
L 2659 1044 
Q 2594 616 2278 264 
Q 1963 -88 1488 -88 
Q 972 -88 605 314 
Q 238 716 238 1394 
Q 238 2128 614 2539 
Q 991 2950 1559 2950 
Q 2041 2950 2350 2633 
Q 2659 2316 2659 1784 
L 681 1784 
z
M 681 1966 
L 2006 1966 
Q 1991 2241 1941 2353 
Q 1863 2528 1708 2628 
Q 1553 2728 1384 2728 
Q 1125 2728 920 2526 
Q 716 2325 681 1966 
z
" transform="scale(0.015625)"/>
       <path id="TimesNewRomanPSMT-20" transform="scale(0.015625)"/>
       <path id="TimesNewRomanPSMT-5b" d="M 1900 -1269 
L 525 -1269 
L 525 4334 
L 1900 4334 
L 1900 4088 
L 994 4088 
L 994 -1025 
L 1900 -1025 
L 1900 -1269 
z
" transform="scale(0.015625)"/>
       <path id="TimesNewRomanPSMT-73" d="M 2050 2947 
L 2050 1972 
L 1947 1972 
Q 1828 2431 1642 2597 
Q 1456 2763 1169 2763 
Q 950 2763 815 2647 
Q 681 2531 681 2391 
Q 681 2216 781 2091 
Q 878 1963 1175 1819 
L 1631 1597 
Q 2266 1288 2266 781 
Q 2266 391 1970 151 
Q 1675 -88 1309 -88 
Q 1047 -88 709 6 
Q 606 38 541 38 
Q 469 38 428 -44 
L 325 -44 
L 325 978 
L 428 978 
Q 516 541 762 319 
Q 1009 97 1316 97 
Q 1531 97 1667 223 
Q 1803 350 1803 528 
Q 1803 744 1651 891 
Q 1500 1038 1047 1263 
Q 594 1488 453 1669 
Q 313 1847 313 2119 
Q 313 2472 555 2709 
Q 797 2947 1181 2947 
Q 1350 2947 1591 2875 
Q 1750 2828 1803 2828 
Q 1853 2828 1881 2850 
Q 1909 2872 1947 2947 
L 2050 2947 
z
" transform="scale(0.015625)"/>
       <path id="TimesNewRomanPSMT-5d" d="M 234 4334 
L 1609 4334 
L 1609 -1272 
L 234 -1272 
L 234 -1025 
L 1141 -1025 
L 1141 4088 
L 234 4088 
L 234 4334 
z
" transform="scale(0.015625)"/>
      </defs>
      <use xlink:href="#TimesNewRomanPSMT-74"/>
      <use xlink:href="#TimesNewRomanPSMT-69" x="27.783203"/>
      <use xlink:href="#TimesNewRomanPSMT-6d" x="55.566406"/>
      <use xlink:href="#TimesNewRomanPSMT-65" x="133.349609"/>
      <use xlink:href="#TimesNewRomanPSMT-20" x="177.734375"/>
      <use xlink:href="#TimesNewRomanPSMT-5b" x="202.734375"/>
      <use xlink:href="#TimesNewRomanPSMT-73" x="236.035156"/>
      <use xlink:href="#TimesNewRomanPSMT-5d" x="274.951172"/>
     </g>
    </g>
   </g>
   <g id="matplotlib.axis_2">
    <g id="ytick_1">
     <g id="line2d_5">
      <path d="M 48.62 99.136667 
L 116.130839 99.136667 
" clip-path="url(#pf0ee86a476)" style="fill: none; stroke: #b0b0b0; stroke-width: 0.8; stroke-linecap: square"/>
     </g>
     <g id="line2d_6">
      <defs>
       <path id="mcc1f1d97b3" d="M 0 0 
L -3.5 0 
" style="stroke: #000000; stroke-width: 0.8"/>
      </defs>
      <g>
       <use xlink:href="#mcc1f1d97b3" x="48.62" y="99.136667" style="stroke: #000000; stroke-width: 0.8"/>
      </g>
     </g>
     <g id="text_4">
      <!-- −1 -->
      <g transform="translate(32.044844 102.261354) scale(0.09 -0.09)">
       <defs>
        <path id="TimesNewRomanPSMT-2212" d="M 3484 2000 
L 116 2000 
L 116 2256 
L 3484 2256 
L 3484 2000 
z
" transform="scale(0.015625)"/>
        <path id="TimesNewRomanPSMT-31" d="M 750 3822 
L 1781 4325 
L 1884 4325 
L 1884 747 
Q 1884 391 1914 303 
Q 1944 216 2037 169 
Q 2131 122 2419 116 
L 2419 0 
L 825 0 
L 825 116 
Q 1125 122 1212 167 
Q 1300 213 1334 289 
Q 1369 366 1369 747 
L 1369 3034 
Q 1369 3497 1338 3628 
Q 1316 3728 1258 3775 
Q 1200 3822 1119 3822 
Q 1003 3822 797 3725 
L 750 3822 
z
" transform="scale(0.015625)"/>
       </defs>
       <use xlink:href="#TimesNewRomanPSMT-2212"/>
       <use xlink:href="#TimesNewRomanPSMT-31" x="56.396484"/>
      </g>
     </g>
    </g>
    <g id="ytick_2">
     <g id="line2d_7">
      <path d="M 48.62 64.82 
L 116.130839 64.82 
" clip-path="url(#pf0ee86a476)" style="fill: none; stroke: #b0b0b0; stroke-width: 0.8; stroke-linecap: square"/>
     </g>
     <g id="line2d_8">
      <g>
       <use xlink:href="#mcc1f1d97b3" x="48.62" y="64.82" style="stroke: #000000; stroke-width: 0.8"/>
      </g>
     </g>
     <g id="text_5">
      <!-- 0 -->
      <g transform="translate(37.12 67.944687) scale(0.09 -0.09)">
       <use xlink:href="#TimesNewRomanPSMT-30"/>
      </g>
     </g>
    </g>
    <g id="ytick_3">
     <g id="line2d_9">
      <path d="M 48.62 30.503333 
L 116.130839 30.503333 
" clip-path="url(#pf0ee86a476)" style="fill: none; stroke: #b0b0b0; stroke-width: 0.8; stroke-linecap: square"/>
     </g>
     <g id="line2d_10">
      <g>
       <use xlink:href="#mcc1f1d97b3" x="48.62" y="30.503333" style="stroke: #000000; stroke-width: 0.8"/>
      </g>
     </g>
     <g id="text_6">
      <!-- 1 -->
      <g transform="translate(37.12 33.628021) scale(0.09 -0.09)">
       <use xlink:href="#TimesNewRomanPSMT-31"/>
      </g>
     </g>
    </g>
    <g id="text_7">
     <!-- $\omega$ [rad/s] -->
     <g transform="translate(26.119688 80.795) rotate(-90) scale(0.09 -0.09)">
      <defs>
       <path id="STIXGeneral-Italic-3c9" d="M 3021 2810 
L 3136 2810 
Q 3648 2810 3898 2598 
Q 4186 2355 4186 1824 
Q 4186 1357 3910 838 
Q 3667 390 3334 160 
Q 3002 -70 2669 -70 
Q 2438 -70 2281 3 
Q 2125 77 2064 160 
Q 2003 243 1939 384 
Q 1741 147 1533 38 
Q 1325 -70 998 -70 
Q 659 -70 416 160 
Q 173 390 173 832 
Q 173 1101 237 1350 
Q 403 1965 883 2387 
Q 1363 2810 2010 2810 
L 2125 2810 
L 2125 2707 
Q 1606 2707 1267 2291 
Q 1024 1990 867 1526 
Q 710 1062 710 666 
Q 710 64 1075 64 
Q 1286 64 1523 285 
Q 1760 506 1856 774 
Q 1837 915 1837 1101 
Q 1837 1363 1914 1651 
Q 1984 1920 2125 2105 
Q 2266 2291 2432 2291 
Q 2656 2291 2656 1997 
Q 2656 1530 2387 1062 
Q 2272 864 2189 736 
Q 2176 691 2176 602 
Q 2176 384 2288 224 
Q 2400 64 2592 64 
Q 3040 64 3341 627 
Q 3482 896 3565 1270 
Q 3648 1645 3648 1971 
Q 3648 2240 3616 2362 
Q 3565 2566 3411 2636 
Q 3258 2707 3021 2707 
L 3021 2810 
z
" transform="scale(0.015625)"/>
       <path id="TimesNewRomanPSMT-72" d="M 1038 2947 
L 1038 2303 
Q 1397 2947 1775 2947 
Q 1947 2947 2059 2842 
Q 2172 2738 2172 2600 
Q 2172 2478 2090 2393 
Q 2009 2309 1897 2309 
Q 1788 2309 1652 2417 
Q 1516 2525 1450 2525 
Q 1394 2525 1328 2463 
Q 1188 2334 1038 2041 
L 1038 669 
Q 1038 431 1097 309 
Q 1138 225 1241 169 
Q 1344 113 1538 113 
L 1538 0 
L 72 0 
L 72 113 
Q 291 113 397 181 
Q 475 231 506 341 
Q 522 394 522 644 
L 522 1753 
Q 522 2253 501 2348 
Q 481 2444 426 2487 
Q 372 2531 291 2531 
Q 194 2531 72 2484 
L 41 2597 
L 906 2947 
L 1038 2947 
z
" transform="scale(0.015625)"/>
       <path id="TimesNewRomanPSMT-61" d="M 1822 413 
Q 1381 72 1269 19 
Q 1100 -59 909 -59 
Q 613 -59 420 144 
Q 228 347 228 678 
Q 228 888 322 1041 
Q 450 1253 767 1440 
Q 1084 1628 1822 1897 
L 1822 2009 
Q 1822 2438 1686 2597 
Q 1550 2756 1291 2756 
Q 1094 2756 978 2650 
Q 859 2544 859 2406 
L 866 2225 
Q 866 2081 792 2003 
Q 719 1925 600 1925 
Q 484 1925 411 2006 
Q 338 2088 338 2228 
Q 338 2497 613 2722 
Q 888 2947 1384 2947 
Q 1766 2947 2009 2819 
Q 2194 2722 2281 2516 
Q 2338 2381 2338 1966 
L 2338 994 
Q 2338 584 2353 492 
Q 2369 400 2405 369 
Q 2441 338 2488 338 
Q 2538 338 2575 359 
Q 2641 400 2828 588 
L 2828 413 
Q 2478 -56 2159 -56 
Q 2006 -56 1915 50 
Q 1825 156 1822 413 
z
M 1822 616 
L 1822 1706 
Q 1350 1519 1213 1441 
Q 966 1303 859 1153 
Q 753 1003 753 825 
Q 753 600 887 451 
Q 1022 303 1197 303 
Q 1434 303 1822 616 
z
" transform="scale(0.015625)"/>
       <path id="TimesNewRomanPSMT-64" d="M 2222 322 
Q 2013 103 1813 7 
Q 1613 -88 1381 -88 
Q 913 -88 563 304 
Q 213 697 213 1313 
Q 213 1928 600 2439 
Q 988 2950 1597 2950 
Q 1975 2950 2222 2709 
L 2222 3238 
Q 2222 3728 2198 3840 
Q 2175 3953 2125 3993 
Q 2075 4034 2000 4034 
Q 1919 4034 1784 3984 
L 1744 4094 
L 2597 4444 
L 2738 4444 
L 2738 1134 
Q 2738 631 2761 520 
Q 2784 409 2836 365 
Q 2888 322 2956 322 
Q 3041 322 3181 375 
L 3216 266 
L 2366 -88 
L 2222 -88 
L 2222 322 
z
M 2222 541 
L 2222 2016 
Q 2203 2228 2109 2403 
Q 2016 2578 1861 2667 
Q 1706 2756 1559 2756 
Q 1284 2756 1069 2509 
Q 784 2184 784 1559 
Q 784 928 1059 592 
Q 1334 256 1672 256 
Q 1956 256 2222 541 
z
" transform="scale(0.015625)"/>
       <path id="TimesNewRomanPSMT-2f" d="M 1794 4444 
L 259 -88 
L 9 -88 
L 1544 4444 
L 1794 4444 
z
" transform="scale(0.015625)"/>
      </defs>
      <use xlink:href="#STIXGeneral-Italic-3c9" transform="translate(0 0.5625)"/>
      <use xlink:href="#TimesNewRomanPSMT-20" transform="translate(68.599991 0.5625)"/>
      <use xlink:href="#TimesNewRomanPSMT-5b" transform="translate(93.599991 0.5625)"/>
      <use xlink:href="#TimesNewRomanPSMT-72" transform="translate(126.900772 0.5625)"/>
      <use xlink:href="#TimesNewRomanPSMT-61" transform="translate(160.201553 0.5625)"/>
      <use xlink:href="#TimesNewRomanPSMT-64" transform="translate(204.586319 0.5625)"/>
      <use xlink:href="#TimesNewRomanPSMT-2f" transform="translate(254.586319 0.5625)"/>
      <use xlink:href="#TimesNewRomanPSMT-73" transform="translate(282.369522 0.5625)"/>
      <use xlink:href="#TimesNewRomanPSMT-5d" transform="translate(321.285538 0.5625)"/>
     </g>
    </g>
   </g>
   <g id="line2d_11">
    <path d="M 48.62 30.503333 
L 116.130839 30.503333 
" clip-path="url(#pf0ee86a476)" style="fill: none; stroke-dasharray: 5.55,2.4; stroke-dashoffset: 0; stroke: #000000; stroke-width: 1.5"/>
   </g>
   <g id="line2d_12">
    <path d="M 48.62 99.136667 
L 116.130839 99.136667 
" clip-path="url(#pf0ee86a476)" style="fill: none; stroke-dasharray: 5.55,2.4; stroke-dashoffset: 0; stroke: #000000; stroke-width: 1.5"/>
   </g>
   <g id="line2d_13">
    <path d="M 48.62 64.82 
L 54.085163 64.82 
L 54.406643 50.954187 
L 54.888864 7.730064 
L 54.924143 -1 
M 57.349194 -1 
L 57.942925 4.925185 
L 58.585886 9.462891 
L 59.228846 12.6906 
L 59.550326 13.948673 
L 59.871806 15.742211 
L 60.032547 16.919149 
L 60.354027 17.516237 
L 60.675507 19.446053 
L 60.836247 19.584738 
L 60.996987 20.474321 
L 61.157727 20.552849 
L 61.479207 22.251014 
L 61.639947 22.251704 
L 62.122168 24.816627 
L 62.282908 24.758537 
L 62.925868 28.568544 
L 63.086608 28.524107 
L 65.015489 41.923337 
L 65.176229 43.522671 
L 65.33697 43.522671 
L 65.81919 48.703205 
L 65.97993 48.705542 
L 66.30141 52.415788 
L 66.46215 52.434928 
L 66.62289 54.394414 
L 66.78363 54.412147 
L 67.105111 58.539848 
L 67.265851 58.594254 
L 67.426591 60.715253 
L 67.587331 60.748641 
L 67.908811 65.091768 
L 68.069551 65.171454 
L 68.230291 67.308972 
L 68.391031 67.347696 
L 68.712511 71.514336 
L 68.873252 71.585176 
L 69.033992 73.513408 
L 69.194732 73.534865 
L 69.516212 77.008054 
L 69.676952 77.012423 
L 69.998432 79.684428 
L 70.159172 79.684428 
L 70.480652 81.490046 
L 70.641393 81.490046 
L 70.962873 82.425174 
L 71.123613 82.425174 
L 71.284353 82.584995 
L 71.445093 82.550195 
L 71.605833 82.354778 
L 71.766573 82.354778 
L 72.088053 81.512861 
L 72.248793 80.948838 
L 72.409534 80.948838 
L 74.016934 73.808998 
L 74.177675 73.808998 
L 74.981375 70.12613 
L 75.142115 70.12613 
L 75.785075 67.829607 
L 75.945816 67.829607 
L 76.588776 66.138849 
L 76.749516 65.831537 
L 76.910256 65.831537 
L 77.553217 64.85317 
L 77.713957 64.691824 
L 77.874697 64.691824 
L 78.356917 64.314579 
L 78.839137 78.537895 
L 79.160617 114.045984 
L 79.310438 145 
M 80.742733 145 
L 80.768018 137.335921 
L 80.928758 134.902642 
L 81.089499 137.452064 
L 81.410979 132.865958 
L 81.571719 134.959639 
L 82.214679 127.736093 
L 82.85764 122.637336 
L 84.14356 114.687121 
L 84.3043 114.303827 
L 84.46504 113.096707 
L 84.625781 112.829825 
L 84.786521 111.749316 
L 84.947261 111.572854 
L 85.108001 110.582842 
L 85.268741 110.477966 
L 85.590221 108.627996 
L 85.750961 108.616338 
L 86.072441 106.818998 
L 86.233181 106.866944 
L 86.876142 103.084811 
L 87.036882 103.161057 
L 88.483543 93.148402 
L 88.644283 91.678303 
L 88.805023 91.678303 
L 89.287243 86.8793 
L 89.447983 86.8793 
L 89.769463 83.382045 
L 89.930204 83.378013 
L 90.412424 77.71154 
L 90.573164 77.675731 
L 90.733904 75.68787 
L 90.894644 75.667973 
L 91.216124 71.47808 
L 91.376864 71.418471 
L 91.537604 69.266268 
L 91.698345 69.230083 
L 92.019825 64.819533 
L 92.180565 64.733365 
L 92.341305 62.563543 
L 92.502045 62.52155 
L 92.823525 58.28851 
L 92.984265 58.210679 
L 93.145005 56.253262 
L 93.305745 56.228661 
L 93.627226 52.700974 
L 93.787966 52.690787 
L 94.109446 49.982625 
L 94.270186 49.982625 
L 94.591666 48.156372 
L 94.752406 48.156372 
L 95.073886 47.215429 
L 95.234627 47.215429 
L 95.395367 47.057713 
L 95.556107 47.097267 
L 95.716847 47.299276 
L 95.877587 47.299276 
L 96.199067 48.160005 
L 96.520547 49.372148 
L 96.681287 49.372148 
L 97.324248 52.535261 
L 97.484988 52.535261 
L 98.288688 56.668015 
L 98.449428 56.668015 
L 99.092389 59.554407 
L 99.253129 59.554407 
L 99.896089 61.872594 
L 100.056829 62.319935 
L 100.217569 62.319935 
L 100.86053 63.833061 
L 101.02127 64.103902 
L 101.18201 64.103902 
L 101.82497 64.951567 
L 102.146451 65.087961 
L 102.467931 65.31721 
L 103.753851 65.207233 
L 105.200512 65.049015 
L 105.843473 65.010953 
L 106.004213 64.82 
L 106.486433 64.82 
L 106.486433 64.82 
" clip-path="url(#pf0ee86a476)" style="fill: none; stroke: #0000ff; stroke-width: 1.5; stroke-linecap: square"/>
   </g>
   <g id="line2d_14">
    <path d="M 48.62 64.82 
L 54.085163 64.82 
L 57.299965 30.503333 
L 63.247348 30.503333 
L 63.408088 30.765336 
L 63.729569 33.235955 
L 63.890309 33.235955 
L 64.533269 38.804288 
L 64.694009 38.804288 
L 65.176229 43.522671 
L 65.33697 43.522671 
L 65.81919 48.666199 
L 65.97993 48.705542 
L 66.30141 52.137209 
L 66.46215 52.434928 
L 66.62289 54.150762 
L 66.78363 54.412147 
L 67.426591 60.310087 
L 67.587331 60.748641 
L 68.230291 66.887288 
L 68.391031 67.347696 
L 69.033992 73.301009 
L 69.194732 73.534865 
L 69.516212 76.966532 
L 69.676952 77.012423 
L 69.998432 79.684428 
L 70.159172 79.684428 
L 70.480652 81.490046 
L 70.641393 81.490046 
L 70.962873 82.425174 
L 71.123613 82.425174 
L 71.284353 82.584995 
L 71.445093 82.550195 
L 71.605833 82.354778 
L 71.766573 82.354778 
L 72.088053 81.512861 
L 72.248793 80.948838 
L 72.409534 80.948838 
L 74.016934 73.808998 
L 74.177675 73.808998 
L 74.981375 70.12613 
L 75.142115 70.12613 
L 75.785075 67.829607 
L 75.945816 67.829607 
L 76.588776 66.138849 
L 76.749516 65.831537 
L 76.910256 65.831537 
L 77.553217 64.85317 
L 77.713957 64.691824 
L 77.874697 64.691824 
L 78.356917 64.314579 
L 81.571719 98.631246 
L 81.732459 99.136667 
L 87.519102 99.136667 
L 87.679842 98.638387 
L 87.840582 97.356309 
L 88.001322 97.356309 
L 88.644283 91.678303 
L 88.805023 91.678303 
L 89.287243 86.8793 
L 89.447983 86.8793 
L 89.769463 83.447633 
L 89.930204 83.378013 
L 90.733904 75.959898 
L 90.894644 75.667973 
L 91.537604 69.702638 
L 91.698345 69.230083 
L 92.341305 63.017532 
L 92.502045 62.52155 
L 93.145005 56.494845 
L 93.305745 56.228661 
L 93.627226 52.796994 
L 93.787966 52.690787 
L 94.109446 49.982625 
L 94.270186 49.982625 
L 94.591666 48.156372 
L 94.752406 48.156372 
L 95.073886 47.215429 
L 95.234627 47.215429 
L 95.395367 47.057713 
L 95.556107 47.097267 
L 95.716847 47.299276 
L 95.877587 47.299276 
L 96.199067 48.160005 
L 96.520547 49.372148 
L 96.681287 49.372148 
L 97.324248 52.535261 
L 97.484988 52.535261 
L 98.288688 56.668015 
L 98.449428 56.668015 
L 99.092389 59.554407 
L 99.253129 59.554407 
L 99.896089 61.872594 
L 100.056829 62.319935 
L 100.217569 62.319935 
L 100.86053 63.833061 
L 101.02127 64.103902 
L 101.18201 64.103902 
L 101.82497 64.951567 
L 102.146451 65.087961 
L 102.467931 65.31721 
L 103.753851 65.207233 
L 105.200512 65.049015 
L 105.843473 65.010953 
L 106.004213 64.82 
L 106.486433 64.82 
L 106.486433 64.82 
" clip-path="url(#pf0ee86a476)" style="fill: none; stroke: #ff0000; stroke-width: 1.5; stroke-linecap: square"/>
   </g>
   <g id="patch_3">
    <path d="M 48.62 106 
L 48.62 23.64 
" style="fill: none; stroke: #000000; stroke-linejoin: miter; stroke-linecap: square"/>
   </g>
   <g id="patch_4">
    <path d="M 116.130839 106 
L 116.130839 23.64 
" style="fill: none; stroke: #000000; stroke-linejoin: miter; stroke-linecap: square"/>
   </g>
   <g id="patch_5">
    <path d="M 48.62 106 
L 116.130839 106 
" style="fill: none; stroke: #000000; stroke-linejoin: miter; stroke-linecap: square"/>
   </g>
   <g id="patch_6">
    <path d="M 48.62 23.64 
L 116.130839 23.64 
" style="fill: none; stroke: #000000; stroke-linejoin: miter; stroke-linecap: square"/>
   </g>
   <g id="text_8">
    <!-- Pure Pursuit -->
    <g transform="translate(55.824294 17.64) scale(0.108 -0.108)">
     <defs>
      <path id="TimesNewRomanPSMT-50" d="M 1313 1984 
L 1313 750 
Q 1313 350 1400 253 
Q 1519 116 1759 116 
L 1922 116 
L 1922 0 
L 106 0 
L 106 116 
L 266 116 
Q 534 116 650 291 
Q 713 388 713 750 
L 713 3488 
Q 713 3888 628 3984 
Q 506 4122 266 4122 
L 106 4122 
L 106 4238 
L 1659 4238 
Q 2228 4238 2556 4120 
Q 2884 4003 3109 3725 
Q 3334 3447 3334 3066 
Q 3334 2547 2992 2222 
Q 2650 1897 2025 1897 
Q 1872 1897 1694 1919 
Q 1516 1941 1313 1984 
z
M 1313 2163 
Q 1478 2131 1606 2115 
Q 1734 2100 1825 2100 
Q 2150 2100 2386 2351 
Q 2622 2603 2622 3003 
Q 2622 3278 2509 3514 
Q 2397 3750 2190 3867 
Q 1984 3984 1722 3984 
Q 1563 3984 1313 3925 
L 1313 2163 
z
" transform="scale(0.015625)"/>
      <path id="TimesNewRomanPSMT-75" d="M 2709 2863 
L 2709 1128 
Q 2709 631 2732 520 
Q 2756 409 2807 365 
Q 2859 322 2928 322 
Q 3025 322 3147 375 
L 3191 266 
L 2334 -88 
L 2194 -88 
L 2194 519 
Q 1825 119 1631 15 
Q 1438 -88 1222 -88 
Q 981 -88 804 51 
Q 628 191 559 409 
Q 491 628 491 1028 
L 491 2306 
Q 491 2509 447 2587 
Q 403 2666 317 2708 
Q 231 2750 6 2747 
L 6 2863 
L 1009 2863 
L 1009 947 
Q 1009 547 1148 422 
Q 1288 297 1484 297 
Q 1619 297 1789 381 
Q 1959 466 2194 703 
L 2194 2325 
Q 2194 2569 2105 2655 
Q 2016 2741 1734 2747 
L 1734 2863 
L 2709 2863 
z
" transform="scale(0.015625)"/>
     </defs>
     <use xlink:href="#TimesNewRomanPSMT-50"/>
     <use xlink:href="#TimesNewRomanPSMT-75" x="55.615234"/>
     <use xlink:href="#TimesNewRomanPSMT-72" x="105.615234"/>
     <use xlink:href="#TimesNewRomanPSMT-65" x="138.916016"/>
     <use xlink:href="#TimesNewRomanPSMT-20" x="183.300781"/>
     <use xlink:href="#TimesNewRomanPSMT-50" x="208.300781"/>
     <use xlink:href="#TimesNewRomanPSMT-75" x="263.916016"/>
     <use xlink:href="#TimesNewRomanPSMT-72" x="313.916016"/>
     <use xlink:href="#TimesNewRomanPSMT-73" x="347.216797"/>
     <use xlink:href="#TimesNewRomanPSMT-75" x="386.132812"/>
     <use xlink:href="#TimesNewRomanPSMT-69" x="436.132812"/>
     <use xlink:href="#TimesNewRomanPSMT-74" x="463.916016"/>
    </g>
   </g>
  </g>
  <g id="axes_2">
   <g id="patch_7">
    <path d="M 150.31 106 
L 217.820839 106 
L 217.820839 23.64 
L 150.31 23.64 
z
" style="fill: #ffffff"/>
   </g>
   <g id="matplotlib.axis_3">
    <g id="xtick_3">
     <g id="line2d_15">
      <path d="M 150.31 106 
L 150.31 23.64 
" clip-path="url(#p15ccaf1aba)" style="fill: none; stroke: #b0b0b0; stroke-width: 0.8; stroke-linecap: square"/>
     </g>
     <g id="line2d_16">
      <g>
       <use xlink:href="#m4ee22d9c4a" x="150.31" y="106" style="stroke: #000000; stroke-width: 0.8"/>
      </g>
     </g>
     <g id="text_9">
      <!-- 0 -->
      <g transform="translate(148.06 119.249375) scale(0.09 -0.09)">
       <use xlink:href="#TimesNewRomanPSMT-30"/>
      </g>
     </g>
    </g>
    <g id="xtick_4">
     <g id="line2d_17">
      <path d="M 214.606037 106 
L 214.606037 23.64 
" clip-path="url(#p15ccaf1aba)" style="fill: none; stroke: #b0b0b0; stroke-width: 0.8; stroke-linecap: square"/>
     </g>
     <g id="line2d_18">
      <g>
       <use xlink:href="#m4ee22d9c4a" x="214.606037" y="106" style="stroke: #000000; stroke-width: 0.8"/>
      </g>
     </g>
     <g id="text_10">
      <!-- 20 -->
      <g transform="translate(210.106037 119.249375) scale(0.09 -0.09)">
       <use xlink:href="#TimesNewRomanPSMT-32"/>
       <use xlink:href="#TimesNewRomanPSMT-30" x="50"/>
      </g>
     </g>
    </g>
    <g id="text_11">
     <!-- time [s] -->
     <g transform="translate(170.194169 131.423906) scale(0.09 -0.09)">
      <use xlink:href="#TimesNewRomanPSMT-74"/>
      <use xlink:href="#TimesNewRomanPSMT-69" x="27.783203"/>
      <use xlink:href="#TimesNewRomanPSMT-6d" x="55.566406"/>
      <use xlink:href="#TimesNewRomanPSMT-65" x="133.349609"/>
      <use xlink:href="#TimesNewRomanPSMT-20" x="177.734375"/>
      <use xlink:href="#TimesNewRomanPSMT-5b" x="202.734375"/>
      <use xlink:href="#TimesNewRomanPSMT-73" x="236.035156"/>
      <use xlink:href="#TimesNewRomanPSMT-5d" x="274.951172"/>
     </g>
    </g>
   </g>
   <g id="matplotlib.axis_4">
    <g id="ytick_4">
     <g id="line2d_19">
      <path d="M 150.31 99.136667 
L 217.820839 99.136667 
" clip-path="url(#p15ccaf1aba)" style="fill: none; stroke: #b0b0b0; stroke-width: 0.8; stroke-linecap: square"/>
     </g>
     <g id="line2d_20">
      <g>
       <use xlink:href="#mcc1f1d97b3" x="150.31" y="99.136667" style="stroke: #000000; stroke-width: 0.8"/>
      </g>
     </g>
     <g id="text_12">
      <!-- −1 -->
      <g transform="translate(133.734844 102.261354) scale(0.09 -0.09)">
       <use xlink:href="#TimesNewRomanPSMT-2212"/>
       <use xlink:href="#TimesNewRomanPSMT-31" x="56.396484"/>
      </g>
     </g>
    </g>
    <g id="ytick_5">
     <g id="line2d_21">
      <path d="M 150.31 64.82 
L 217.820839 64.82 
" clip-path="url(#p15ccaf1aba)" style="fill: none; stroke: #b0b0b0; stroke-width: 0.8; stroke-linecap: square"/>
     </g>
     <g id="line2d_22">
      <g>
       <use xlink:href="#mcc1f1d97b3" x="150.31" y="64.82" style="stroke: #000000; stroke-width: 0.8"/>
      </g>
     </g>
     <g id="text_13">
      <!-- 0 -->
      <g transform="translate(138.81 67.944687) scale(0.09 -0.09)">
       <use xlink:href="#TimesNewRomanPSMT-30"/>
      </g>
     </g>
    </g>
    <g id="ytick_6">
     <g id="line2d_23">
      <path d="M 150.31 30.503333 
L 217.820839 30.503333 
" clip-path="url(#p15ccaf1aba)" style="fill: none; stroke: #b0b0b0; stroke-width: 0.8; stroke-linecap: square"/>
     </g>
     <g id="line2d_24">
      <g>
       <use xlink:href="#mcc1f1d97b3" x="150.31" y="30.503333" style="stroke: #000000; stroke-width: 0.8"/>
      </g>
     </g>
     <g id="text_14">
      <!-- 1 -->
      <g transform="translate(138.81 33.628021) scale(0.09 -0.09)">
       <use xlink:href="#TimesNewRomanPSMT-31"/>
      </g>
     </g>
    </g>
   </g>
   <g id="line2d_25">
    <path d="M 150.31 30.503333 
L 217.820839 30.503333 
" clip-path="url(#p15ccaf1aba)" style="fill: none; stroke-dasharray: 5.55,2.4; stroke-dashoffset: 0; stroke: #000000; stroke-width: 1.5"/>
   </g>
   <g id="line2d_26">
    <path d="M 150.31 99.136667 
L 217.820839 99.136667 
" clip-path="url(#p15ccaf1aba)" style="fill: none; stroke-dasharray: 5.55,2.4; stroke-dashoffset: 0; stroke: #000000; stroke-width: 1.5"/>
   </g>
   <g id="line2d_27">
    <path d="M 150.31 64.82 
L 155.132203 64.82 
L 155.453683 56.763387 
L 155.614423 50.144802 
L 155.775163 48.771082 
L 156.096643 21.765157 
L 156.255368 -1 
M 157.854443 -1 
L 157.864784 2.260469 
L 158.186264 4.525318 
L 158.347005 2.042857 
L 159.150705 6.514178 
L 159.954406 9.705719 
L 160.436626 11.153854 
L 160.597366 13.189458 
L 160.918846 13.776565 
L 161.079586 15.440066 
L 161.240326 15.618201 
L 161.401066 17.092171 
L 161.561806 17.190321 
L 161.722547 18.526213 
L 161.883287 18.561911 
L 162.204767 20.996011 
L 162.365507 20.955785 
L 162.686987 23.236361 
L 162.847727 23.155445 
L 163.329947 26.551089 
L 163.490688 26.4697 
L 165.098088 38.420853 
L 165.258829 38.420853 
L 165.901789 44.474778 
L 166.062529 44.474778 
L 166.544749 49.235908 
L 166.705489 49.235908 
L 167.02697 52.51655 
L 167.18771 52.51655 
L 167.50919 55.876292 
L 167.66993 55.876292 
L 167.99141 59.259675 
L 168.15215 59.259675 
L 168.47363 62.591681 
L 168.63437 62.591681 
L 168.955851 65.784707 
L 169.116591 65.784707 
L 169.438071 68.744072 
L 169.598811 68.744072 
L 169.920291 71.378696 
L 170.081031 71.378696 
L 170.402511 73.611739 
L 170.563252 73.611739 
L 170.884732 75.389111 
L 171.045472 75.389111 
L 171.527692 77.117819 
L 171.688432 77.117819 
L 172.009912 77.675096 
L 172.331393 77.785531 
L 172.652873 77.735399 
L 173.295833 77.083536 
L 173.617313 76.39535 
L 173.778053 76.39535 
L 174.421014 74.595651 
L 174.581754 74.595651 
L 175.224714 72.577076 
L 175.385454 72.577076 
L 176.189155 70.160661 
L 176.349895 70.160661 
L 177.153595 68.132055 
L 177.314335 68.132055 
L 177.957296 66.843993 
L 178.118036 66.843993 
L 178.439516 75.799278 
L 178.760996 93.467731 
L 179.284868 145 
M 180.791503 145 
L 180.850617 127.396408 
L 181.011358 126.44349 
L 181.172098 129.191702 
L 181.975798 125.045824 
L 182.779499 121.984981 
L 183.100979 121.009262 
L 183.261719 118.645503 
L 183.583199 118.032366 
L 183.743939 116.111339 
L 183.904679 115.928542 
L 184.065419 114.242467 
L 184.226159 114.146239 
L 184.386899 112.632877 
L 184.54764 112.6044 
L 184.70838 111.216525 
L 184.86912 111.24139 
L 185.1906 108.67964 
L 185.35134 108.766318 
L 185.83356 105.12033 
L 185.9943 105.231939 
L 186.476521 101.481649 
L 186.637261 101.547552 
L 187.440961 94.430554 
L 187.601701 94.430554 
L 188.244662 88.231568 
L 188.405402 88.231568 
L 188.887622 83.335633 
L 189.048362 83.335633 
L 189.530582 78.277191 
L 189.691322 78.277191 
L 190.012803 74.842399 
L 190.173543 74.842181 
L 190.655763 69.743239 
L 190.816503 69.743239 
L 191.137983 66.492605 
L 191.298723 66.492605 
L 191.620204 63.407483 
L 191.780944 63.407483 
L 192.102424 60.576914 
L 192.263164 60.576914 
L 192.584644 58.083656 
L 192.745384 58.083656 
L 193.066864 55.994777 
L 193.227604 55.994777 
L 193.549085 54.354746 
L 193.709825 54.354746 
L 194.192045 52.798855 
L 194.352785 52.798855 
L 194.674265 52.328725 
L 194.995745 52.25111 
L 195.317226 52.352708 
L 195.477966 52.513123 
L 195.638706 52.513123 
L 196.120926 53.372106 
L 196.281666 53.733856 
L 196.442406 53.733856 
L 197.085367 55.505163 
L 197.246107 55.505163 
L 197.889067 57.464991 
L 198.049807 57.464991 
L 198.853508 59.790645 
L 199.014248 59.790645 
L 199.817948 61.728906 
L 199.978688 61.728906 
L 200.621649 62.952282 
L 202.06831 62.952282 
L 202.87201 63.562576 
L 203.67571 63.882322 
L 204.640151 64.109913 
L 204.800891 64.82 
L 205.283111 64.82 
L 205.283111 64.82 
" clip-path="url(#p15ccaf1aba)" style="fill: none; stroke: #0000ff; stroke-width: 1.5; stroke-linecap: square"/>
   </g>
   <g id="line2d_28">
    <path d="M 150.31 64.82 
L 155.132203 64.82 
L 158.347005 30.503333 
L 163.972908 30.503333 
L 164.776608 35.568175 
L 165.098088 38.420853 
L 165.258829 38.420853 
L 165.901789 44.474778 
L 166.062529 44.474778 
L 166.544749 49.235908 
L 166.705489 49.235908 
L 167.02697 52.51655 
L 167.18771 52.51655 
L 167.50919 55.876292 
L 167.66993 55.876292 
L 167.99141 59.259675 
L 168.15215 59.259675 
L 168.47363 62.591681 
L 168.63437 62.591681 
L 168.955851 65.784707 
L 169.116591 65.784707 
L 169.438071 68.744072 
L 169.598811 68.744072 
L 169.920291 71.378696 
L 170.081031 71.378696 
L 170.402511 73.611739 
L 170.563252 73.611739 
L 170.884732 75.389111 
L 171.045472 75.389111 
L 171.527692 77.117819 
L 171.688432 77.117819 
L 172.009912 77.675096 
L 172.331393 77.785531 
L 172.652873 77.735399 
L 173.295833 77.083536 
L 173.617313 76.39535 
L 173.778053 76.39535 
L 174.421014 74.595651 
L 174.581754 74.595651 
L 175.224714 72.577076 
L 175.385454 72.577076 
L 176.189155 70.160661 
L 176.349895 70.160661 
L 177.153595 68.132055 
L 177.314335 68.132055 
L 177.957296 66.843993 
L 178.118036 66.843993 
L 181.172098 99.136667 
L 186.798001 99.136667 
L 186.958741 98.802929 
L 187.440961 94.430554 
L 187.601701 94.430554 
L 188.244662 88.231568 
L 188.405402 88.231568 
L 188.887622 83.335633 
L 189.048362 83.335633 
L 189.530582 78.277191 
L 189.691322 78.277191 
L 190.012803 74.845524 
L 190.173543 74.842181 
L 190.655763 69.743239 
L 190.816503 69.743239 
L 191.137983 66.492605 
L 191.298723 66.492605 
L 191.620204 63.407483 
L 191.780944 63.407483 
L 192.102424 60.576914 
L 192.263164 60.576914 
L 192.584644 58.083656 
L 192.745384 58.083656 
L 193.066864 55.994777 
L 193.227604 55.994777 
L 193.549085 54.354746 
L 193.709825 54.354746 
L 194.192045 52.798855 
L 194.352785 52.798855 
L 194.674265 52.328725 
L 194.995745 52.25111 
L 195.317226 52.352708 
L 195.477966 52.513123 
L 195.638706 52.513123 
L 196.120926 53.372106 
L 196.281666 53.733856 
L 196.442406 53.733856 
L 197.085367 55.505163 
L 197.246107 55.505163 
L 197.889067 57.464991 
L 198.049807 57.464991 
L 198.853508 59.790645 
L 199.014248 59.790645 
L 199.817948 61.728906 
L 199.978688 61.728906 
L 200.621649 62.952282 
L 202.06831 62.952282 
L 202.87201 63.562576 
L 203.67571 63.882322 
L 204.640151 64.109913 
L 204.800891 64.82 
L 205.283111 64.82 
L 205.283111 64.82 
" clip-path="url(#p15ccaf1aba)" style="fill: none; stroke: #ff0000; stroke-width: 1.5; stroke-linecap: square"/>
   </g>
   <g id="patch_8">
    <path d="M 150.31 106 
L 150.31 23.64 
" style="fill: none; stroke: #000000; stroke-linejoin: miter; stroke-linecap: square"/>
   </g>
   <g id="patch_9">
    <path d="M 217.820839 106 
L 217.820839 23.64 
" style="fill: none; stroke: #000000; stroke-linejoin: miter; stroke-linecap: square"/>
   </g>
   <g id="patch_10">
    <path d="M 150.31 106 
L 217.820839 106 
" style="fill: none; stroke: #000000; stroke-linejoin: miter; stroke-linecap: square"/>
   </g>
   <g id="patch_11">
    <path d="M 150.31 23.64 
L 217.820839 23.64 
" style="fill: none; stroke: #000000; stroke-linejoin: miter; stroke-linecap: square"/>
   </g>
   <g id="text_15">
    <!-- Adaptive -->
    <g transform="translate(164.271044 17.64) scale(0.108 -0.108)">
     <defs>
      <path id="TimesNewRomanPSMT-41" d="M 2928 1419 
L 1288 1419 
L 1000 750 
Q 894 503 894 381 
Q 894 284 986 211 
Q 1078 138 1384 116 
L 1384 0 
L 50 0 
L 50 116 
Q 316 163 394 238 
Q 553 388 747 847 
L 2238 4334 
L 2347 4334 
L 3822 809 
Q 4000 384 4145 257 
Q 4291 131 4550 116 
L 4550 0 
L 2878 0 
L 2878 116 
Q 3131 128 3220 200 
Q 3309 272 3309 375 
Q 3309 513 3184 809 
L 2928 1419 
z
M 2841 1650 
L 2122 3363 
L 1384 1650 
L 2841 1650 
z
" transform="scale(0.015625)"/>
      <path id="TimesNewRomanPSMT-70" d="M -6 2578 
L 875 2934 
L 994 2934 
L 994 2266 
Q 1216 2644 1439 2795 
Q 1663 2947 1909 2947 
Q 2341 2947 2628 2609 
Q 2981 2197 2981 1534 
Q 2981 794 2556 309 
Q 2206 -88 1675 -88 
Q 1444 -88 1275 -22 
Q 1150 25 994 166 
L 994 -706 
Q 994 -1000 1030 -1079 
Q 1066 -1159 1155 -1206 
Q 1244 -1253 1478 -1253 
L 1478 -1369 
L -22 -1369 
L -22 -1253 
L 56 -1253 
Q 228 -1256 350 -1188 
Q 409 -1153 442 -1076 
Q 475 -1000 475 -688 
L 475 2019 
Q 475 2297 450 2372 
Q 425 2447 370 2484 
Q 316 2522 222 2522 
Q 147 2522 31 2478 
L -6 2578 
z
M 994 2081 
L 994 1013 
Q 994 666 1022 556 
Q 1066 375 1236 237 
Q 1406 100 1666 100 
Q 1978 100 2172 344 
Q 2425 663 2425 1241 
Q 2425 1897 2138 2250 
Q 1938 2494 1663 2494 
Q 1513 2494 1366 2419 
Q 1253 2363 994 2081 
z
" transform="scale(0.015625)"/>
      <path id="TimesNewRomanPSMT-76" d="M 53 2863 
L 1400 2863 
L 1400 2747 
L 1313 2747 
Q 1191 2747 1127 2687 
Q 1063 2628 1063 2528 
Q 1063 2419 1128 2269 
L 1794 688 
L 2463 2328 
Q 2534 2503 2534 2594 
Q 2534 2638 2509 2666 
Q 2475 2713 2422 2730 
Q 2369 2747 2206 2747 
L 2206 2863 
L 3141 2863 
L 3141 2747 
Q 2978 2734 2916 2681 
Q 2806 2588 2719 2369 
L 1703 -88 
L 1575 -88 
L 553 2328 
Q 484 2497 421 2570 
Q 359 2644 263 2694 
Q 209 2722 53 2747 
L 53 2863 
z
" transform="scale(0.015625)"/>
     </defs>
     <use xlink:href="#TimesNewRomanPSMT-41"/>
     <use xlink:href="#TimesNewRomanPSMT-64" x="72.216797"/>
     <use xlink:href="#TimesNewRomanPSMT-61" x="122.216797"/>
     <use xlink:href="#TimesNewRomanPSMT-70" x="166.601562"/>
     <use xlink:href="#TimesNewRomanPSMT-74" x="216.601562"/>
     <use xlink:href="#TimesNewRomanPSMT-69" x="244.384766"/>
     <use xlink:href="#TimesNewRomanPSMT-76" x="272.167969"/>
     <use xlink:href="#TimesNewRomanPSMT-65" x="322.167969"/>
    </g>
   </g>
  </g>
  <g id="axes_3">
   <g id="patch_12">
    <path d="M 252 106 
L 319.510839 106 
L 319.510839 23.64 
L 252 23.64 
z
" style="fill: #ffffff"/>
   </g>
   <g id="matplotlib.axis_5">
    <g id="xtick_5">
     <g id="line2d_29">
      <path d="M 252 106 
L 252 23.64 
" clip-path="url(#p7b0574d3fb)" style="fill: none; stroke: #b0b0b0; stroke-width: 0.8; stroke-linecap: square"/>
     </g>
     <g id="line2d_30">
      <g>
       <use xlink:href="#m4ee22d9c4a" x="252" y="106" style="stroke: #000000; stroke-width: 0.8"/>
      </g>
     </g>
     <g id="text_16">
      <!-- 0 -->
      <g transform="translate(249.75 119.249375) scale(0.09 -0.09)">
       <use xlink:href="#TimesNewRomanPSMT-30"/>
      </g>
     </g>
    </g>
    <g id="xtick_6">
     <g id="line2d_31">
      <path d="M 316.296037 106 
L 316.296037 23.64 
" clip-path="url(#p7b0574d3fb)" style="fill: none; stroke: #b0b0b0; stroke-width: 0.8; stroke-linecap: square"/>
     </g>
     <g id="line2d_32">
      <g>
       <use xlink:href="#m4ee22d9c4a" x="316.296037" y="106" style="stroke: #000000; stroke-width: 0.8"/>
      </g>
     </g>
     <g id="text_17">
      <!-- 20 -->
      <g transform="translate(311.796037 119.249375) scale(0.09 -0.09)">
       <use xlink:href="#TimesNewRomanPSMT-32"/>
       <use xlink:href="#TimesNewRomanPSMT-30" x="50"/>
      </g>
     </g>
    </g>
    <g id="text_18">
     <!-- time [s] -->
     <g transform="translate(271.884169 131.423906) scale(0.09 -0.09)">
      <use xlink:href="#TimesNewRomanPSMT-74"/>
      <use xlink:href="#TimesNewRomanPSMT-69" x="27.783203"/>
      <use xlink:href="#TimesNewRomanPSMT-6d" x="55.566406"/>
      <use xlink:href="#TimesNewRomanPSMT-65" x="133.349609"/>
      <use xlink:href="#TimesNewRomanPSMT-20" x="177.734375"/>
      <use xlink:href="#TimesNewRomanPSMT-5b" x="202.734375"/>
      <use xlink:href="#TimesNewRomanPSMT-73" x="236.035156"/>
      <use xlink:href="#TimesNewRomanPSMT-5d" x="274.951172"/>
     </g>
    </g>
   </g>
   <g id="matplotlib.axis_6">
    <g id="ytick_7">
     <g id="line2d_33">
      <path d="M 252 99.136667 
L 319.510839 99.136667 
" clip-path="url(#p7b0574d3fb)" style="fill: none; stroke: #b0b0b0; stroke-width: 0.8; stroke-linecap: square"/>
     </g>
     <g id="line2d_34">
      <g>
       <use xlink:href="#mcc1f1d97b3" x="252" y="99.136667" style="stroke: #000000; stroke-width: 0.8"/>
      </g>
     </g>
     <g id="text_19">
      <!-- −1 -->
      <g transform="translate(235.424844 102.261354) scale(0.09 -0.09)">
       <use xlink:href="#TimesNewRomanPSMT-2212"/>
       <use xlink:href="#TimesNewRomanPSMT-31" x="56.396484"/>
      </g>
     </g>
    </g>
    <g id="ytick_8">
     <g id="line2d_35">
      <path d="M 252 64.82 
L 319.510839 64.82 
" clip-path="url(#p7b0574d3fb)" style="fill: none; stroke: #b0b0b0; stroke-width: 0.8; stroke-linecap: square"/>
     </g>
     <g id="line2d_36">
      <g>
       <use xlink:href="#mcc1f1d97b3" x="252" y="64.82" style="stroke: #000000; stroke-width: 0.8"/>
      </g>
     </g>
     <g id="text_20">
      <!-- 0 -->
      <g transform="translate(240.5 67.944687) scale(0.09 -0.09)">
       <use xlink:href="#TimesNewRomanPSMT-30"/>
      </g>
     </g>
    </g>
    <g id="ytick_9">
     <g id="line2d_37">
      <path d="M 252 30.503333 
L 319.510839 30.503333 
" clip-path="url(#p7b0574d3fb)" style="fill: none; stroke: #b0b0b0; stroke-width: 0.8; stroke-linecap: square"/>
     </g>
     <g id="line2d_38">
      <g>
       <use xlink:href="#mcc1f1d97b3" x="252" y="30.503333" style="stroke: #000000; stroke-width: 0.8"/>
      </g>
     </g>
     <g id="text_21">
      <!-- 1 -->
      <g transform="translate(240.5 33.628021) scale(0.09 -0.09)">
       <use xlink:href="#TimesNewRomanPSMT-31"/>
      </g>
     </g>
    </g>
   </g>
   <g id="line2d_39">
    <path d="M 252 30.503333 
L 319.510839 30.503333 
" clip-path="url(#p7b0574d3fb)" style="fill: none; stroke-dasharray: 5.55,2.4; stroke-dashoffset: 0; stroke: #000000; stroke-width: 1.5"/>
   </g>
   <g id="line2d_40">
    <path d="M 252 99.136667 
L 319.510839 99.136667 
" clip-path="url(#p7b0574d3fb)" style="fill: none; stroke-dasharray: 5.55,2.4; stroke-dashoffset: 0; stroke: #000000; stroke-width: 1.5"/>
   </g>
   <g id="line2d_41">
    <path d="M 252 64.82 
L 256.822203 64.82 
L 257.143683 56.763387 
L 257.304423 50.144802 
L 257.465163 48.771082 
L 257.625903 45.755185 
L 272.253252 45.755185 
L 272.574732 56.099677 
L 273.378432 66.428154 
L 273.539172 67.279101 
L 274.021393 71.420167 
L 274.503613 73.703424 
L 274.825093 74.439079 
L 274.985833 74.562476 
L 275.307313 74.330837 
L 276.111014 73.331035 
L 276.593234 72.331829 
L 276.753974 72.331829 
L 277.396934 70.829153 
L 277.557675 70.829153 
L 278.361375 69.00012 
L 278.522115 69.00012 
L 279.325816 67.445725 
L 279.486556 67.445725 
L 280.129516 66.449944 
L 280.290256 66.449944 
L 281.093957 65.525506 
L 281.254697 65.525506 
L 282.058397 64.927839 
L 282.379877 64.838396 
L 283.022838 64.636446 
L 283.826538 64.447636 
L 284.951719 64.395175 
L 285.273199 72.813051 
L 285.594679 83.884815 
L 285.755419 82.783239 
L 285.916159 83.884815 
L 300.543508 83.884815 
L 300.864988 83.347167 
L 301.347208 68.306512 
L 301.507948 67.367641 
L 301.990169 61.068867 
L 302.150909 60.068744 
L 302.793869 54.253387 
L 303.276089 51.952505 
L 303.597569 51.130209 
L 303.75831 51.11502 
L 304.07979 51.743827 
L 304.24053 52.180561 
L 304.40127 52.180561 
L 305.04423 54.27101 
L 305.20497 54.27101 
L 305.847931 56.538339 
L 306.008671 56.538339 
L 306.812371 59.196841 
L 306.973111 59.196841 
L 307.616072 61.013171 
L 307.776812 61.013171 
L 308.580512 62.802078 
L 308.741252 62.802078 
L 309.384213 63.846642 
L 309.544953 64.046664 
L 309.705693 64.046664 
L 310.348653 64.709362 
L 310.830874 64.942478 
L 311.313094 65.194804 
L 311.634574 65.25987 
L 312.438274 65.414881 
L 313.563455 65.447898 
L 315.170856 65.366174 
L 316.456777 65.128769 
L 317.742698 64.999843 
L 317.903438 64.82 
L 318.385658 64.82 
L 318.385658 64.82 
" clip-path="url(#p7b0574d3fb)" style="fill: none; stroke: #0000ff; stroke-width: 1.5; stroke-linecap: square"/>
   </g>
   <g id="line2d_42">
    <path d="M 252 64.82 
L 256.822203 64.82 
L 258.590344 45.945833 
L 258.751084 45.755185 
L 272.253252 45.755185 
L 274.985833 74.562476 
L 275.307313 74.330837 
L 276.111014 73.331035 
L 276.593234 72.331829 
L 276.753974 72.331829 
L 277.396934 70.829153 
L 277.557675 70.829153 
L 278.361375 69.00012 
L 278.522115 69.00012 
L 279.325816 67.445725 
L 279.486556 67.445725 
L 280.129516 66.449944 
L 280.290256 66.449944 
L 281.093957 65.525506 
L 281.254697 65.525506 
L 282.058397 64.927839 
L 282.379877 64.838396 
L 283.022838 64.636446 
L 283.826538 64.447636 
L 284.951719 64.395175 
L 286.8806 83.884815 
L 300.543508 83.884815 
L 300.864988 83.347167 
L 303.91905 51.339434 
L 304.24053 52.180561 
L 304.40127 52.180561 
L 305.04423 54.27101 
L 305.20497 54.27101 
L 305.847931 56.538339 
L 306.008671 56.538339 
L 306.812371 59.196841 
L 306.973111 59.196841 
L 307.616072 61.013171 
L 307.776812 61.013171 
L 308.580512 62.802078 
L 308.741252 62.802078 
L 309.384213 63.846642 
L 309.544953 64.046664 
L 309.705693 64.046664 
L 310.348653 64.709362 
L 310.830874 64.942478 
L 311.313094 65.194804 
L 311.634574 65.25987 
L 312.438274 65.414881 
L 313.563455 65.447898 
L 315.170856 65.366174 
L 316.456777 65.128769 
L 317.742698 64.999843 
L 317.903438 64.82 
L 318.385658 64.82 
L 318.385658 64.82 
" clip-path="url(#p7b0574d3fb)" style="fill: none; stroke: #ff0000; stroke-width: 1.5; stroke-linecap: square"/>
   </g>
   <g id="patch_13">
    <path d="M 252 106 
L 252 23.64 
" style="fill: none; stroke: #000000; stroke-linejoin: miter; stroke-linecap: square"/>
   </g>
   <g id="patch_14">
    <path d="M 319.510839 106 
L 319.510839 23.64 
" style="fill: none; stroke: #000000; stroke-linejoin: miter; stroke-linecap: square"/>
   </g>
   <g id="patch_15">
    <path d="M 252 106 
L 319.510839 106 
" style="fill: none; stroke: #000000; stroke-linejoin: miter; stroke-linecap: square"/>
   </g>
   <g id="patch_16">
    <path d="M 252 23.64 
L 319.510839 23.64 
" style="fill: none; stroke: #000000; stroke-linejoin: miter; stroke-linecap: square"/>
   </g>
   <g id="text_22">
    <!-- Regulated -->
    <g transform="translate(263.861794 17.64) scale(0.108 -0.108)">
     <defs>
      <path id="TimesNewRomanPSMT-52" d="M 4325 0 
L 3194 0 
L 1759 1981 
Q 1600 1975 1500 1975 
Q 1459 1975 1412 1976 
Q 1366 1978 1316 1981 
L 1316 750 
Q 1316 350 1403 253 
Q 1522 116 1759 116 
L 1925 116 
L 1925 0 
L 109 0 
L 109 116 
L 269 116 
Q 538 116 653 291 
Q 719 388 719 750 
L 719 3488 
Q 719 3888 631 3984 
Q 509 4122 269 4122 
L 109 4122 
L 109 4238 
L 1653 4238 
Q 2328 4238 2648 4139 
Q 2969 4041 3192 3777 
Q 3416 3513 3416 3147 
Q 3416 2756 3161 2468 
Q 2906 2181 2372 2063 
L 3247 847 
Q 3547 428 3762 290 
Q 3978 153 4325 116 
L 4325 0 
z
M 1316 2178 
Q 1375 2178 1419 2176 
Q 1463 2175 1491 2175 
Q 2097 2175 2405 2437 
Q 2713 2700 2713 3106 
Q 2713 3503 2464 3751 
Q 2216 4000 1806 4000 
Q 1625 4000 1316 3941 
L 1316 2178 
z
" transform="scale(0.015625)"/>
      <path id="TimesNewRomanPSMT-67" d="M 966 1044 
Q 703 1172 562 1401 
Q 422 1631 422 1909 
Q 422 2334 742 2640 
Q 1063 2947 1563 2947 
Q 1972 2947 2272 2747 
L 2878 2747 
Q 3013 2747 3034 2739 
Q 3056 2731 3066 2713 
Q 3084 2684 3084 2613 
Q 3084 2531 3069 2500 
Q 3059 2484 3036 2475 
Q 3013 2466 2878 2466 
L 2506 2466 
Q 2681 2241 2681 1891 
Q 2681 1491 2375 1206 
Q 2069 922 1553 922 
Q 1341 922 1119 984 
Q 981 866 932 777 
Q 884 688 884 625 
Q 884 572 936 522 
Q 988 472 1138 450 
Q 1225 438 1575 428 
Q 2219 413 2409 384 
Q 2700 344 2873 169 
Q 3047 -6 3047 -263 
Q 3047 -616 2716 -925 
Q 2228 -1381 1444 -1381 
Q 841 -1381 425 -1109 
Q 191 -953 191 -784 
Q 191 -709 225 -634 
Q 278 -519 444 -313 
Q 466 -284 763 25 
Q 600 122 533 198 
Q 466 275 466 372 
Q 466 481 555 628 
Q 644 775 966 1044 
z
M 1509 2797 
Q 1278 2797 1122 2612 
Q 966 2428 966 2047 
Q 966 1553 1178 1281 
Q 1341 1075 1591 1075 
Q 1828 1075 1981 1253 
Q 2134 1431 2134 1813 
Q 2134 2309 1919 2591 
Q 1759 2797 1509 2797 
z
M 934 0 
Q 788 -159 713 -296 
Q 638 -434 638 -550 
Q 638 -700 819 -813 
Q 1131 -1006 1722 -1006 
Q 2284 -1006 2551 -807 
Q 2819 -609 2819 -384 
Q 2819 -222 2659 -153 
Q 2497 -84 2016 -72 
Q 1313 -53 934 0 
z
" transform="scale(0.015625)"/>
      <path id="TimesNewRomanPSMT-6c" d="M 1184 4444 
L 1184 647 
Q 1184 378 1223 290 
Q 1263 203 1344 158 
Q 1425 113 1647 113 
L 1647 0 
L 244 0 
L 244 113 
Q 441 113 512 153 
Q 584 194 625 287 
Q 666 381 666 647 
L 666 3247 
Q 666 3731 644 3842 
Q 622 3953 573 3993 
Q 525 4034 450 4034 
Q 369 4034 244 3984 
L 191 4094 
L 1044 4444 
L 1184 4444 
z
" transform="scale(0.015625)"/>
     </defs>
     <use xlink:href="#TimesNewRomanPSMT-52"/>
     <use xlink:href="#TimesNewRomanPSMT-65" x="66.699219"/>
     <use xlink:href="#TimesNewRomanPSMT-67" x="111.083984"/>
     <use xlink:href="#TimesNewRomanPSMT-75" x="161.083984"/>
     <use xlink:href="#TimesNewRomanPSMT-6c" x="211.083984"/>
     <use xlink:href="#TimesNewRomanPSMT-61" x="238.867188"/>
     <use xlink:href="#TimesNewRomanPSMT-74" x="283.251953"/>
     <use xlink:href="#TimesNewRomanPSMT-65" x="311.035156"/>
     <use xlink:href="#TimesNewRomanPSMT-64" x="355.419922"/>
    </g>
   </g>
  </g>
  <g id="axes_4">
   <g id="patch_17">
    <path d="M 353.69 106 
L 421.200839 106 
L 421.200839 23.64 
L 353.69 23.64 
z
" style="fill: #ffffff"/>
   </g>
   <g id="matplotlib.axis_7">
    <g id="xtick_7">
     <g id="line2d_43">
      <path d="M 353.69 106 
L 353.69 23.64 
" clip-path="url(#pb813804ba2)" style="fill: none; stroke: #b0b0b0; stroke-width: 0.8; stroke-linecap: square"/>
     </g>
     <g id="line2d_44">
      <g>
       <use xlink:href="#m4ee22d9c4a" x="353.69" y="106" style="stroke: #000000; stroke-width: 0.8"/>
      </g>
     </g>
     <g id="text_23">
      <!-- 0 -->
      <g transform="translate(351.44 119.249375) scale(0.09 -0.09)">
       <use xlink:href="#TimesNewRomanPSMT-30"/>
      </g>
     </g>
    </g>
    <g id="xtick_8">
     <g id="line2d_45">
      <path d="M 417.986037 106 
L 417.986037 23.64 
" clip-path="url(#pb813804ba2)" style="fill: none; stroke: #b0b0b0; stroke-width: 0.8; stroke-linecap: square"/>
     </g>
     <g id="line2d_46">
      <g>
       <use xlink:href="#m4ee22d9c4a" x="417.986037" y="106" style="stroke: #000000; stroke-width: 0.8"/>
      </g>
     </g>
     <g id="text_24">
      <!-- 20 -->
      <g transform="translate(413.486037 119.249375) scale(0.09 -0.09)">
       <use xlink:href="#TimesNewRomanPSMT-32"/>
       <use xlink:href="#TimesNewRomanPSMT-30" x="50"/>
      </g>
     </g>
    </g>
    <g id="text_25">
     <!-- time [s] -->
     <g transform="translate(373.574169 131.423906) scale(0.09 -0.09)">
      <use xlink:href="#TimesNewRomanPSMT-74"/>
      <use xlink:href="#TimesNewRomanPSMT-69" x="27.783203"/>
      <use xlink:href="#TimesNewRomanPSMT-6d" x="55.566406"/>
      <use xlink:href="#TimesNewRomanPSMT-65" x="133.349609"/>
      <use xlink:href="#TimesNewRomanPSMT-20" x="177.734375"/>
      <use xlink:href="#TimesNewRomanPSMT-5b" x="202.734375"/>
      <use xlink:href="#TimesNewRomanPSMT-73" x="236.035156"/>
      <use xlink:href="#TimesNewRomanPSMT-5d" x="274.951172"/>
     </g>
    </g>
   </g>
   <g id="matplotlib.axis_8">
    <g id="ytick_10">
     <g id="line2d_47">
      <path d="M 353.69 99.136667 
L 421.200839 99.136667 
" clip-path="url(#pb813804ba2)" style="fill: none; stroke: #b0b0b0; stroke-width: 0.8; stroke-linecap: square"/>
     </g>
     <g id="line2d_48">
      <g>
       <use xlink:href="#mcc1f1d97b3" x="353.69" y="99.136667" style="stroke: #000000; stroke-width: 0.8"/>
      </g>
     </g>
     <g id="text_26">
      <!-- −1 -->
      <g transform="translate(337.114844 102.261354) scale(0.09 -0.09)">
       <use xlink:href="#TimesNewRomanPSMT-2212"/>
       <use xlink:href="#TimesNewRomanPSMT-31" x="56.396484"/>
      </g>
     </g>
    </g>
    <g id="ytick_11">
     <g id="line2d_49">
      <path d="M 353.69 64.82 
L 421.200839 64.82 
" clip-path="url(#pb813804ba2)" style="fill: none; stroke: #b0b0b0; stroke-width: 0.8; stroke-linecap: square"/>
     </g>
     <g id="line2d_50">
      <g>
       <use xlink:href="#mcc1f1d97b3" x="353.69" y="64.82" style="stroke: #000000; stroke-width: 0.8"/>
      </g>
     </g>
     <g id="text_27">
      <!-- 0 -->
      <g transform="translate(342.19 67.944687) scale(0.09 -0.09)">
       <use xlink:href="#TimesNewRomanPSMT-30"/>
      </g>
     </g>
    </g>
    <g id="ytick_12">
     <g id="line2d_51">
      <path d="M 353.69 30.503333 
L 421.200839 30.503333 
" clip-path="url(#pb813804ba2)" style="fill: none; stroke: #b0b0b0; stroke-width: 0.8; stroke-linecap: square"/>
     </g>
     <g id="line2d_52">
      <g>
       <use xlink:href="#mcc1f1d97b3" x="353.69" y="30.503333" style="stroke: #000000; stroke-width: 0.8"/>
      </g>
     </g>
     <g id="text_28">
      <!-- 1 -->
      <g transform="translate(342.19 33.628021) scale(0.09 -0.09)">
       <use xlink:href="#TimesNewRomanPSMT-31"/>
      </g>
     </g>
    </g>
   </g>
   <g id="line2d_53">
    <path d="M 353.69 30.503333 
L 421.200839 30.503333 
" clip-path="url(#pb813804ba2)" style="fill: none; stroke-dasharray: 5.55,2.4; stroke-dashoffset: 0; stroke: #000000; stroke-width: 1.5"/>
   </g>
   <g id="line2d_54">
    <path d="M 353.69 99.136667 
L 421.200839 99.136667 
" clip-path="url(#pb813804ba2)" style="fill: none; stroke-dasharray: 5.55,2.4; stroke-dashoffset: 0; stroke: #000000; stroke-width: 1.5"/>
   </g>
   <g id="line2d_55">
    <path d="M 353.69 64.82 
L 358.512203 64.82 
L 361.727005 30.782761 
L 361.887745 30.503333 
L 363.334406 45.755185 
L 363.816626 45.755185 
L 364.138106 49.186852 
L 364.459586 45.755185 
L 371.04993 45.755185 
L 371.21067 46.065843 
L 371.37141 45.755185 
L 371.53215 46.34967 
L 371.69289 45.755185 
L 371.85363 46.668989 
L 372.01437 45.755185 
L 372.175111 47.046006 
L 372.335851 45.906346 
L 374.425472 67.145605 
L 374.907692 68.704646 
L 375.229172 69.32674 
L 375.389912 69.32674 
L 375.872133 69.845504 
L 376.354353 69.941673 
L 376.997313 69.815484 
L 377.640274 69.291343 
L 377.801014 69.128282 
L 377.961754 69.128282 
L 379.569155 67.389424 
L 379.729895 67.389424 
L 380.533595 66.501022 
L 380.694335 66.501022 
L 381.498036 65.792144 
L 381.658776 65.792144 
L 382.462476 65.276056 
L 382.783957 65.191557 
L 383.587657 64.928363 
L 384.552098 64.72488 
L 385.034318 64.655735 
L 385.195058 66.371568 
L 385.355798 64.655735 
L 385.516538 64.47302 
L 387.92764 89.826656 
L 388.5706 83.884815 
L 392.749842 83.884815 
L 393.071322 80.453148 
L 393.392803 83.884815 
L 398.857966 83.884815 
L 399.018706 83.558153 
L 399.179446 83.884815 
L 399.340186 83.28106 
L 399.500926 83.884815 
L 399.661666 82.968369 
L 399.822406 83.884815 
L 400.143886 81.266648 
L 400.304627 82.246525 
L 402.233508 62.845002 
L 402.554988 61.968469 
L 402.715728 61.968469 
L 403.197948 61.076582 
L 403.358688 60.898639 
L 403.519428 60.898639 
L 404.001649 60.605802 
L 404.644609 60.638176 
L 405.44831 61.008592 
L 408.823851 63.697938 
L 408.984592 63.697938 
L 409.788292 64.217385 
L 410.109772 64.305294 
L 410.913473 64.580846 
L 411.877913 64.814471 
L 413.003094 64.942072 
L 417.343076 64.832207 
L 417.664556 64.82 
L 417.664556 64.82 
" clip-path="url(#pb813804ba2)" style="fill: none; stroke: #0000ff; stroke-width: 1.5; stroke-linecap: square"/>
   </g>
   <g id="line2d_56">
    <path d="M 353.69 64.82 
L 358.512203 64.82 
L 361.727005 30.782761 
L 361.887745 30.503333 
L 363.334406 45.755185 
L 363.816626 45.755185 
L 364.138106 49.186852 
L 364.459586 45.755185 
L 371.04993 45.755185 
L 371.21067 46.065843 
L 371.37141 45.755185 
L 371.53215 46.34967 
L 371.69289 45.755185 
L 371.85363 46.668989 
L 372.01437 45.755185 
L 372.175111 47.046006 
L 372.335851 45.906346 
L 374.425472 67.145605 
L 374.907692 68.704646 
L 375.229172 69.32674 
L 375.389912 69.32674 
L 375.872133 69.845504 
L 376.354353 69.941673 
L 376.997313 69.815484 
L 377.640274 69.291343 
L 377.801014 69.128282 
L 377.961754 69.128282 
L 379.569155 67.389424 
L 379.729895 67.389424 
L 380.533595 66.501022 
L 380.694335 66.501022 
L 381.498036 65.792144 
L 381.658776 65.792144 
L 382.462476 65.276056 
L 382.783957 65.191557 
L 383.587657 64.928363 
L 384.552098 64.72488 
L 385.034318 64.655735 
L 385.195058 66.371568 
L 385.355798 64.655735 
L 385.516538 64.47302 
L 387.92764 89.826656 
L 388.5706 83.884815 
L 392.749842 83.884815 
L 393.071322 80.453148 
L 393.392803 83.884815 
L 398.857966 83.884815 
L 399.018706 83.558153 
L 399.179446 83.884815 
L 399.340186 83.28106 
L 399.500926 83.884815 
L 399.661666 82.968369 
L 399.822406 83.884815 
L 400.143886 81.266648 
L 400.304627 82.246525 
L 402.233508 62.845002 
L 402.554988 61.968469 
L 402.715728 61.968469 
L 403.197948 61.076582 
L 403.358688 60.898639 
L 403.519428 60.898639 
L 404.001649 60.605802 
L 404.644609 60.638176 
L 405.44831 61.008592 
L 408.823851 63.697938 
L 408.984592 63.697938 
L 409.788292 64.217385 
L 410.109772 64.305294 
L 410.913473 64.580846 
L 411.877913 64.814471 
L 413.003094 64.942072 
L 417.343076 64.832207 
L 417.664556 64.82 
L 417.664556 64.82 
" clip-path="url(#pb813804ba2)" style="fill: none; stroke: #ff0000; stroke-width: 1.5; stroke-linecap: square"/>
   </g>
   <g id="patch_18">
    <path d="M 353.69 106 
L 353.69 23.64 
" style="fill: none; stroke: #000000; stroke-linejoin: miter; stroke-linecap: square"/>
   </g>
   <g id="patch_19">
    <path d="M 421.200839 106 
L 421.200839 23.64 
" style="fill: none; stroke: #000000; stroke-linejoin: miter; stroke-linecap: square"/>
   </g>
   <g id="patch_20">
    <path d="M 353.69 106 
L 421.200839 106 
" style="fill: none; stroke: #000000; stroke-linejoin: miter; stroke-linecap: square"/>
   </g>
   <g id="patch_21">
    <path d="M 353.69 23.64 
L 421.200839 23.64 
" style="fill: none; stroke: #000000; stroke-linejoin: miter; stroke-linecap: square"/>
   </g>
   <g id="text_29">
    <!-- Dynamic Window -->
    <g transform="translate(348.014451 17.64) scale(0.108 -0.108)">
     <defs>
      <path id="TimesNewRomanPSMT-44" d="M 109 0 
L 109 116 
L 269 116 
Q 538 116 650 288 
Q 719 391 719 750 
L 719 3488 
Q 719 3884 631 3984 
Q 509 4122 269 4122 
L 109 4122 
L 109 4238 
L 1834 4238 
Q 2784 4238 3279 4022 
Q 3775 3806 4076 3303 
Q 4378 2800 4378 2141 
Q 4378 1256 3841 663 
Q 3238 0 2003 0 
L 109 0 
z
M 1319 306 
Q 1716 219 1984 219 
Q 2709 219 3187 728 
Q 3666 1238 3666 2109 
Q 3666 2988 3187 3494 
Q 2709 4000 1959 4000 
Q 1678 4000 1319 3909 
L 1319 306 
z
" transform="scale(0.015625)"/>
      <path id="TimesNewRomanPSMT-79" d="M 38 2863 
L 1372 2863 
L 1372 2747 
L 1306 2747 
Q 1166 2747 1095 2686 
Q 1025 2625 1025 2534 
Q 1025 2413 1128 2197 
L 1825 753 
L 2466 2334 
Q 2519 2463 2519 2588 
Q 2519 2644 2497 2672 
Q 2472 2706 2419 2726 
Q 2366 2747 2231 2747 
L 2231 2863 
L 3163 2863 
L 3163 2747 
Q 3047 2734 2984 2696 
Q 2922 2659 2847 2556 
Q 2819 2513 2741 2316 
L 1575 -541 
Q 1406 -956 1132 -1168 
Q 859 -1381 606 -1381 
Q 422 -1381 303 -1275 
Q 184 -1169 184 -1031 
Q 184 -900 270 -820 
Q 356 -741 506 -741 
Q 609 -741 788 -809 
Q 913 -856 944 -856 
Q 1038 -856 1148 -759 
Q 1259 -663 1372 -384 
L 1575 113 
L 547 2272 
Q 500 2369 397 2513 
Q 319 2622 269 2659 
Q 197 2709 38 2747 
L 38 2863 
z
" transform="scale(0.015625)"/>
      <path id="TimesNewRomanPSMT-6e" d="M 1034 2341 
Q 1538 2947 1994 2947 
Q 2228 2947 2397 2830 
Q 2566 2713 2666 2444 
Q 2734 2256 2734 1869 
L 2734 647 
Q 2734 375 2778 278 
Q 2813 200 2889 156 
Q 2966 113 3172 113 
L 3172 0 
L 1756 0 
L 1756 113 
L 1816 113 
Q 2016 113 2095 173 
Q 2175 234 2206 353 
Q 2219 400 2219 647 
L 2219 1819 
Q 2219 2209 2117 2386 
Q 2016 2563 1775 2563 
Q 1403 2563 1034 2156 
L 1034 647 
Q 1034 356 1069 288 
Q 1113 197 1189 155 
Q 1266 113 1500 113 
L 1500 0 
L 84 0 
L 84 113 
L 147 113 
Q 366 113 442 223 
Q 519 334 519 647 
L 519 1709 
Q 519 2225 495 2337 
Q 472 2450 423 2490 
Q 375 2531 294 2531 
Q 206 2531 84 2484 
L 38 2597 
L 900 2947 
L 1034 2947 
L 1034 2341 
z
" transform="scale(0.015625)"/>
      <path id="TimesNewRomanPSMT-63" d="M 2631 1088 
Q 2516 522 2178 217 
Q 1841 -88 1431 -88 
Q 944 -88 581 321 
Q 219 731 219 1428 
Q 219 2103 620 2525 
Q 1022 2947 1584 2947 
Q 2006 2947 2278 2723 
Q 2550 2500 2550 2259 
Q 2550 2141 2473 2067 
Q 2397 1994 2259 1994 
Q 2075 1994 1981 2113 
Q 1928 2178 1911 2362 
Q 1894 2547 1784 2644 
Q 1675 2738 1481 2738 
Q 1169 2738 978 2506 
Q 725 2200 725 1697 
Q 725 1184 976 792 
Q 1228 400 1656 400 
Q 1963 400 2206 609 
Q 2378 753 2541 1131 
L 2631 1088 
z
" transform="scale(0.015625)"/>
      <path id="TimesNewRomanPSMT-57" d="M 5991 4238 
L 5991 4122 
Q 5825 4122 5722 4062 
Q 5619 4003 5525 3841 
Q 5463 3731 5328 3319 
L 4147 -97 
L 4022 -97 
L 3056 2613 
L 2097 -97 
L 1984 -97 
L 725 3422 
Q 584 3816 547 3888 
Q 484 4006 376 4064 
Q 269 4122 84 4122 
L 84 4238 
L 1653 4238 
L 1653 4122 
L 1578 4122 
Q 1413 4122 1325 4047 
Q 1238 3972 1238 3866 
Q 1238 3756 1375 3363 
L 2209 984 
L 2913 3006 
L 2788 3363 
L 2688 3647 
Q 2622 3803 2541 3922 
Q 2500 3981 2441 4022 
Q 2363 4078 2284 4103 
Q 2225 4122 2097 4122 
L 2097 4238 
L 3747 4238 
L 3747 4122 
L 3634 4122 
Q 3459 4122 3378 4047 
Q 3297 3972 3297 3844 
Q 3297 3684 3438 3288 
L 4250 984 
L 5056 3319 
Q 5194 3706 5194 3856 
Q 5194 3928 5148 3990 
Q 5103 4053 5034 4078 
Q 4916 4122 4725 4122 
L 4725 4238 
L 5991 4238 
z
" transform="scale(0.015625)"/>
      <path id="TimesNewRomanPSMT-6f" d="M 1600 2947 
Q 2250 2947 2644 2453 
Q 2978 2031 2978 1484 
Q 2978 1100 2793 706 
Q 2609 313 2286 112 
Q 1963 -88 1566 -88 
Q 919 -88 538 428 
Q 216 863 216 1403 
Q 216 1797 411 2186 
Q 606 2575 925 2761 
Q 1244 2947 1600 2947 
z
M 1503 2744 
Q 1338 2744 1170 2645 
Q 1003 2547 900 2300 
Q 797 2053 797 1666 
Q 797 1041 1045 587 
Q 1294 134 1700 134 
Q 2003 134 2200 384 
Q 2397 634 2397 1244 
Q 2397 2006 2069 2444 
Q 1847 2744 1503 2744 
z
" transform="scale(0.015625)"/>
      <path id="TimesNewRomanPSMT-77" d="M 41 2863 
L 1241 2863 
L 1241 2747 
Q 1075 2734 1023 2687 
Q 972 2641 972 2553 
Q 972 2456 1025 2319 
L 1638 672 
L 2253 2013 
L 2091 2434 
Q 2016 2622 1894 2694 
Q 1825 2738 1638 2747 
L 1638 2863 
L 3000 2863 
L 3000 2747 
Q 2775 2738 2681 2666 
Q 2619 2616 2619 2506 
Q 2619 2444 2644 2378 
L 3294 734 
L 3897 2319 
Q 3959 2488 3959 2588 
Q 3959 2647 3898 2694 
Q 3838 2741 3659 2747 
L 3659 2863 
L 4563 2863 
L 4563 2747 
Q 4291 2706 4163 2378 
L 3206 -88 
L 3078 -88 
L 2363 1741 
L 1528 -88 
L 1413 -88 
L 494 2319 
Q 403 2547 315 2626 
Q 228 2706 41 2747 
L 41 2863 
z
" transform="scale(0.015625)"/>
     </defs>
     <use xlink:href="#TimesNewRomanPSMT-44"/>
     <use xlink:href="#TimesNewRomanPSMT-79" x="72.216797"/>
     <use xlink:href="#TimesNewRomanPSMT-6e" x="122.216797"/>
     <use xlink:href="#TimesNewRomanPSMT-61" x="172.216797"/>
     <use xlink:href="#TimesNewRomanPSMT-6d" x="216.601562"/>
     <use xlink:href="#TimesNewRomanPSMT-69" x="294.384766"/>
     <use xlink:href="#TimesNewRomanPSMT-63" x="322.167969"/>
     <use xlink:href="#TimesNewRomanPSMT-20" x="366.552734"/>
     <use xlink:href="#TimesNewRomanPSMT-57" x="389.802734"/>
     <use xlink:href="#TimesNewRomanPSMT-69" x="480.1875"/>
     <use xlink:href="#TimesNewRomanPSMT-6e" x="507.970703"/>
     <use xlink:href="#TimesNewRomanPSMT-64" x="557.970703"/>
     <use xlink:href="#TimesNewRomanPSMT-6f" x="607.970703"/>
     <use xlink:href="#TimesNewRomanPSMT-77" x="657.970703"/>
    </g>
   </g>
  </g>
 </g>
 <defs>
  <clipPath id="pf0ee86a476">
   <rect x="48.62" y="23.64" width="67.510839" height="82.36"/>
  </clipPath>
  <clipPath id="p15ccaf1aba">
   <rect x="150.31" y="23.64" width="67.510839" height="82.36"/>
  </clipPath>
  <clipPath id="p7b0574d3fb">
   <rect x="252" y="23.64" width="67.510839" height="82.36"/>
  </clipPath>
  <clipPath id="pb813804ba2">
   <rect x="353.69" y="23.64" width="67.510839" height="82.36"/>
  </clipPath>
 </defs>
</svg>
