<?xml version="1.0" encoding="utf-8" standalone="no"?>
<!DOCTYPE svg PUBLIC "-//W3C//DTD SVG 1.1//EN"
  "http://www.w3.org/Graphics/SVG/1.1/DTD/svg11.dtd">
<svg xmlns:xlink="http://www.w3.org/1999/xlink" width="1296pt" height="576pt" viewBox="0 0 1296 576" xmlns="http://www.w3.org/2000/svg" version="1.1">
 <metadata>
  <rdf:RDF xmlns:dc="http://purl.org/dc/elements/1.1/" xmlns:cc="http://creativecommons.org/ns#" xmlns:rdf="http://www.w3.org/1999/02/22-rdf-syntax-ns#">
   <cc:Work>
    <dc:type rdf:resource="http://purl.org/dc/dcmitype/StillImage"/>
    <dc:date>2025-06-02T01:00:56.235512</dc:date>
    <dc:format>image/svg+xml</dc:format>
    <dc:creator>
     <cc:Agent>
      <dc:title>Matplotlib v3.9.2, https://matplotlib.org/</dc:title>
     </cc:Agent>
    </dc:creator>
   </cc:Work>
  </rdf:RDF>
 </metadata>
 <defs>
  <style type="text/css">*{stroke-linejoin: round; stroke-linecap: butt}</style>
 </defs>
 <g id="figure_1">
  <g id="patch_1">
   <path d="M 0 576 
L 1296 576 
L 1296 0 
L 0 0 
z
" style="fill: #ffffff"/>
  </g>
  <g id="axes_1">
   <g id="patch_2">
    <path d="M 215.57 405.88 
L 623.385 405.88 
L 623.385 58.32 
L 215.57 58.32 
z
" style="fill: #ffffff"/>
   </g>
   <g id="matplotlib.axis_1">
    <g id="xtick_1">
     <g id="line2d_1">
      <path d="M 215.57 405.88 
L 215.57 58.32 
" clip-path="url(#p30f4c9c628)" style="fill: none; stroke: #b0b0b0; stroke-width: 0.8; stroke-linecap: square"/>
     </g>
     <g id="line2d_2">
      <defs>
       <path id="m20e124a9f8" d="M 0 0 
L 0 3.5 
" style="stroke: #000000; stroke-width: 0.8"/>
      </defs>
      <g>
       <use xlink:href="#m20e124a9f8" x="215.57" y="405.88" style="stroke: #000000; stroke-width: 0.8"/>
      </g>
     </g>
     <g id="text_1">
      <!-- 0.0 -->
      <g transform="translate(181.82 450.37625) scale(0.54 -0.54)">
       <defs>
        <path id="TimesNewRomanPSMT-30" d="M 231 2094 
Q 231 2819 450 3342 
Q 669 3866 1031 4122 
Q 1313 4325 1613 4325 
Q 2100 4325 2488 3828 
Q 2972 3213 2972 2159 
Q 2972 1422 2759 906 
Q 2547 391 2217 158 
Q 1888 -75 1581 -75 
Q 975 -75 572 641 
Q 231 1244 231 2094 
z
M 844 2016 
Q 844 1141 1059 588 
Q 1238 122 1591 122 
Q 1759 122 1940 273 
Q 2122 425 2216 781 
Q 2359 1319 2359 2297 
Q 2359 3022 2209 3506 
Q 2097 3866 1919 4016 
Q 1791 4119 1609 4119 
Q 1397 4119 1231 3928 
Q 1006 3669 925 3112 
Q 844 2556 844 2016 
z
" transform="scale(0.015625)"/>
        <path id="TimesNewRomanPSMT-2e" d="M 800 606 
Q 947 606 1047 504 
Q 1147 403 1147 259 
Q 1147 116 1045 14 
Q 944 -88 800 -88 
Q 656 -88 554 14 
Q 453 116 453 259 
Q 453 406 554 506 
Q 656 606 800 606 
z
" transform="scale(0.015625)"/>
       </defs>
       <use xlink:href="#TimesNewRomanPSMT-30"/>
       <use xlink:href="#TimesNewRomanPSMT-2e" x="50"/>
       <use xlink:href="#TimesNewRomanPSMT-30" x="75"/>
      </g>
     </g>
    </g>
    <g id="xtick_2">
     <g id="line2d_3">
      <path d="M 351.508333 405.88 
L 351.508333 58.32 
" clip-path="url(#p30f4c9c628)" style="fill: none; stroke: #b0b0b0; stroke-width: 0.8; stroke-linecap: square"/>
     </g>
     <g id="line2d_4">
      <g>
       <use xlink:href="#m20e124a9f8" x="351.508333" y="405.88" style="stroke: #000000; stroke-width: 0.8"/>
      </g>
     </g>
     <g id="text_2">
      <!-- 1.0 -->
      <g transform="translate(317.758333 450.37625) scale(0.54 -0.54)">
       <defs>
        <path id="TimesNewRomanPSMT-31" d="M 750 3822 
L 1781 4325 
L 1884 4325 
L 1884 747 
Q 1884 391 1914 303 
Q 1944 216 2037 169 
Q 2131 122 2419 116 
L 2419 0 
L 825 0 
L 825 116 
Q 1125 122 1212 167 
Q 1300 213 1334 289 
Q 1369 366 1369 747 
L 1369 3034 
Q 1369 3497 1338 3628 
Q 1316 3728 1258 3775 
Q 1200 3822 1119 3822 
Q 1003 3822 797 3725 
L 750 3822 
z
" transform="scale(0.015625)"/>
       </defs>
       <use xlink:href="#TimesNewRomanPSMT-31"/>
       <use xlink:href="#TimesNewRomanPSMT-2e" x="50"/>
       <use xlink:href="#TimesNewRomanPSMT-30" x="75"/>
      </g>
     </g>
    </g>
    <g id="xtick_3">
     <g id="line2d_5">
      <path d="M 419.4775 405.88 
L 419.4775 58.32 
" clip-path="url(#p30f4c9c628)" style="fill: none; stroke: #b0b0b0; stroke-width: 0.8; stroke-linecap: square"/>
     </g>
     <g id="line2d_6">
      <g>
       <use xlink:href="#m20e124a9f8" x="419.4775" y="405.88" style="stroke: #000000; stroke-width: 0.8"/>
      </g>
     </g>
     <g id="text_3">
      <!-- 1.5 -->
      <g transform="translate(385.7275 450.37625) scale(0.54 -0.54)">
       <defs>
        <path id="TimesNewRomanPSMT-35" d="M 2778 4238 
L 2534 3706 
L 1259 3706 
L 981 3138 
Q 1809 3016 2294 2522 
Q 2709 2097 2709 1522 
Q 2709 1188 2573 903 
Q 2438 619 2231 419 
Q 2025 219 1772 97 
Q 1413 -75 1034 -75 
Q 653 -75 479 54 
Q 306 184 306 341 
Q 306 428 378 495 
Q 450 563 559 563 
Q 641 563 702 538 
Q 763 513 909 409 
Q 1144 247 1384 247 
Q 1750 247 2026 523 
Q 2303 800 2303 1197 
Q 2303 1581 2056 1914 
Q 1809 2247 1375 2428 
Q 1034 2569 447 2591 
L 1259 4238 
L 2778 4238 
z
" transform="scale(0.015625)"/>
       </defs>
       <use xlink:href="#TimesNewRomanPSMT-31"/>
       <use xlink:href="#TimesNewRomanPSMT-2e" x="50"/>
       <use xlink:href="#TimesNewRomanPSMT-35" x="75"/>
      </g>
     </g>
    </g>
    <g id="xtick_4">
     <g id="line2d_7">
      <path d="M 487.446667 405.88 
L 487.446667 58.32 
" clip-path="url(#p30f4c9c628)" style="fill: none; stroke: #b0b0b0; stroke-width: 0.8; stroke-linecap: square"/>
     </g>
     <g id="line2d_8">
      <g>
       <use xlink:href="#m20e124a9f8" x="487.446667" y="405.88" style="stroke: #000000; stroke-width: 0.8"/>
      </g>
     </g>
     <g id="text_4">
      <!-- 2.0 -->
      <g transform="translate(453.696667 450.37625) scale(0.54 -0.54)">
       <defs>
        <path id="TimesNewRomanPSMT-32" d="M 2934 816 
L 2638 0 
L 138 0 
L 138 116 
Q 1241 1122 1691 1759 
Q 2141 2397 2141 2925 
Q 2141 3328 1894 3587 
Q 1647 3847 1303 3847 
Q 991 3847 742 3664 
Q 494 3481 375 3128 
L 259 3128 
Q 338 3706 661 4015 
Q 984 4325 1469 4325 
Q 1984 4325 2329 3994 
Q 2675 3663 2675 3213 
Q 2675 2891 2525 2569 
Q 2294 2063 1775 1497 
Q 997 647 803 472 
L 1909 472 
Q 2247 472 2383 497 
Q 2519 522 2628 598 
Q 2738 675 2819 816 
L 2934 816 
z
" transform="scale(0.015625)"/>
       </defs>
       <use xlink:href="#TimesNewRomanPSMT-32"/>
       <use xlink:href="#TimesNewRomanPSMT-2e" x="50"/>
       <use xlink:href="#TimesNewRomanPSMT-30" x="75"/>
      </g>
     </g>
    </g>
    <g id="xtick_5">
     <g id="line2d_9">
      <path d="M 555.415833 405.88 
L 555.415833 58.32 
" clip-path="url(#p30f4c9c628)" style="fill: none; stroke: #b0b0b0; stroke-width: 0.8; stroke-linecap: square"/>
     </g>
     <g id="line2d_10">
      <g>
       <use xlink:href="#m20e124a9f8" x="555.415833" y="405.88" style="stroke: #000000; stroke-width: 0.8"/>
      </g>
     </g>
     <g id="text_5">
      <!-- 2.5 -->
      <g transform="translate(521.665833 450.37625) scale(0.54 -0.54)">
       <use xlink:href="#TimesNewRomanPSMT-32"/>
       <use xlink:href="#TimesNewRomanPSMT-2e" x="50"/>
       <use xlink:href="#TimesNewRomanPSMT-35" x="75"/>
      </g>
     </g>
    </g>
    <g id="text_6">
     <!-- $t$ [s] -->
     <g transform="translate(376.5475 503.423437) scale(0.54 -0.54)">
      <defs>
       <path id="STIXGeneral-Italic-74" d="M 1894 2739 
L 1862 2534 
L 1325 2534 
L 768 435 
Q 755 384 755 346 
Q 755 243 851 243 
Q 928 243 1030 342 
Q 1133 442 1370 749 
L 1453 704 
Q 1158 256 969 93 
Q 781 -70 538 -70 
Q 243 -70 243 166 
Q 243 230 346 640 
L 845 2534 
L 365 2534 
L 358 2573 
Q 358 2688 570 2733 
Q 730 2771 992 2979 
Q 1254 3187 1421 3437 
Q 1459 3494 1510 3494 
Q 1568 3494 1568 3443 
Q 1568 3411 1562 3398 
L 1382 2739 
L 1894 2739 
z
" transform="scale(0.015625)"/>
       <path id="TimesNewRomanPSMT-20" transform="scale(0.015625)"/>
       <path id="TimesNewRomanPSMT-5b" d="M 1900 -1269 
L 525 -1269 
L 525 4334 
L 1900 4334 
L 1900 4088 
L 994 4088 
L 994 -1025 
L 1900 -1025 
L 1900 -1269 
z
" transform="scale(0.015625)"/>
       <path id="TimesNewRomanPSMT-73" d="M 2050 2947 
L 2050 1972 
L 1947 1972 
Q 1828 2431 1642 2597 
Q 1456 2763 1169 2763 
Q 950 2763 815 2647 
Q 681 2531 681 2391 
Q 681 2216 781 2091 
Q 878 1963 1175 1819 
L 1631 1597 
Q 2266 1288 2266 781 
Q 2266 391 1970 151 
Q 1675 -88 1309 -88 
Q 1047 -88 709 6 
Q 606 38 541 38 
Q 469 38 428 -44 
L 325 -44 
L 325 978 
L 428 978 
Q 516 541 762 319 
Q 1009 97 1316 97 
Q 1531 97 1667 223 
Q 1803 350 1803 528 
Q 1803 744 1651 891 
Q 1500 1038 1047 1263 
Q 594 1488 453 1669 
Q 313 1847 313 2119 
Q 313 2472 555 2709 
Q 797 2947 1181 2947 
Q 1350 2947 1591 2875 
Q 1750 2828 1803 2828 
Q 1853 2828 1881 2850 
Q 1909 2872 1947 2947 
L 2050 2947 
z
" transform="scale(0.015625)"/>
       <path id="TimesNewRomanPSMT-5d" d="M 234 4334 
L 1609 4334 
L 1609 -1272 
L 234 -1272 
L 234 -1025 
L 1141 -1025 
L 1141 4088 
L 234 4088 
L 234 4334 
z
" transform="scale(0.015625)"/>
      </defs>
      <use xlink:href="#STIXGeneral-Italic-74" transform="translate(0 0.28125)"/>
      <use xlink:href="#TimesNewRomanPSMT-20" transform="translate(27.799988 0.28125)"/>
      <use xlink:href="#TimesNewRomanPSMT-5b" transform="translate(52.799988 0.28125)"/>
      <use xlink:href="#TimesNewRomanPSMT-73" transform="translate(86.100769 0.28125)"/>
      <use xlink:href="#TimesNewRomanPSMT-5d" transform="translate(125.016785 0.28125)"/>
     </g>
    </g>
   </g>
   <g id="matplotlib.axis_2">
    <g id="ytick_1">
     <g id="line2d_11">
      <path d="M 215.57 390.081818 
L 623.385 390.081818 
" clip-path="url(#p30f4c9c628)" style="fill: none; stroke: #b0b0b0; stroke-width: 0.8; stroke-linecap: square"/>
     </g>
     <g id="line2d_12">
      <defs>
       <path id="m4d5ef3bbca" d="M 0 0 
L -3.5 0 
" style="stroke: #000000; stroke-width: 0.8"/>
      </defs>
      <g>
       <use xlink:href="#m4d5ef3bbca" x="215.57" y="390.081818" style="stroke: #000000; stroke-width: 0.8"/>
      </g>
     </g>
     <g id="text_7">
      <!-- 0.0 -->
      <g transform="translate(141.07 408.829943) scale(0.54 -0.54)">
       <use xlink:href="#TimesNewRomanPSMT-30"/>
       <use xlink:href="#TimesNewRomanPSMT-2e" x="50"/>
       <use xlink:href="#TimesNewRomanPSMT-30" x="75"/>
      </g>
     </g>
    </g>
    <g id="ytick_2">
     <g id="line2d_13">
      <path d="M 215.57 232.1 
L 623.385 232.1 
" clip-path="url(#p30f4c9c628)" style="fill: none; stroke: #b0b0b0; stroke-width: 0.8; stroke-linecap: square"/>
     </g>
     <g id="line2d_14">
      <g>
       <use xlink:href="#m4d5ef3bbca" x="215.57" y="232.1" style="stroke: #000000; stroke-width: 0.8"/>
      </g>
     </g>
     <g id="text_8">
      <!-- 0.25 -->
      <g transform="translate(114.07 250.848125) scale(0.54 -0.54)">
       <use xlink:href="#TimesNewRomanPSMT-30"/>
       <use xlink:href="#TimesNewRomanPSMT-2e" x="50"/>
       <use xlink:href="#TimesNewRomanPSMT-32" x="75"/>
       <use xlink:href="#TimesNewRomanPSMT-35" x="125"/>
      </g>
     </g>
    </g>
    <g id="ytick_3">
     <g id="line2d_15">
      <path d="M 215.57 74.118182 
L 623.385 74.118182 
" clip-path="url(#p30f4c9c628)" style="fill: none; stroke: #b0b0b0; stroke-width: 0.8; stroke-linecap: square"/>
     </g>
     <g id="line2d_16">
      <g>
       <use xlink:href="#m4d5ef3bbca" x="215.57" y="74.118182" style="stroke: #000000; stroke-width: 0.8"/>
      </g>
     </g>
     <g id="text_9">
      <!-- 0.50 -->
      <g transform="translate(114.07 92.866307) scale(0.54 -0.54)">
       <use xlink:href="#TimesNewRomanPSMT-30"/>
       <use xlink:href="#TimesNewRomanPSMT-2e" x="50"/>
       <use xlink:href="#TimesNewRomanPSMT-35" x="75"/>
       <use xlink:href="#TimesNewRomanPSMT-30" x="125"/>
      </g>
     </g>
    </g>
    <g id="text_10">
     <!-- $v$ [m/s] -->
     <g transform="translate(98.519063 307.97) rotate(-90) scale(0.54 -0.54)">
      <defs>
       <path id="STIXGeneral-Italic-76" d="M 1325 448 
L 1523 653 
Q 1869 1005 2134 1456 
Q 2400 1907 2400 2131 
Q 2400 2208 2285 2317 
Q 2125 2458 2125 2605 
Q 2125 2701 2195 2761 
Q 2266 2822 2368 2822 
Q 2522 2822 2624 2704 
Q 2726 2586 2726 2445 
Q 2726 2074 2323 1453 
Q 1971 909 1562 474 
Q 1504 416 1421 326 
Q 1338 237 1299 192 
Q 1261 147 1200 86 
Q 1139 26 1110 -3 
Q 1082 -32 1043 -64 
Q 1005 -96 979 -105 
Q 954 -115 928 -115 
Q 870 -115 870 58 
L 870 211 
Q 870 1094 717 1990 
Q 653 2355 579 2470 
Q 506 2586 326 2586 
Q 198 2586 128 2579 
L 128 2662 
Q 480 2720 845 2797 
Q 915 2822 973 2822 
Q 1011 2822 1033 2739 
Q 1056 2656 1165 2093 
Q 1280 1510 1325 448 
z
" transform="scale(0.015625)"/>
       <path id="TimesNewRomanPSMT-6d" d="M 1050 2338 
Q 1363 2650 1419 2697 
Q 1559 2816 1721 2881 
Q 1884 2947 2044 2947 
Q 2313 2947 2506 2790 
Q 2700 2634 2766 2338 
Q 3088 2713 3309 2830 
Q 3531 2947 3766 2947 
Q 3994 2947 4170 2830 
Q 4347 2713 4450 2447 
Q 4519 2266 4519 1878 
L 4519 647 
Q 4519 378 4559 278 
Q 4591 209 4675 161 
Q 4759 113 4950 113 
L 4950 0 
L 3538 0 
L 3538 113 
L 3597 113 
Q 3781 113 3884 184 
Q 3956 234 3988 344 
Q 4000 397 4000 647 
L 4000 1878 
Q 4000 2228 3916 2372 
Q 3794 2572 3525 2572 
Q 3359 2572 3192 2489 
Q 3025 2406 2788 2181 
L 2781 2147 
L 2788 2013 
L 2788 647 
Q 2788 353 2820 281 
Q 2853 209 2943 161 
Q 3034 113 3253 113 
L 3253 0 
L 1806 0 
L 1806 113 
Q 2044 113 2133 169 
Q 2222 225 2256 338 
Q 2272 391 2272 647 
L 2272 1878 
Q 2272 2228 2169 2381 
Q 2031 2581 1784 2581 
Q 1616 2581 1450 2491 
Q 1191 2353 1050 2181 
L 1050 647 
Q 1050 366 1089 281 
Q 1128 197 1204 155 
Q 1281 113 1516 113 
L 1516 0 
L 100 0 
L 100 113 
Q 297 113 375 155 
Q 453 197 493 289 
Q 534 381 534 647 
L 534 1741 
Q 534 2213 506 2350 
Q 484 2453 437 2492 
Q 391 2531 309 2531 
Q 222 2531 100 2484 
L 53 2597 
L 916 2947 
L 1050 2947 
L 1050 2338 
z
" transform="scale(0.015625)"/>
       <path id="TimesNewRomanPSMT-2f" d="M 1794 4444 
L 259 -88 
L 9 -88 
L 1544 4444 
L 1794 4444 
z
" transform="scale(0.015625)"/>
      </defs>
      <use xlink:href="#STIXGeneral-Italic-76" transform="translate(0 0.5625)"/>
      <use xlink:href="#TimesNewRomanPSMT-20" transform="translate(44.399994 0.5625)"/>
      <use xlink:href="#TimesNewRomanPSMT-5b" transform="translate(69.399994 0.5625)"/>
      <use xlink:href="#TimesNewRomanPSMT-6d" transform="translate(102.700775 0.5625)"/>
      <use xlink:href="#TimesNewRomanPSMT-2f" transform="translate(180.483978 0.5625)"/>
      <use xlink:href="#TimesNewRomanPSMT-73" transform="translate(208.267181 0.5625)"/>
      <use xlink:href="#TimesNewRomanPSMT-5d" transform="translate(247.183197 0.5625)"/>
     </g>
    </g>
   </g>
   <g id="line2d_17">
    <path d="M 215.57 74.118182 
L 623.385 74.118182 
" clip-path="url(#p30f4c9c628)" style="fill: none; stroke-dasharray: 5.55,2.4; stroke-dashoffset: 0; stroke: #000000; stroke-width: 1.5"/>
   </g>
   <g id="line2d_18">
    <path d="M 215.57 390.081818 
L 623.385 390.081818 
" clip-path="url(#p30f4c9c628)" style="fill: none; stroke-dasharray: 5.55,2.4; stroke-dashoffset: 0; stroke: #000000; stroke-width: 1.5"/>
   </g>
   <g id="line2d_19">
    <path d="M 215.57 390.081818 
L 351.508333 74.118182 
L 446.665167 74.118182 
L 569.009667 358.485455 
L 575.806583 361.422817 
L 657.369583 361.422817 
L 670.963417 329.826453 
L 677.760333 315.754736 
L 691.354167 315.754736 
L 698.151083 310.368428 
L 786.511 310.368428 
L 793.307917 304.1565 
L 834.089417 304.1565 
L 840.886333 297.208983 
L 874.870917 297.208983 
L 881.667833 289.32294 
L 902.058583 289.32294 
L 908.8555 280.525946 
L 929.24625 280.525946 
L 936.043167 270.504616 
L 956.433917 270.504616 
L 963.230833 258.791525 
L 976.824667 258.791525 
L 983.621583 245.218304 
L 997.215417 245.218304 
L 1004.012333 229.420122 
L 1010.80925 229.068451 
L 1017.606167 213.270269 
L 1024.403083 210.134763 
L 1031.2 194.336581 
L 1037.996917 187.388739 
L 1044.793833 171.590557 
L 1051.59075 159.170988 
L 1085.575333 80.180079 
L 1092.37225 74.118182 
L 1297 74.118182 
L 1297 74.118182 
" clip-path="url(#p30f4c9c628)" style="fill: none; stroke: #0000ff; stroke-width: 6; stroke-linecap: square"/>
   </g>
   <g id="line2d_20">
    <path d="M 215.57 390.081818 
L 351.508333 74.118182 
L 419.4775 74.118182 
L 426.274417 89.916364 
L 433.071333 84.725219 
L 446.665167 116.321583 
L 453.462083 100.523401 
L 473.852833 147.917947 
L 480.64975 147.433302 
L 569.009667 352.809666 
L 575.806583 363.608686 
L 596.197333 362.817212 
L 602.99425 359.696385 
L 616.588083 359.47297 
L 636.978833 359.428386 
L 643.77575 359.428386 
L 657.369583 327.832022 
L 664.1665 316.211303 
L 670.963417 308.905428 
L 718.541833 308.905428 
L 725.33875 302.845236 
L 772.917167 302.845236 
L 779.714083 295.890467 
L 813.698667 295.890467 
L 820.495583 287.945359 
L 840.886333 287.945359 
L 847.68325 279.072217 
L 868.074 279.072217 
L 874.870917 268.958156 
L 895.261667 268.958156 
L 902.058583 257.134131 
L 915.652417 257.134131 
L 922.449333 243.462846 
L 936.043167 243.462846 
L 942.840083 227.664664 
L 949.637 227.252399 
L 956.433917 211.454218 
L 963.230833 208.495296 
L 970.02775 192.697114 
L 976.824667 186.344107 
L 983.621583 170.545926 
L 990.4185 159.493495 
L 1024.403083 80.502586 
L 1031.2 74.118182 
L 1065.184583 74.118182 
L 1078.778417 105.714545 
L 1092.37225 74.118182 
L 1297 74.118182 
L 1297 74.118182 
" clip-path="url(#p30f4c9c628)" style="fill: none; stroke: #ff0000; stroke-width: 6; stroke-linecap: square"/>
   </g>
   <g id="patch_3">
    <path d="M 215.57 405.88 
L 215.57 58.32 
" style="fill: none; stroke: #000000; stroke-linejoin: miter; stroke-linecap: square"/>
   </g>
   <g id="patch_4">
    <path d="M 623.385 405.88 
L 623.385 58.32 
" style="fill: none; stroke: #000000; stroke-linejoin: miter; stroke-linecap: square"/>
   </g>
   <g id="patch_5">
    <path d="M 215.57 405.88 
L 623.385 405.88 
" style="fill: none; stroke: #000000; stroke-linejoin: miter; stroke-linecap: square"/>
   </g>
   <g id="patch_6">
    <path d="M 215.57 58.32 
L 623.385 58.32 
" style="fill: none; stroke: #000000; stroke-linejoin: miter; stroke-linecap: square"/>
   </g>
  </g>
  <g id="axes_2">
   <g id="patch_7">
    <path d="M 829.865 405.88 
L 1237.68 405.88 
L 1237.68 58.32 
L 829.865 58.32 
z
" style="fill: #ffffff"/>
   </g>
   <g id="matplotlib.axis_3">
    <g id="xtick_6">
     <g id="line2d_21">
      <path d="M 829.865 405.88 
L 829.865 58.32 
" clip-path="url(#p68260ddc6b)" style="fill: none; stroke: #b0b0b0; stroke-width: 0.8; stroke-linecap: square"/>
     </g>
     <g id="line2d_22">
      <g>
       <use xlink:href="#m20e124a9f8" x="829.865" y="405.88" style="stroke: #000000; stroke-width: 0.8"/>
      </g>
     </g>
     <g id="text_11">
      <!-- 0.0 -->
      <g transform="translate(796.115 450.37625) scale(0.54 -0.54)">
       <use xlink:href="#TimesNewRomanPSMT-30"/>
       <use xlink:href="#TimesNewRomanPSMT-2e" x="50"/>
       <use xlink:href="#TimesNewRomanPSMT-30" x="75"/>
      </g>
     </g>
    </g>
    <g id="xtick_7">
     <g id="line2d_23">
      <path d="M 965.803333 405.88 
L 965.803333 58.32 
" clip-path="url(#p68260ddc6b)" style="fill: none; stroke: #b0b0b0; stroke-width: 0.8; stroke-linecap: square"/>
     </g>
     <g id="line2d_24">
      <g>
       <use xlink:href="#m20e124a9f8" x="965.803333" y="405.88" style="stroke: #000000; stroke-width: 0.8"/>
      </g>
     </g>
     <g id="text_12">
      <!-- 1.0 -->
      <g transform="translate(932.053333 450.37625) scale(0.54 -0.54)">
       <use xlink:href="#TimesNewRomanPSMT-31"/>
       <use xlink:href="#TimesNewRomanPSMT-2e" x="50"/>
       <use xlink:href="#TimesNewRomanPSMT-30" x="75"/>
      </g>
     </g>
    </g>
    <g id="xtick_8">
     <g id="line2d_25">
      <path d="M 1033.7725 405.88 
L 1033.7725 58.32 
" clip-path="url(#p68260ddc6b)" style="fill: none; stroke: #b0b0b0; stroke-width: 0.8; stroke-linecap: square"/>
     </g>
     <g id="line2d_26">
      <g>
       <use xlink:href="#m20e124a9f8" x="1033.7725" y="405.88" style="stroke: #000000; stroke-width: 0.8"/>
      </g>
     </g>
     <g id="text_13">
      <!-- 1.5 -->
      <g transform="translate(1000.0225 450.37625) scale(0.54 -0.54)">
       <use xlink:href="#TimesNewRomanPSMT-31"/>
       <use xlink:href="#TimesNewRomanPSMT-2e" x="50"/>
       <use xlink:href="#TimesNewRomanPSMT-35" x="75"/>
      </g>
     </g>
    </g>
    <g id="xtick_9">
     <g id="line2d_27">
      <path d="M 1101.741667 405.88 
L 1101.741667 58.32 
" clip-path="url(#p68260ddc6b)" style="fill: none; stroke: #b0b0b0; stroke-width: 0.8; stroke-linecap: square"/>
     </g>
     <g id="line2d_28">
      <g>
       <use xlink:href="#m20e124a9f8" x="1101.741667" y="405.88" style="stroke: #000000; stroke-width: 0.8"/>
      </g>
     </g>
     <g id="text_14">
      <!-- 2.0 -->
      <g transform="translate(1067.991667 450.37625) scale(0.54 -0.54)">
       <use xlink:href="#TimesNewRomanPSMT-32"/>
       <use xlink:href="#TimesNewRomanPSMT-2e" x="50"/>
       <use xlink:href="#TimesNewRomanPSMT-30" x="75"/>
      </g>
     </g>
    </g>
    <g id="xtick_10">
     <g id="line2d_29">
      <path d="M 1169.710833 405.88 
L 1169.710833 58.32 
" clip-path="url(#p68260ddc6b)" style="fill: none; stroke: #b0b0b0; stroke-width: 0.8; stroke-linecap: square"/>
     </g>
     <g id="line2d_30">
      <g>
       <use xlink:href="#m20e124a9f8" x="1169.710833" y="405.88" style="stroke: #000000; stroke-width: 0.8"/>
      </g>
     </g>
     <g id="text_15">
      <!-- 2.5 -->
      <g transform="translate(1135.960833 450.37625) scale(0.54 -0.54)">
       <use xlink:href="#TimesNewRomanPSMT-32"/>
       <use xlink:href="#TimesNewRomanPSMT-2e" x="50"/>
       <use xlink:href="#TimesNewRomanPSMT-35" x="75"/>
      </g>
     </g>
    </g>
    <g id="text_16">
     <!-- $t$ [s] -->
     <g transform="translate(990.8425 503.423437) scale(0.54 -0.54)">
      <use xlink:href="#STIXGeneral-Italic-74" transform="translate(0 0.28125)"/>
      <use xlink:href="#TimesNewRomanPSMT-20" transform="translate(27.799988 0.28125)"/>
      <use xlink:href="#TimesNewRomanPSMT-5b" transform="translate(52.799988 0.28125)"/>
      <use xlink:href="#TimesNewRomanPSMT-73" transform="translate(86.100769 0.28125)"/>
      <use xlink:href="#TimesNewRomanPSMT-5d" transform="translate(125.016785 0.28125)"/>
     </g>
    </g>
   </g>
   <g id="matplotlib.axis_4">
    <g id="ytick_4">
     <g id="line2d_31">
      <path d="M 829.865 390.081818 
L 1237.68 390.081818 
" clip-path="url(#p68260ddc6b)" style="fill: none; stroke: #b0b0b0; stroke-width: 0.8; stroke-linecap: square"/>
     </g>
     <g id="line2d_32">
      <g>
       <use xlink:href="#m4d5ef3bbca" x="829.865" y="390.081818" style="stroke: #000000; stroke-width: 0.8"/>
      </g>
     </g>
     <g id="text_17">
      <!-- -1.0 -->
      <g transform="translate(737.384687 408.829943) scale(0.54 -0.54)">
       <defs>
        <path id="TimesNewRomanPSMT-2d" d="M 259 1672 
L 1875 1672 
L 1875 1200 
L 259 1200 
L 259 1672 
z
" transform="scale(0.015625)"/>
       </defs>
       <use xlink:href="#TimesNewRomanPSMT-2d"/>
       <use xlink:href="#TimesNewRomanPSMT-31" x="33.300781"/>
       <use xlink:href="#TimesNewRomanPSMT-2e" x="83.300781"/>
       <use xlink:href="#TimesNewRomanPSMT-30" x="108.300781"/>
      </g>
     </g>
    </g>
    <g id="ytick_5">
     <g id="line2d_33">
      <path d="M 829.865 311.090909 
L 1237.68 311.090909 
" clip-path="url(#p68260ddc6b)" style="fill: none; stroke: #b0b0b0; stroke-width: 0.8; stroke-linecap: square"/>
     </g>
     <g id="line2d_34">
      <g>
       <use xlink:href="#m4d5ef3bbca" x="829.865" y="311.090909" style="stroke: #000000; stroke-width: 0.8"/>
      </g>
     </g>
     <g id="text_18">
      <!-- -0.5 -->
      <g transform="translate(737.384687 329.839034) scale(0.54 -0.54)">
       <use xlink:href="#TimesNewRomanPSMT-2d"/>
       <use xlink:href="#TimesNewRomanPSMT-30" x="33.300781"/>
       <use xlink:href="#TimesNewRomanPSMT-2e" x="83.300781"/>
       <use xlink:href="#TimesNewRomanPSMT-35" x="108.300781"/>
      </g>
     </g>
    </g>
    <g id="ytick_6">
     <g id="line2d_35">
      <path d="M 829.865 232.1 
L 1237.68 232.1 
" clip-path="url(#p68260ddc6b)" style="fill: none; stroke: #b0b0b0; stroke-width: 0.8; stroke-linecap: square"/>
     </g>
     <g id="line2d_36">
      <g>
       <use xlink:href="#m4d5ef3bbca" x="829.865" y="232.1" style="stroke: #000000; stroke-width: 0.8"/>
      </g>
     </g>
     <g id="text_19">
      <!-- 0.0 -->
      <g transform="translate(755.365 250.848125) scale(0.54 -0.54)">
       <use xlink:href="#TimesNewRomanPSMT-30"/>
       <use xlink:href="#TimesNewRomanPSMT-2e" x="50"/>
       <use xlink:href="#TimesNewRomanPSMT-30" x="75"/>
      </g>
     </g>
    </g>
    <g id="ytick_7">
     <g id="line2d_37">
      <path d="M 829.865 153.109091 
L 1237.68 153.109091 
" clip-path="url(#p68260ddc6b)" style="fill: none; stroke: #b0b0b0; stroke-width: 0.8; stroke-linecap: square"/>
     </g>
     <g id="line2d_38">
      <g>
       <use xlink:href="#m4d5ef3bbca" x="829.865" y="153.109091" style="stroke: #000000; stroke-width: 0.8"/>
      </g>
     </g>
     <g id="text_20">
      <!-- 0.5 -->
      <g transform="translate(755.365 171.857216) scale(0.54 -0.54)">
       <use xlink:href="#TimesNewRomanPSMT-30"/>
       <use xlink:href="#TimesNewRomanPSMT-2e" x="50"/>
       <use xlink:href="#TimesNewRomanPSMT-35" x="75"/>
      </g>
     </g>
    </g>
    <g id="ytick_8">
     <g id="line2d_39">
      <path d="M 829.865 74.118182 
L 1237.68 74.118182 
" clip-path="url(#p68260ddc6b)" style="fill: none; stroke: #b0b0b0; stroke-width: 0.8; stroke-linecap: square"/>
     </g>
     <g id="line2d_40">
      <g>
       <use xlink:href="#m4d5ef3bbca" x="829.865" y="74.118182" style="stroke: #000000; stroke-width: 0.8"/>
      </g>
     </g>
     <g id="text_21">
      <!-- 1.0 -->
      <g transform="translate(755.365 92.866307) scale(0.54 -0.54)">
       <use xlink:href="#TimesNewRomanPSMT-31"/>
       <use xlink:href="#TimesNewRomanPSMT-2e" x="50"/>
       <use xlink:href="#TimesNewRomanPSMT-30" x="75"/>
      </g>
     </g>
    </g>
    <g id="text_22">
     <!-- $\omega$ [m/s] -->
     <g transform="translate(721.83375 314.45) rotate(-90) scale(0.54 -0.54)">
      <defs>
       <path id="STIXGeneral-Italic-3c9" d="M 3021 2810 
L 3136 2810 
Q 3648 2810 3898 2598 
Q 4186 2355 4186 1824 
Q 4186 1357 3910 838 
Q 3667 390 3334 160 
Q 3002 -70 2669 -70 
Q 2438 -70 2281 3 
Q 2125 77 2064 160 
Q 2003 243 1939 384 
Q 1741 147 1533 38 
Q 1325 -70 998 -70 
Q 659 -70 416 160 
Q 173 390 173 832 
Q 173 1101 237 1350 
Q 403 1965 883 2387 
Q 1363 2810 2010 2810 
L 2125 2810 
L 2125 2707 
Q 1606 2707 1267 2291 
Q 1024 1990 867 1526 
Q 710 1062 710 666 
Q 710 64 1075 64 
Q 1286 64 1523 285 
Q 1760 506 1856 774 
Q 1837 915 1837 1101 
Q 1837 1363 1914 1651 
Q 1984 1920 2125 2105 
Q 2266 2291 2432 2291 
Q 2656 2291 2656 1997 
Q 2656 1530 2387 1062 
Q 2272 864 2189 736 
Q 2176 691 2176 602 
Q 2176 384 2288 224 
Q 2400 64 2592 64 
Q 3040 64 3341 627 
Q 3482 896 3565 1270 
Q 3648 1645 3648 1971 
Q 3648 2240 3616 2362 
Q 3565 2566 3411 2636 
Q 3258 2707 3021 2707 
L 3021 2810 
z
" transform="scale(0.015625)"/>
      </defs>
      <use xlink:href="#STIXGeneral-Italic-3c9" transform="translate(0 0.5625)"/>
      <use xlink:href="#TimesNewRomanPSMT-20" transform="translate(68.599991 0.5625)"/>
      <use xlink:href="#TimesNewRomanPSMT-5b" transform="translate(93.599991 0.5625)"/>
      <use xlink:href="#TimesNewRomanPSMT-6d" transform="translate(126.900772 0.5625)"/>
      <use xlink:href="#TimesNewRomanPSMT-2f" transform="translate(204.683975 0.5625)"/>
      <use xlink:href="#TimesNewRomanPSMT-73" transform="translate(232.467178 0.5625)"/>
      <use xlink:href="#TimesNewRomanPSMT-5d" transform="translate(271.383194 0.5625)"/>
     </g>
    </g>
   </g>
   <g id="line2d_41">
    <path d="M 829.865 74.118182 
L 1237.68 74.118182 
" clip-path="url(#p68260ddc6b)" style="fill: none; stroke-dasharray: 5.55,2.4; stroke-dashoffset: 0; stroke: #000000; stroke-width: 1.5"/>
   </g>
   <g id="line2d_42">
    <path d="M 829.865 390.081818 
L 1237.68 390.081818 
" clip-path="url(#p68260ddc6b)" style="fill: none; stroke-dasharray: 5.55,2.4; stroke-dashoffset: 0; stroke: #000000; stroke-width: 1.5"/>
   </g>
   <g id="line2d_43">
    <path d="M 829.865 232.1 
L 1033.7725 232.1 
L 1108.538583 145.21 
L 1115.3355 144.332323 
L 1297 144.332323 
L 1297 144.332323 
" clip-path="url(#p68260ddc6b)" style="fill: none; stroke: #0000ff; stroke-width: 6; stroke-linecap: square"/>
   </g>
   <g id="line2d_44">
    <path d="M 829.865 232.1 
L 1033.7725 232.1 
L 1060.960167 200.503636 
L 1067.757083 193.890934 
L 1169.710833 75.40457 
L 1176.50775 74.118182 
L 1230.883083 137.310909 
L 1237.68 144.332323 
L 1258.07075 144.332323 
L 1271.664583 160.130505 
L 1285.258417 144.332323 
L 1297 144.332323 
L 1297 144.332323 
" clip-path="url(#p68260ddc6b)" style="fill: none; stroke: #ff0000; stroke-width: 6; stroke-linecap: square"/>
   </g>
   <g id="patch_8">
    <path d="M 829.865 405.88 
L 829.865 58.32 
" style="fill: none; stroke: #000000; stroke-linejoin: miter; stroke-linecap: square"/>
   </g>
   <g id="patch_9">
    <path d="M 1237.68 405.88 
L 1237.68 58.32 
" style="fill: none; stroke: #000000; stroke-linejoin: miter; stroke-linecap: square"/>
   </g>
   <g id="patch_10">
    <path d="M 829.865 405.88 
L 1237.68 405.88 
" style="fill: none; stroke: #000000; stroke-linejoin: miter; stroke-linecap: square"/>
   </g>
   <g id="patch_11">
    <path d="M 829.865 58.32 
L 1237.68 58.32 
" style="fill: none; stroke: #000000; stroke-linejoin: miter; stroke-linecap: square"/>
   </g>
  </g>
 </g>
 <defs>
  <clipPath id="p30f4c9c628">
   <rect x="215.57" y="58.32" width="407.815" height="347.56"/>
  </clipPath>
  <clipPath id="p68260ddc6b">
   <rect x="829.865" y="58.32" width="407.815" height="347.56"/>
  </clipPath>
 </defs>
</svg>
