<?xml version="1.0" encoding="utf-8" standalone="no"?>
<!DOCTYPE svg PUBLIC "-//W3C//DTD SVG 1.1//EN"
  "http://www.w3.org/Graphics/SVG/1.1/DTD/svg11.dtd">
<svg xmlns:xlink="http://www.w3.org/1999/xlink" width="288pt" height="288pt" viewBox="0 0 288 288" xmlns="http://www.w3.org/2000/svg" version="1.1">
 <metadata>
  <rdf:RDF xmlns:dc="http://purl.org/dc/elements/1.1/" xmlns:cc="http://creativecommons.org/ns#" xmlns:rdf="http://www.w3.org/1999/02/22-rdf-syntax-ns#">
   <cc:Work>
    <dc:type rdf:resource="http://purl.org/dc/dcmitype/StillImage"/>
    <dc:date>2025-06-02T00:48:39.149482</dc:date>
    <dc:format>image/svg+xml</dc:format>
    <dc:creator>
     <cc:Agent>
      <dc:title>Matplotlib v3.9.2, https://matplotlib.org/</dc:title>
     </cc:Agent>
    </dc:creator>
   </cc:Work>
  </rdf:RDF>
 </metadata>
 <defs>
  <style type="text/css">*{stroke-linejoin: round; stroke-linecap: butt}</style>
 </defs>
 <g id="figure_1">
  <g id="patch_1">
   <path d="M 0 288 
L 288 288 
L 288 0 
L 0 0 
z
" style="fill: #ffffff"/>
  </g>
  <g id="axes_1">
   <g id="patch_2">
    <path d="M 48.62 110.86 
L 146.9 110.86 
L 146.9 23.64 
L 48.62 23.64 
z
" style="fill: #ffffff"/>
   </g>
   <g id="matplotlib.axis_1">
    <g id="xtick_1">
     <g id="line2d_1">
      <path d="M 48.62 110.86 
L 48.62 23.64 
" clip-path="url(#pf8f3cea023)" style="fill: none; stroke: #b0b0b0; stroke-width: 0.8; stroke-linecap: square"/>
     </g>
     <g id="line2d_2">
      <defs>
       <path id="m99c1632adb" d="M 0 0 
L 0 3.5 
" style="stroke: #000000; stroke-width: 0.8"/>
      </defs>
      <g>
       <use xlink:href="#m99c1632adb" x="48.62" y="110.86" style="stroke: #000000; stroke-width: 0.8"/>
      </g>
     </g>
     <g id="text_1">
      <!-- 0 -->
      <g transform="translate(46.37 124.109375) scale(0.09 -0.09)">
       <defs>
        <path id="TimesNewRomanPSMT-30" d="M 231 2094 
Q 231 2819 450 3342 
Q 669 3866 1031 4122 
Q 1313 4325 1613 4325 
Q 2100 4325 2488 3828 
Q 2972 3213 2972 2159 
Q 2972 1422 2759 906 
Q 2547 391 2217 158 
Q 1888 -75 1581 -75 
Q 975 -75 572 641 
Q 231 1244 231 2094 
z
M 844 2016 
Q 844 1141 1059 588 
Q 1238 122 1591 122 
Q 1759 122 1940 273 
Q 2122 425 2216 781 
Q 2359 1319 2359 2297 
Q 2359 3022 2209 3506 
Q 2097 3866 1919 4016 
Q 1791 4119 1609 4119 
Q 1397 4119 1231 3928 
Q 1006 3669 925 3112 
Q 844 2556 844 2016 
z
" transform="scale(0.015625)"/>
       </defs>
       <use xlink:href="#TimesNewRomanPSMT-30"/>
      </g>
     </g>
    </g>
    <g id="xtick_2">
     <g id="line2d_3">
      <path d="M 95.42 110.86 
L 95.42 23.64 
" clip-path="url(#pf8f3cea023)" style="fill: none; stroke: #b0b0b0; stroke-width: 0.8; stroke-linecap: square"/>
     </g>
     <g id="line2d_4">
      <g>
       <use xlink:href="#m99c1632adb" x="95.42" y="110.86" style="stroke: #000000; stroke-width: 0.8"/>
      </g>
     </g>
     <g id="text_2">
      <!-- 10 -->
      <g transform="translate(90.92 124.109375) scale(0.09 -0.09)">
       <defs>
        <path id="TimesNewRomanPSMT-31" d="M 750 3822 
L 1781 4325 
L 1884 4325 
L 1884 747 
Q 1884 391 1914 303 
Q 1944 216 2037 169 
Q 2131 122 2419 116 
L 2419 0 
L 825 0 
L 825 116 
Q 1125 122 1212 167 
Q 1300 213 1334 289 
Q 1369 366 1369 747 
L 1369 3034 
Q 1369 3497 1338 3628 
Q 1316 3728 1258 3775 
Q 1200 3822 1119 3822 
Q 1003 3822 797 3725 
L 750 3822 
z
" transform="scale(0.015625)"/>
       </defs>
       <use xlink:href="#TimesNewRomanPSMT-31"/>
       <use xlink:href="#TimesNewRomanPSMT-30" x="50"/>
      </g>
     </g>
    </g>
    <g id="xtick_3">
     <g id="line2d_5">
      <path d="M 142.22 110.86 
L 142.22 23.64 
" clip-path="url(#pf8f3cea023)" style="fill: none; stroke: #b0b0b0; stroke-width: 0.8; stroke-linecap: square"/>
     </g>
     <g id="line2d_6">
      <g>
       <use xlink:href="#m99c1632adb" x="142.22" y="110.86" style="stroke: #000000; stroke-width: 0.8"/>
      </g>
     </g>
     <g id="text_3">
      <!-- 20 -->
      <g transform="translate(137.72 124.109375) scale(0.09 -0.09)">
       <defs>
        <path id="TimesNewRomanPSMT-32" d="M 2934 816 
L 2638 0 
L 138 0 
L 138 116 
Q 1241 1122 1691 1759 
Q 2141 2397 2141 2925 
Q 2141 3328 1894 3587 
Q 1647 3847 1303 3847 
Q 991 3847 742 3664 
Q 494 3481 375 3128 
L 259 3128 
Q 338 3706 661 4015 
Q 984 4325 1469 4325 
Q 1984 4325 2329 3994 
Q 2675 3663 2675 3213 
Q 2675 2891 2525 2569 
Q 2294 2063 1775 1497 
Q 997 647 803 472 
L 1909 472 
Q 2247 472 2383 497 
Q 2519 522 2628 598 
Q 2738 675 2819 816 
L 2934 816 
z
" transform="scale(0.015625)"/>
       </defs>
       <use xlink:href="#TimesNewRomanPSMT-32"/>
       <use xlink:href="#TimesNewRomanPSMT-30" x="50"/>
      </g>
     </g>
    </g>
    <g id="text_4">
     <!-- time [s] -->
     <g transform="translate(83.88875 136.283906) scale(0.09 -0.09)">
      <defs>
       <path id="TimesNewRomanPSMT-74" d="M 1031 3803 
L 1031 2863 
L 1700 2863 
L 1700 2644 
L 1031 2644 
L 1031 788 
Q 1031 509 1111 412 
Q 1191 316 1316 316 
Q 1419 316 1516 380 
Q 1613 444 1666 569 
L 1788 569 
Q 1678 263 1478 108 
Q 1278 -47 1066 -47 
Q 922 -47 784 33 
Q 647 113 581 261 
Q 516 409 516 719 
L 516 2644 
L 63 2644 
L 63 2747 
Q 234 2816 414 2980 
Q 594 3144 734 3369 
Q 806 3488 934 3803 
L 1031 3803 
z
" transform="scale(0.015625)"/>
       <path id="TimesNewRomanPSMT-69" d="M 928 4444 
Q 1059 4444 1151 4351 
Q 1244 4259 1244 4128 
Q 1244 3997 1151 3903 
Q 1059 3809 928 3809 
Q 797 3809 703 3903 
Q 609 3997 609 4128 
Q 609 4259 701 4351 
Q 794 4444 928 4444 
z
M 1188 2947 
L 1188 647 
Q 1188 378 1227 289 
Q 1266 200 1342 156 
Q 1419 113 1622 113 
L 1622 0 
L 231 0 
L 231 113 
Q 441 113 512 153 
Q 584 194 626 287 
Q 669 381 669 647 
L 669 1750 
Q 669 2216 641 2353 
Q 619 2453 572 2492 
Q 525 2531 444 2531 
Q 356 2531 231 2484 
L 188 2597 
L 1050 2947 
L 1188 2947 
z
" transform="scale(0.015625)"/>
       <path id="TimesNewRomanPSMT-6d" d="M 1050 2338 
Q 1363 2650 1419 2697 
Q 1559 2816 1721 2881 
Q 1884 2947 2044 2947 
Q 2313 2947 2506 2790 
Q 2700 2634 2766 2338 
Q 3088 2713 3309 2830 
Q 3531 2947 3766 2947 
Q 3994 2947 4170 2830 
Q 4347 2713 4450 2447 
Q 4519 2266 4519 1878 
L 4519 647 
Q 4519 378 4559 278 
Q 4591 209 4675 161 
Q 4759 113 4950 113 
L 4950 0 
L 3538 0 
L 3538 113 
L 3597 113 
Q 3781 113 3884 184 
Q 3956 234 3988 344 
Q 4000 397 4000 647 
L 4000 1878 
Q 4000 2228 3916 2372 
Q 3794 2572 3525 2572 
Q 3359 2572 3192 2489 
Q 3025 2406 2788 2181 
L 2781 2147 
L 2788 2013 
L 2788 647 
Q 2788 353 2820 281 
Q 2853 209 2943 161 
Q 3034 113 3253 113 
L 3253 0 
L 1806 0 
L 1806 113 
Q 2044 113 2133 169 
Q 2222 225 2256 338 
Q 2272 391 2272 647 
L 2272 1878 
Q 2272 2228 2169 2381 
Q 2031 2581 1784 2581 
Q 1616 2581 1450 2491 
Q 1191 2353 1050 2181 
L 1050 647 
Q 1050 366 1089 281 
Q 1128 197 1204 155 
Q 1281 113 1516 113 
L 1516 0 
L 100 0 
L 100 113 
Q 297 113 375 155 
Q 453 197 493 289 
Q 534 381 534 647 
L 534 1741 
Q 534 2213 506 2350 
Q 484 2453 437 2492 
Q 391 2531 309 2531 
Q 222 2531 100 2484 
L 53 2597 
L 916 2947 
L 1050 2947 
L 1050 2338 
z
" transform="scale(0.015625)"/>
       <path id="TimesNewRomanPSMT-65" d="M 681 1784 
Q 678 1147 991 784 
Q 1303 422 1725 422 
Q 2006 422 2214 576 
Q 2422 731 2563 1106 
L 2659 1044 
Q 2594 616 2278 264 
Q 1963 -88 1488 -88 
Q 972 -88 605 314 
Q 238 716 238 1394 
Q 238 2128 614 2539 
Q 991 2950 1559 2950 
Q 2041 2950 2350 2633 
Q 2659 2316 2659 1784 
L 681 1784 
z
M 681 1966 
L 2006 1966 
Q 1991 2241 1941 2353 
Q 1863 2528 1708 2628 
Q 1553 2728 1384 2728 
Q 1125 2728 920 2526 
Q 716 2325 681 1966 
z
" transform="scale(0.015625)"/>
       <path id="TimesNewRomanPSMT-20" transform="scale(0.015625)"/>
       <path id="TimesNewRomanPSMT-5b" d="M 1900 -1269 
L 525 -1269 
L 525 4334 
L 1900 4334 
L 1900 4088 
L 994 4088 
L 994 -1025 
L 1900 -1025 
L 1900 -1269 
z
" transform="scale(0.015625)"/>
       <path id="TimesNewRomanPSMT-73" d="M 2050 2947 
L 2050 1972 
L 1947 1972 
Q 1828 2431 1642 2597 
Q 1456 2763 1169 2763 
Q 950 2763 815 2647 
Q 681 2531 681 2391 
Q 681 2216 781 2091 
Q 878 1963 1175 1819 
L 1631 1597 
Q 2266 1288 2266 781 
Q 2266 391 1970 151 
Q 1675 -88 1309 -88 
Q 1047 -88 709 6 
Q 606 38 541 38 
Q 469 38 428 -44 
L 325 -44 
L 325 978 
L 428 978 
Q 516 541 762 319 
Q 1009 97 1316 97 
Q 1531 97 1667 223 
Q 1803 350 1803 528 
Q 1803 744 1651 891 
Q 1500 1038 1047 1263 
Q 594 1488 453 1669 
Q 313 1847 313 2119 
Q 313 2472 555 2709 
Q 797 2947 1181 2947 
Q 1350 2947 1591 2875 
Q 1750 2828 1803 2828 
Q 1853 2828 1881 2850 
Q 1909 2872 1947 2947 
L 2050 2947 
z
" transform="scale(0.015625)"/>
       <path id="TimesNewRomanPSMT-5d" d="M 234 4334 
L 1609 4334 
L 1609 -1272 
L 234 -1272 
L 234 -1025 
L 1141 -1025 
L 1141 4088 
L 234 4088 
L 234 4334 
z
" transform="scale(0.015625)"/>
      </defs>
      <use xlink:href="#TimesNewRomanPSMT-74"/>
      <use xlink:href="#TimesNewRomanPSMT-69" x="27.783203"/>
      <use xlink:href="#TimesNewRomanPSMT-6d" x="55.566406"/>
      <use xlink:href="#TimesNewRomanPSMT-65" x="133.349609"/>
      <use xlink:href="#TimesNewRomanPSMT-20" x="177.734375"/>
      <use xlink:href="#TimesNewRomanPSMT-5b" x="202.734375"/>
      <use xlink:href="#TimesNewRomanPSMT-73" x="236.035156"/>
      <use xlink:href="#TimesNewRomanPSMT-5d" x="274.951172"/>
     </g>
    </g>
   </g>
   <g id="matplotlib.axis_2">
    <g id="ytick_1">
     <g id="line2d_7">
      <path d="M 48.62 103.591667 
L 146.9 103.591667 
" clip-path="url(#pf8f3cea023)" style="fill: none; stroke: #b0b0b0; stroke-width: 0.8; stroke-linecap: square"/>
     </g>
     <g id="line2d_8">
      <defs>
       <path id="m2248b24d75" d="M 0 0 
L -3.5 0 
" style="stroke: #000000; stroke-width: 0.8"/>
      </defs>
      <g>
       <use xlink:href="#m2248b24d75" x="48.62" y="103.591667" style="stroke: #000000; stroke-width: 0.8"/>
      </g>
     </g>
     <g id="text_5">
      <!-- −1 -->
      <g transform="translate(32.044844 106.716354) scale(0.09 -0.09)">
       <defs>
        <path id="TimesNewRomanPSMT-2212" d="M 3484 2000 
L 116 2000 
L 116 2256 
L 3484 2256 
L 3484 2000 
z
" transform="scale(0.015625)"/>
       </defs>
       <use xlink:href="#TimesNewRomanPSMT-2212"/>
       <use xlink:href="#TimesNewRomanPSMT-31" x="56.396484"/>
      </g>
     </g>
    </g>
    <g id="ytick_2">
     <g id="line2d_9">
      <path d="M 48.62 67.25 
L 146.9 67.25 
" clip-path="url(#pf8f3cea023)" style="fill: none; stroke: #b0b0b0; stroke-width: 0.8; stroke-linecap: square"/>
     </g>
     <g id="line2d_10">
      <g>
       <use xlink:href="#m2248b24d75" x="48.62" y="67.25" style="stroke: #000000; stroke-width: 0.8"/>
      </g>
     </g>
     <g id="text_6">
      <!-- 0 -->
      <g transform="translate(37.12 70.374688) scale(0.09 -0.09)">
       <use xlink:href="#TimesNewRomanPSMT-30"/>
      </g>
     </g>
    </g>
    <g id="ytick_3">
     <g id="line2d_11">
      <path d="M 48.62 30.908333 
L 146.9 30.908333 
" clip-path="url(#pf8f3cea023)" style="fill: none; stroke: #b0b0b0; stroke-width: 0.8; stroke-linecap: square"/>
     </g>
     <g id="line2d_12">
      <g>
       <use xlink:href="#m2248b24d75" x="48.62" y="30.908333" style="stroke: #000000; stroke-width: 0.8"/>
      </g>
     </g>
     <g id="text_7">
      <!-- 1 -->
      <g transform="translate(37.12 34.033021) scale(0.09 -0.09)">
       <use xlink:href="#TimesNewRomanPSMT-31"/>
      </g>
     </g>
    </g>
    <g id="text_8">
     <!-- $\omega$ [rad/s] -->
     <g transform="translate(26.119687 83.225) rotate(-90) scale(0.09 -0.09)">
      <defs>
       <path id="STIXGeneral-Italic-3c9" d="M 3021 2810 
L 3136 2810 
Q 3648 2810 3898 2598 
Q 4186 2355 4186 1824 
Q 4186 1357 3910 838 
Q 3667 390 3334 160 
Q 3002 -70 2669 -70 
Q 2438 -70 2281 3 
Q 2125 77 2064 160 
Q 2003 243 1939 384 
Q 1741 147 1533 38 
Q 1325 -70 998 -70 
Q 659 -70 416 160 
Q 173 390 173 832 
Q 173 1101 237 1350 
Q 403 1965 883 2387 
Q 1363 2810 2010 2810 
L 2125 2810 
L 2125 2707 
Q 1606 2707 1267 2291 
Q 1024 1990 867 1526 
Q 710 1062 710 666 
Q 710 64 1075 64 
Q 1286 64 1523 285 
Q 1760 506 1856 774 
Q 1837 915 1837 1101 
Q 1837 1363 1914 1651 
Q 1984 1920 2125 2105 
Q 2266 2291 2432 2291 
Q 2656 2291 2656 1997 
Q 2656 1530 2387 1062 
Q 2272 864 2189 736 
Q 2176 691 2176 602 
Q 2176 384 2288 224 
Q 2400 64 2592 64 
Q 3040 64 3341 627 
Q 3482 896 3565 1270 
Q 3648 1645 3648 1971 
Q 3648 2240 3616 2362 
Q 3565 2566 3411 2636 
Q 3258 2707 3021 2707 
L 3021 2810 
z
" transform="scale(0.015625)"/>
       <path id="TimesNewRomanPSMT-72" d="M 1038 2947 
L 1038 2303 
Q 1397 2947 1775 2947 
Q 1947 2947 2059 2842 
Q 2172 2738 2172 2600 
Q 2172 2478 2090 2393 
Q 2009 2309 1897 2309 
Q 1788 2309 1652 2417 
Q 1516 2525 1450 2525 
Q 1394 2525 1328 2463 
Q 1188 2334 1038 2041 
L 1038 669 
Q 1038 431 1097 309 
Q 1138 225 1241 169 
Q 1344 113 1538 113 
L 1538 0 
L 72 0 
L 72 113 
Q 291 113 397 181 
Q 475 231 506 341 
Q 522 394 522 644 
L 522 1753 
Q 522 2253 501 2348 
Q 481 2444 426 2487 
Q 372 2531 291 2531 
Q 194 2531 72 2484 
L 41 2597 
L 906 2947 
L 1038 2947 
z
" transform="scale(0.015625)"/>
       <path id="TimesNewRomanPSMT-61" d="M 1822 413 
Q 1381 72 1269 19 
Q 1100 -59 909 -59 
Q 613 -59 420 144 
Q 228 347 228 678 
Q 228 888 322 1041 
Q 450 1253 767 1440 
Q 1084 1628 1822 1897 
L 1822 2009 
Q 1822 2438 1686 2597 
Q 1550 2756 1291 2756 
Q 1094 2756 978 2650 
Q 859 2544 859 2406 
L 866 2225 
Q 866 2081 792 2003 
Q 719 1925 600 1925 
Q 484 1925 411 2006 
Q 338 2088 338 2228 
Q 338 2497 613 2722 
Q 888 2947 1384 2947 
Q 1766 2947 2009 2819 
Q 2194 2722 2281 2516 
Q 2338 2381 2338 1966 
L 2338 994 
Q 2338 584 2353 492 
Q 2369 400 2405 369 
Q 2441 338 2488 338 
Q 2538 338 2575 359 
Q 2641 400 2828 588 
L 2828 413 
Q 2478 -56 2159 -56 
Q 2006 -56 1915 50 
Q 1825 156 1822 413 
z
M 1822 616 
L 1822 1706 
Q 1350 1519 1213 1441 
Q 966 1303 859 1153 
Q 753 1003 753 825 
Q 753 600 887 451 
Q 1022 303 1197 303 
Q 1434 303 1822 616 
z
" transform="scale(0.015625)"/>
       <path id="TimesNewRomanPSMT-64" d="M 2222 322 
Q 2013 103 1813 7 
Q 1613 -88 1381 -88 
Q 913 -88 563 304 
Q 213 697 213 1313 
Q 213 1928 600 2439 
Q 988 2950 1597 2950 
Q 1975 2950 2222 2709 
L 2222 3238 
Q 2222 3728 2198 3840 
Q 2175 3953 2125 3993 
Q 2075 4034 2000 4034 
Q 1919 4034 1784 3984 
L 1744 4094 
L 2597 4444 
L 2738 4444 
L 2738 1134 
Q 2738 631 2761 520 
Q 2784 409 2836 365 
Q 2888 322 2956 322 
Q 3041 322 3181 375 
L 3216 266 
L 2366 -88 
L 2222 -88 
L 2222 322 
z
M 2222 541 
L 2222 2016 
Q 2203 2228 2109 2403 
Q 2016 2578 1861 2667 
Q 1706 2756 1559 2756 
Q 1284 2756 1069 2509 
Q 784 2184 784 1559 
Q 784 928 1059 592 
Q 1334 256 1672 256 
Q 1956 256 2222 541 
z
" transform="scale(0.015625)"/>
       <path id="TimesNewRomanPSMT-2f" d="M 1794 4444 
L 259 -88 
L 9 -88 
L 1544 4444 
L 1794 4444 
z
" transform="scale(0.015625)"/>
      </defs>
      <use xlink:href="#STIXGeneral-Italic-3c9" transform="translate(0 0.5625)"/>
      <use xlink:href="#TimesNewRomanPSMT-20" transform="translate(68.599991 0.5625)"/>
      <use xlink:href="#TimesNewRomanPSMT-5b" transform="translate(93.599991 0.5625)"/>
      <use xlink:href="#TimesNewRomanPSMT-72" transform="translate(126.900772 0.5625)"/>
      <use xlink:href="#TimesNewRomanPSMT-61" transform="translate(160.201553 0.5625)"/>
      <use xlink:href="#TimesNewRomanPSMT-64" transform="translate(204.586319 0.5625)"/>
      <use xlink:href="#TimesNewRomanPSMT-2f" transform="translate(254.586319 0.5625)"/>
      <use xlink:href="#TimesNewRomanPSMT-73" transform="translate(282.369522 0.5625)"/>
      <use xlink:href="#TimesNewRomanPSMT-5d" transform="translate(321.285538 0.5625)"/>
     </g>
    </g>
   </g>
   <g id="line2d_13">
    <path d="M 48.62 30.908333 
L 146.9 30.908333 
" clip-path="url(#pf8f3cea023)" style="fill: none; stroke-dasharray: 5.55,2.4; stroke-dashoffset: 0; stroke: #000000; stroke-width: 1.5"/>
   </g>
   <g id="line2d_14">
    <path d="M 48.62 103.591667 
L 146.9 103.591667 
" clip-path="url(#pf8f3cea023)" style="fill: none; stroke-dasharray: 5.55,2.4; stroke-dashoffset: 0; stroke: #000000; stroke-width: 1.5"/>
   </g>
   <g id="line2d_15">
    <path d="M 48.62 67.25 
L 56.576 67.25 
L 56.81 61.458965 
L 57.044 52.565976 
L 57.278 38.607126 
L 57.512 33.992368 
L 57.789282 -1 
M 61.502066 -1 
L 62.192 3.820839 
L 63.128 8.626311 
L 64.064 12.044485 
L 64.532 13.376795 
L 64.766 14.814259 
L 65 15.276168 
L 65.234 16.522557 
L 65.702 17.154879 
L 66.17 19.198572 
L 66.404 19.34544 
L 66.638 20.287517 
L 66.872 20.370678 
L 67.34 22.169051 
L 67.574 22.169782 
L 68.276 24.886059 
L 68.51 24.824541 
L 69.446 28.859374 
L 69.68 28.812314 
L 70.616 33.802205 
L 70.85 33.802205 
L 71.786 39.699121 
L 72.02 39.699121 
L 72.722 44.695932 
L 72.956 44.695932 
L 73.658 50.182166 
L 73.892 50.18464 
L 74.36 54.113825 
L 74.594 54.134095 
L 74.828 56.209208 
L 75.062 56.227988 
L 75.53 60.599262 
L 75.764 60.656878 
L 75.998 62.903035 
L 76.232 62.938393 
L 76.7 67.537805 
L 76.934 67.622193 
L 77.168 69.885844 
L 77.402 69.926853 
L 77.87 74.339363 
L 78.104 74.414384 
L 78.338 76.456399 
L 78.572 76.479122 
L 79.04 80.157262 
L 79.274 80.161889 
L 79.742 82.991566 
L 79.976 82.991566 
L 80.444 84.903733 
L 80.678 84.903733 
L 81.146 85.894042 
L 81.38 85.894042 
L 81.614 86.063294 
L 81.848 86.02644 
L 82.082 85.819492 
L 82.316 85.819492 
L 82.784 84.927894 
L 83.018 84.330588 
L 83.252 84.330588 
L 84.422 80.299278 
L 84.656 80.299278 
L 85.592 76.769432 
L 85.826 76.769432 
L 86.762 73.541288 
L 86.996 72.869241 
L 87.23 72.869241 
L 87.932 70.959773 
L 88.166 70.437202 
L 88.4 70.437202 
L 89.102 69.01647 
L 89.57 68.321227 
L 89.804 68.321227 
L 90.506 67.487164 
L 90.974 67.11426 
L 91.208 67.11426 
L 91.91 66.714755 
L 92.144 72.096901 
L 92.378 80.168123 
L 92.612 81.777377 
L 92.846 96.308855 
L 93.08 119.380771 
L 94.25 282.87336 
L 94.718 230.304008 
L 94.952 203.047217 
L 95.186 195.640919 
L 95.42 144.045029 
L 95.654 141.468165 
L 95.888 144.168026 
L 96.356 139.311297 
L 96.59 141.528525 
L 97.292 135.542469 
L 98.228 129.663214 
L 99.164 125.459998 
L 99.398 124.60622 
L 99.632 122.706436 
L 100.1 121.524337 
L 100.334 120.059742 
L 100.568 119.653829 
L 100.802 118.375478 
L 101.036 118.092847 
L 101.27 116.948579 
L 101.504 116.761704 
L 101.738 115.713272 
L 101.972 115.602207 
L 102.44 113.643072 
L 102.674 113.630726 
L 103.142 111.727327 
L 103.376 111.778102 
L 104.312 107.772788 
L 104.546 107.853533 
L 105.482 103.063984 
L 105.716 101.706251 
L 105.95 101.706251 
L 106.886 95.693191 
L 107.12 95.693191 
L 107.822 90.611002 
L 108.056 90.611002 
L 108.524 86.907377 
L 108.758 86.903107 
L 109.46 80.90226 
L 109.694 80.864338 
L 109.928 78.759175 
L 110.162 78.738104 
L 110.63 74.300969 
L 110.864 74.237842 
L 111.098 71.958638 
L 111.332 71.920318 
L 111.8 67.249505 
L 112.034 67.158253 
L 112.268 64.860391 
L 112.502 64.815921 
L 112.97 60.333092 
L 113.204 60.250668 
L 113.438 58.177745 
L 113.672 58.151692 
L 114.14 54.41584 
L 114.374 54.405052 
L 114.842 51.537083 
L 115.076 51.537083 
L 115.544 49.603065 
L 115.778 49.603065 
L 116.246 48.606597 
L 116.48 48.606597 
L 116.714 48.439574 
L 116.948 48.481462 
L 117.182 48.695392 
L 117.416 48.695392 
L 117.884 49.606911 
L 118.352 50.890583 
L 118.586 50.890583 
L 119.522 54.240348 
L 119.756 54.240348 
L 120.926 58.616973 
L 121.16 58.616973 
L 122.096 61.673688 
L 122.33 61.673688 
L 123.032 63.60282 
L 123.5 64.602408 
L 123.734 64.602408 
L 124.436 65.87691 
L 124.904 66.491646 
L 125.138 66.491646 
L 125.84 67.216742 
L 126.308 67.533773 
L 126.542 67.533773 
L 127.01 67.77655 
L 128.648 67.694055 
L 130.52 67.514848 
L 131.924 67.452221 
L 132.158 67.25 
L 132.86 67.25 
L 132.86 67.25 
" clip-path="url(#pf8f3cea023)" style="fill: none; stroke: #0000ff; stroke-width: 1.5; stroke-linecap: square"/>
   </g>
   <g id="line2d_16">
    <path d="M 48.62 67.25 
L 56.576 67.25 
L 61.256 30.908333 
L 69.914 30.908333 
L 70.148 31.185797 
L 70.616 33.802205 
L 70.85 33.802205 
L 71.786 39.699121 
L 72.02 39.699121 
L 72.722 44.695932 
L 72.956 44.695932 
L 73.658 50.142976 
L 73.892 50.18464 
L 74.36 53.818807 
L 74.594 54.134095 
L 74.828 55.951178 
L 75.062 56.227988 
L 75.53 59.862155 
L 75.764 60.656878 
L 75.998 62.473961 
L 76.232 62.938393 
L 77.168 69.439277 
L 77.402 69.926853 
L 77.87 73.56102 
L 78.104 74.414384 
L 78.338 76.231467 
L 78.572 76.479122 
L 79.04 80.113289 
L 79.274 80.161889 
L 79.742 82.991566 
L 79.976 82.991566 
L 80.444 84.903733 
L 80.678 84.903733 
L 81.146 85.894042 
L 81.38 85.894042 
L 81.614 86.063294 
L 81.848 86.02644 
L 82.082 85.819492 
L 82.316 85.819492 
L 82.784 84.927894 
L 83.018 84.330588 
L 83.252 84.330588 
L 84.422 80.299278 
L 84.656 80.299278 
L 85.592 76.769432 
L 85.826 76.769432 
L 86.762 73.541288 
L 86.996 72.869241 
L 87.23 72.869241 
L 87.932 70.959773 
L 88.166 70.437202 
L 88.4 70.437202 
L 89.102 69.01647 
L 89.57 68.321227 
L 89.804 68.321227 
L 90.506 67.487164 
L 90.974 67.11426 
L 91.208 67.11426 
L 91.91 66.714755 
L 96.59 103.056422 
L 96.824 103.591667 
L 105.248 103.591667 
L 105.482 103.063984 
L 105.716 101.706251 
L 105.95 101.706251 
L 106.886 95.693191 
L 107.12 95.693191 
L 107.822 90.611002 
L 108.056 90.611002 
L 108.524 86.976835 
L 108.758 86.903107 
L 109.46 81.451857 
L 109.694 80.864338 
L 109.928 79.047255 
L 110.162 78.738104 
L 110.63 75.103937 
L 110.864 74.237842 
L 111.098 72.420758 
L 111.332 71.920318 
L 112.268 65.34117 
L 112.502 64.815921 
L 112.97 61.181754 
L 113.204 60.250668 
L 113.438 58.433584 
L 113.672 58.151692 
L 114.14 54.517526 
L 114.374 54.405052 
L 114.842 51.537083 
L 115.076 51.537083 
L 115.544 49.603065 
L 115.778 49.603065 
L 116.246 48.606597 
L 116.48 48.606597 
L 116.714 48.439574 
L 116.948 48.481462 
L 117.182 48.695392 
L 117.416 48.695392 
L 117.884 49.606911 
L 118.352 50.890583 
L 118.586 50.890583 
L 119.522 54.240348 
L 119.756 54.240348 
L 120.926 58.616973 
L 121.16 58.616973 
L 122.096 61.673688 
L 122.33 61.673688 
L 123.032 63.60282 
L 123.5 64.602408 
L 123.734 64.602408 
L 124.436 65.87691 
L 124.904 66.491646 
L 125.138 66.491646 
L 125.84 67.216742 
L 126.308 67.533773 
L 126.542 67.533773 
L 127.01 67.77655 
L 128.648 67.694055 
L 130.52 67.514848 
L 131.924 67.452221 
L 132.158 67.25 
L 132.86 67.25 
L 132.86 67.25 
" clip-path="url(#pf8f3cea023)" style="fill: none; stroke: #ff0000; stroke-width: 1.5; stroke-linecap: square"/>
   </g>
   <g id="patch_3">
    <path d="M 48.62 110.86 
L 48.62 23.64 
" style="fill: none; stroke: #000000; stroke-linejoin: miter; stroke-linecap: square"/>
   </g>
   <g id="patch_4">
    <path d="M 146.9 110.86 
L 146.9 23.64 
" style="fill: none; stroke: #000000; stroke-linejoin: miter; stroke-linecap: square"/>
   </g>
   <g id="patch_5">
    <path d="M 48.62 110.86 
L 146.9 110.86 
" style="fill: none; stroke: #000000; stroke-linejoin: miter; stroke-linecap: square"/>
   </g>
   <g id="patch_6">
    <path d="M 48.62 23.64 
L 146.9 23.64 
" style="fill: none; stroke: #000000; stroke-linejoin: miter; stroke-linecap: square"/>
   </g>
   <g id="text_9">
    <!-- PP -->
    <g transform="translate(91.754187 17.64) scale(0.108 -0.108)">
     <defs>
      <path id="TimesNewRomanPSMT-50" d="M 1313 1984 
L 1313 750 
Q 1313 350 1400 253 
Q 1519 116 1759 116 
L 1922 116 
L 1922 0 
L 106 0 
L 106 116 
L 266 116 
Q 534 116 650 291 
Q 713 388 713 750 
L 713 3488 
Q 713 3888 628 3984 
Q 506 4122 266 4122 
L 106 4122 
L 106 4238 
L 1659 4238 
Q 2228 4238 2556 4120 
Q 2884 4003 3109 3725 
Q 3334 3447 3334 3066 
Q 3334 2547 2992 2222 
Q 2650 1897 2025 1897 
Q 1872 1897 1694 1919 
Q 1516 1941 1313 1984 
z
M 1313 2163 
Q 1478 2131 1606 2115 
Q 1734 2100 1825 2100 
Q 2150 2100 2386 2351 
Q 2622 2603 2622 3003 
Q 2622 3278 2509 3514 
Q 2397 3750 2190 3867 
Q 1984 3984 1722 3984 
Q 1563 3984 1313 3925 
L 1313 2163 
z
" transform="scale(0.015625)"/>
     </defs>
     <use xlink:href="#TimesNewRomanPSMT-50"/>
     <use xlink:href="#TimesNewRomanPSMT-50" x="55.615234"/>
    </g>
   </g>
  </g>
  <g id="axes_2">
   <g id="patch_7">
    <path d="M 180 110.86 
L 278.28 110.86 
L 278.28 23.64 
L 180 23.64 
z
" style="fill: #ffffff"/>
   </g>
   <g id="matplotlib.axis_3">
    <g id="xtick_4">
     <g id="line2d_17">
      <path d="M 180 110.86 
L 180 23.64 
" clip-path="url(#p7146756a97)" style="fill: none; stroke: #b0b0b0; stroke-width: 0.8; stroke-linecap: square"/>
     </g>
     <g id="line2d_18">
      <g>
       <use xlink:href="#m99c1632adb" x="180" y="110.86" style="stroke: #000000; stroke-width: 0.8"/>
      </g>
     </g>
     <g id="text_10">
      <!-- 0 -->
      <g transform="translate(177.75 124.109375) scale(0.09 -0.09)">
       <use xlink:href="#TimesNewRomanPSMT-30"/>
      </g>
     </g>
    </g>
    <g id="xtick_5">
     <g id="line2d_19">
      <path d="M 226.8 110.86 
L 226.8 23.64 
" clip-path="url(#p7146756a97)" style="fill: none; stroke: #b0b0b0; stroke-width: 0.8; stroke-linecap: square"/>
     </g>
     <g id="line2d_20">
      <g>
       <use xlink:href="#m99c1632adb" x="226.8" y="110.86" style="stroke: #000000; stroke-width: 0.8"/>
      </g>
     </g>
     <g id="text_11">
      <!-- 10 -->
      <g transform="translate(222.3 124.109375) scale(0.09 -0.09)">
       <use xlink:href="#TimesNewRomanPSMT-31"/>
       <use xlink:href="#TimesNewRomanPSMT-30" x="50"/>
      </g>
     </g>
    </g>
    <g id="xtick_6">
     <g id="line2d_21">
      <path d="M 273.6 110.86 
L 273.6 23.64 
" clip-path="url(#p7146756a97)" style="fill: none; stroke: #b0b0b0; stroke-width: 0.8; stroke-linecap: square"/>
     </g>
     <g id="line2d_22">
      <g>
       <use xlink:href="#m99c1632adb" x="273.6" y="110.86" style="stroke: #000000; stroke-width: 0.8"/>
      </g>
     </g>
     <g id="text_12">
      <!-- 20 -->
      <g transform="translate(269.1 124.109375) scale(0.09 -0.09)">
       <use xlink:href="#TimesNewRomanPSMT-32"/>
       <use xlink:href="#TimesNewRomanPSMT-30" x="50"/>
      </g>
     </g>
    </g>
    <g id="text_13">
     <!-- time [s] -->
     <g transform="translate(215.26875 136.283906) scale(0.09 -0.09)">
      <use xlink:href="#TimesNewRomanPSMT-74"/>
      <use xlink:href="#TimesNewRomanPSMT-69" x="27.783203"/>
      <use xlink:href="#TimesNewRomanPSMT-6d" x="55.566406"/>
      <use xlink:href="#TimesNewRomanPSMT-65" x="133.349609"/>
      <use xlink:href="#TimesNewRomanPSMT-20" x="177.734375"/>
      <use xlink:href="#TimesNewRomanPSMT-5b" x="202.734375"/>
      <use xlink:href="#TimesNewRomanPSMT-73" x="236.035156"/>
      <use xlink:href="#TimesNewRomanPSMT-5d" x="274.951172"/>
     </g>
    </g>
   </g>
   <g id="matplotlib.axis_4">
    <g id="ytick_4">
     <g id="line2d_23">
      <path d="M 180 103.591667 
L 278.28 103.591667 
" clip-path="url(#p7146756a97)" style="fill: none; stroke: #b0b0b0; stroke-width: 0.8; stroke-linecap: square"/>
     </g>
     <g id="line2d_24">
      <g>
       <use xlink:href="#m2248b24d75" x="180" y="103.591667" style="stroke: #000000; stroke-width: 0.8"/>
      </g>
     </g>
     <g id="text_14">
      <!-- −1 -->
      <g transform="translate(163.424844 106.716354) scale(0.09 -0.09)">
       <use xlink:href="#TimesNewRomanPSMT-2212"/>
       <use xlink:href="#TimesNewRomanPSMT-31" x="56.396484"/>
      </g>
     </g>
    </g>
    <g id="ytick_5">
     <g id="line2d_25">
      <path d="M 180 67.25 
L 278.28 67.25 
" clip-path="url(#p7146756a97)" style="fill: none; stroke: #b0b0b0; stroke-width: 0.8; stroke-linecap: square"/>
     </g>
     <g id="line2d_26">
      <g>
       <use xlink:href="#m2248b24d75" x="180" y="67.25" style="stroke: #000000; stroke-width: 0.8"/>
      </g>
     </g>
     <g id="text_15">
      <!-- 0 -->
      <g transform="translate(168.5 70.374688) scale(0.09 -0.09)">
       <use xlink:href="#TimesNewRomanPSMT-30"/>
      </g>
     </g>
    </g>
    <g id="ytick_6">
     <g id="line2d_27">
      <path d="M 180 30.908333 
L 278.28 30.908333 
" clip-path="url(#p7146756a97)" style="fill: none; stroke: #b0b0b0; stroke-width: 0.8; stroke-linecap: square"/>
     </g>
     <g id="line2d_28">
      <g>
       <use xlink:href="#m2248b24d75" x="180" y="30.908333" style="stroke: #000000; stroke-width: 0.8"/>
      </g>
     </g>
     <g id="text_16">
      <!-- 1 -->
      <g transform="translate(168.5 34.033021) scale(0.09 -0.09)">
       <use xlink:href="#TimesNewRomanPSMT-31"/>
      </g>
     </g>
    </g>
   </g>
   <g id="line2d_29">
    <path d="M 180 30.908333 
L 278.28 30.908333 
" clip-path="url(#p7146756a97)" style="fill: none; stroke-dasharray: 5.55,2.4; stroke-dashoffset: 0; stroke: #000000; stroke-width: 1.5"/>
   </g>
   <g id="line2d_30">
    <path d="M 180 103.591667 
L 278.28 103.591667 
" clip-path="url(#p7146756a97)" style="fill: none; stroke-dasharray: 5.55,2.4; stroke-dashoffset: 0; stroke: #000000; stroke-width: 1.5"/>
   </g>
   <g id="line2d_31">
    <path d="M 180 67.25 
L 187.02 67.25 
L 187.488 58.717973 
L 187.722 51.70883 
L 187.956 50.254047 
L 188.19 38.699045 
L 188.641131 -1 
M 190.989285 -1 
L 190.998 0.99888 
L 191.466 3.397376 
L 191.7 0.768426 
L 192.636 4.678877 
L 193.572 7.668076 
L 194.508 9.941438 
L 194.742 10.417056 
L 194.976 12.572779 
L 195.444 13.194531 
L 195.678 14.956194 
L 195.912 15.144841 
L 196.146 16.705789 
L 196.38 16.80973 
L 196.614 18.224453 
L 196.848 18.262257 
L 197.316 20.839992 
L 197.55 20.797392 
L 198.018 23.212543 
L 198.252 23.126852 
L 198.954 26.72287 
L 199.188 26.636679 
L 200.358 33.302736 
L 200.592 33.302736 
L 201.528 39.29306 
L 201.762 39.29306 
L 202.698 45.704222 
L 202.932 45.704222 
L 203.634 50.746303 
L 203.868 50.746303 
L 204.336 54.220533 
L 204.57 54.220533 
L 205.038 57.778531 
L 205.272 57.778531 
L 205.74 61.361564 
L 205.974 61.361564 
L 206.442 64.890189 
L 206.676 64.890189 
L 207.144 68.271633 
L 207.378 68.271633 
L 207.846 71.405628 
L 208.08 71.405628 
L 208.548 74.19572 
L 208.782 74.19572 
L 209.25 76.560533 
L 209.484 76.560533 
L 209.952 78.442786 
L 210.186 78.442786 
L 210.654 79.813991 
L 210.888 80.273504 
L 211.122 80.273504 
L 211.59 80.863665 
L 212.058 80.980617 
L 212.526 80.927527 
L 212.76 80.775363 
L 212.994 80.775363 
L 213.462 80.237198 
L 213.93 79.508403 
L 214.164 79.508403 
L 215.1 77.602504 
L 215.334 77.602504 
L 216.27 75.464815 
L 216.504 75.464815 
L 217.674 72.90581 
L 217.908 72.90581 
L 218.844 71.131967 
L 219.078 70.757497 
L 219.312 70.757497 
L 220.248 69.393428 
L 220.482 69.393428 
L 220.95 78.877157 
L 221.418 97.588211 
L 221.652 113.054578 
L 221.886 119.164128 
L 222.822 226.818914 
L 223.29 238.016989 
L 224.226 184.210065 
L 224.46 133.518993 
L 224.694 132.509844 
L 224.928 135.420227 
L 225.864 131.806878 
L 226.8 128.964354 
L 227.736 126.754947 
L 227.97 124.251705 
L 228.438 123.602387 
L 228.672 121.568002 
L 228.906 121.374418 
L 229.14 119.588849 
L 229.374 119.486942 
L 229.608 117.884278 
L 229.842 117.854121 
L 230.076 116.384348 
L 230.31 116.410681 
L 230.778 113.697764 
L 231.012 113.789556 
L 231.714 109.928421 
L 231.948 110.046616 
L 232.65 106.075024 
L 232.884 106.144817 
L 234.054 98.607849 
L 234.288 98.607849 
L 235.224 92.043067 
L 235.458 92.043067 
L 236.16 86.858226 
L 236.394 86.858226 
L 237.096 81.50129 
L 237.33 81.50129 
L 237.798 77.863813 
L 238.032 77.863582 
L 238.734 72.463755 
L 238.968 72.463755 
L 239.436 69.021305 
L 239.67 69.021305 
L 240.138 65.754131 
L 240.372 65.754131 
L 240.84 62.756533 
L 241.074 62.756533 
L 241.542 60.11615 
L 241.776 60.11615 
L 242.244 57.904008 
L 242.478 57.904008 
L 242.946 56.167199 
L 243.18 56.167199 
L 243.648 54.925717 
L 243.882 54.519496 
L 244.116 54.519496 
L 244.584 54.021625 
L 245.052 53.939429 
L 245.52 54.047023 
L 245.754 54.216904 
L 245.988 54.216904 
L 246.69 55.126575 
L 246.924 55.509672 
L 247.158 55.509672 
L 248.094 57.385501 
L 248.328 57.385501 
L 249.264 59.460977 
L 249.498 59.460977 
L 250.668 61.923867 
L 250.902 61.923867 
L 251.838 63.619742 
L 252.072 63.976503 
L 252.306 63.976503 
L 253.242 65.27207 
L 255.348 65.27207 
L 256.284 65.819287 
L 257.454 66.205998 
L 259.092 66.498011 
L 259.326 67.25 
L 260.028 67.25 
L 260.028 67.25 
" clip-path="url(#p7146756a97)" style="fill: none; stroke: #0000ff; stroke-width: 1.5; stroke-linecap: square"/>
   </g>
   <g id="line2d_32">
    <path d="M 180 67.25 
L 187.02 67.25 
L 191.7 30.908333 
L 199.89 30.908333 
L 200.358 33.302736 
L 200.592 33.302736 
L 201.528 39.29306 
L 201.762 39.29306 
L 202.698 45.704222 
L 202.932 45.704222 
L 203.634 50.746303 
L 203.868 50.746303 
L 204.336 54.220533 
L 204.57 54.220533 
L 205.038 57.778531 
L 205.272 57.778531 
L 205.74 61.361564 
L 205.974 61.361564 
L 206.442 64.890189 
L 206.676 64.890189 
L 207.144 68.271633 
L 207.378 68.271633 
L 207.846 71.405628 
L 208.08 71.405628 
L 208.548 74.19572 
L 208.782 74.19572 
L 209.25 76.560533 
L 209.484 76.560533 
L 209.952 78.442786 
L 210.186 78.442786 
L 210.654 79.813991 
L 210.888 80.273504 
L 211.122 80.273504 
L 211.59 80.863665 
L 212.058 80.980617 
L 212.526 80.927527 
L 212.76 80.775363 
L 212.994 80.775363 
L 213.462 80.237198 
L 213.93 79.508403 
L 214.164 79.508403 
L 215.1 77.602504 
L 215.334 77.602504 
L 216.27 75.464815 
L 216.504 75.464815 
L 217.674 72.90581 
L 217.908 72.90581 
L 218.844 71.131967 
L 219.078 70.757497 
L 219.312 70.757497 
L 220.248 69.393428 
L 220.482 69.393428 
L 224.928 103.591667 
L 233.118 103.591667 
L 233.352 103.238235 
L 234.054 98.607849 
L 234.288 98.607849 
L 235.224 92.043067 
L 235.458 92.043067 
L 236.16 86.858226 
L 236.394 86.858226 
L 237.096 81.50129 
L 237.33 81.50129 
L 237.798 77.867123 
L 238.032 77.863582 
L 238.734 72.463755 
L 238.968 72.463755 
L 239.436 69.021305 
L 239.67 69.021305 
L 240.138 65.754131 
L 240.372 65.754131 
L 240.84 62.756533 
L 241.074 62.756533 
L 241.542 60.11615 
L 241.776 60.11615 
L 242.244 57.904008 
L 242.478 57.904008 
L 242.946 56.167199 
L 243.18 56.167199 
L 243.648 54.925717 
L 243.882 54.519496 
L 244.116 54.519496 
L 244.584 54.021625 
L 245.052 53.939429 
L 245.52 54.047023 
L 245.754 54.216904 
L 245.988 54.216904 
L 246.69 55.126575 
L 246.924 55.509672 
L 247.158 55.509672 
L 248.094 57.385501 
L 248.328 57.385501 
L 249.264 59.460977 
L 249.498 59.460977 
L 250.668 61.923867 
L 250.902 61.923867 
L 251.838 63.619742 
L 252.072 63.976503 
L 252.306 63.976503 
L 253.242 65.27207 
L 255.348 65.27207 
L 256.284 65.819287 
L 257.454 66.205998 
L 259.092 66.498011 
L 259.326 67.25 
L 260.028 67.25 
L 260.028 67.25 
" clip-path="url(#p7146756a97)" style="fill: none; stroke: #ff0000; stroke-width: 1.5; stroke-linecap: square"/>
   </g>
   <g id="patch_8">
    <path d="M 180 110.86 
L 180 23.64 
" style="fill: none; stroke: #000000; stroke-linejoin: miter; stroke-linecap: square"/>
   </g>
   <g id="patch_9">
    <path d="M 278.28 110.86 
L 278.28 23.64 
" style="fill: none; stroke: #000000; stroke-linejoin: miter; stroke-linecap: square"/>
   </g>
   <g id="patch_10">
    <path d="M 180 110.86 
L 278.28 110.86 
" style="fill: none; stroke: #000000; stroke-linejoin: miter; stroke-linecap: square"/>
   </g>
   <g id="patch_11">
    <path d="M 180 23.64 
L 278.28 23.64 
" style="fill: none; stroke: #000000; stroke-linejoin: miter; stroke-linecap: square"/>
   </g>
   <g id="text_17">
    <!-- APP -->
    <g transform="translate(219.234375 17.64) scale(0.108 -0.108)">
     <defs>
      <path id="TimesNewRomanPSMT-41" d="M 2928 1419 
L 1288 1419 
L 1000 750 
Q 894 503 894 381 
Q 894 284 986 211 
Q 1078 138 1384 116 
L 1384 0 
L 50 0 
L 50 116 
Q 316 163 394 238 
Q 553 388 747 847 
L 2238 4334 
L 2347 4334 
L 3822 809 
Q 4000 384 4145 257 
Q 4291 131 4550 116 
L 4550 0 
L 2878 0 
L 2878 116 
Q 3131 128 3220 200 
Q 3309 272 3309 375 
Q 3309 513 3184 809 
L 2928 1419 
z
M 2841 1650 
L 2122 3363 
L 1384 1650 
L 2841 1650 
z
" transform="scale(0.015625)"/>
     </defs>
     <use xlink:href="#TimesNewRomanPSMT-41"/>
     <use xlink:href="#TimesNewRomanPSMT-50" x="72.216797"/>
     <use xlink:href="#TimesNewRomanPSMT-50" x="127.832031"/>
    </g>
   </g>
  </g>
  <g id="axes_3">
   <g id="patch_12">
    <path d="M 48.62 250 
L 146.9 250 
L 146.9 162.78 
L 48.62 162.78 
z
" style="fill: #ffffff"/>
   </g>
   <g id="matplotlib.axis_5">
    <g id="xtick_7">
     <g id="line2d_33">
      <path d="M 48.62 250 
L 48.62 162.78 
" clip-path="url(#pb9fb6599d4)" style="fill: none; stroke: #b0b0b0; stroke-width: 0.8; stroke-linecap: square"/>
     </g>
     <g id="line2d_34">
      <g>
       <use xlink:href="#m99c1632adb" x="48.62" y="250" style="stroke: #000000; stroke-width: 0.8"/>
      </g>
     </g>
     <g id="text_18">
      <!-- 0 -->
      <g transform="translate(46.37 263.249375) scale(0.09 -0.09)">
       <use xlink:href="#TimesNewRomanPSMT-30"/>
      </g>
     </g>
    </g>
    <g id="xtick_8">
     <g id="line2d_35">
      <path d="M 95.42 250 
L 95.42 162.78 
" clip-path="url(#pb9fb6599d4)" style="fill: none; stroke: #b0b0b0; stroke-width: 0.8; stroke-linecap: square"/>
     </g>
     <g id="line2d_36">
      <g>
       <use xlink:href="#m99c1632adb" x="95.42" y="250" style="stroke: #000000; stroke-width: 0.8"/>
      </g>
     </g>
     <g id="text_19">
      <!-- 10 -->
      <g transform="translate(90.92 263.249375) scale(0.09 -0.09)">
       <use xlink:href="#TimesNewRomanPSMT-31"/>
       <use xlink:href="#TimesNewRomanPSMT-30" x="50"/>
      </g>
     </g>
    </g>
    <g id="xtick_9">
     <g id="line2d_37">
      <path d="M 142.22 250 
L 142.22 162.78 
" clip-path="url(#pb9fb6599d4)" style="fill: none; stroke: #b0b0b0; stroke-width: 0.8; stroke-linecap: square"/>
     </g>
     <g id="line2d_38">
      <g>
       <use xlink:href="#m99c1632adb" x="142.22" y="250" style="stroke: #000000; stroke-width: 0.8"/>
      </g>
     </g>
     <g id="text_20">
      <!-- 20 -->
      <g transform="translate(137.72 263.249375) scale(0.09 -0.09)">
       <use xlink:href="#TimesNewRomanPSMT-32"/>
       <use xlink:href="#TimesNewRomanPSMT-30" x="50"/>
      </g>
     </g>
    </g>
    <g id="text_21">
     <!-- time [s] -->
     <g transform="translate(83.88875 275.423906) scale(0.09 -0.09)">
      <use xlink:href="#TimesNewRomanPSMT-74"/>
      <use xlink:href="#TimesNewRomanPSMT-69" x="27.783203"/>
      <use xlink:href="#TimesNewRomanPSMT-6d" x="55.566406"/>
      <use xlink:href="#TimesNewRomanPSMT-65" x="133.349609"/>
      <use xlink:href="#TimesNewRomanPSMT-20" x="177.734375"/>
      <use xlink:href="#TimesNewRomanPSMT-5b" x="202.734375"/>
      <use xlink:href="#TimesNewRomanPSMT-73" x="236.035156"/>
      <use xlink:href="#TimesNewRomanPSMT-5d" x="274.951172"/>
     </g>
    </g>
   </g>
   <g id="matplotlib.axis_6">
    <g id="ytick_7">
     <g id="line2d_39">
      <path d="M 48.62 242.731667 
L 146.9 242.731667 
" clip-path="url(#pb9fb6599d4)" style="fill: none; stroke: #b0b0b0; stroke-width: 0.8; stroke-linecap: square"/>
     </g>
     <g id="line2d_40">
      <g>
       <use xlink:href="#m2248b24d75" x="48.62" y="242.731667" style="stroke: #000000; stroke-width: 0.8"/>
      </g>
     </g>
     <g id="text_22">
      <!-- −1 -->
      <g transform="translate(32.044844 245.856354) scale(0.09 -0.09)">
       <use xlink:href="#TimesNewRomanPSMT-2212"/>
       <use xlink:href="#TimesNewRomanPSMT-31" x="56.396484"/>
      </g>
     </g>
    </g>
    <g id="ytick_8">
     <g id="line2d_41">
      <path d="M 48.62 206.39 
L 146.9 206.39 
" clip-path="url(#pb9fb6599d4)" style="fill: none; stroke: #b0b0b0; stroke-width: 0.8; stroke-linecap: square"/>
     </g>
     <g id="line2d_42">
      <g>
       <use xlink:href="#m2248b24d75" x="48.62" y="206.39" style="stroke: #000000; stroke-width: 0.8"/>
      </g>
     </g>
     <g id="text_23">
      <!-- 0 -->
      <g transform="translate(37.12 209.514688) scale(0.09 -0.09)">
       <use xlink:href="#TimesNewRomanPSMT-30"/>
      </g>
     </g>
    </g>
    <g id="ytick_9">
     <g id="line2d_43">
      <path d="M 48.62 170.048333 
L 146.9 170.048333 
" clip-path="url(#pb9fb6599d4)" style="fill: none; stroke: #b0b0b0; stroke-width: 0.8; stroke-linecap: square"/>
     </g>
     <g id="line2d_44">
      <g>
       <use xlink:href="#m2248b24d75" x="48.62" y="170.048333" style="stroke: #000000; stroke-width: 0.8"/>
      </g>
     </g>
     <g id="text_24">
      <!-- 1 -->
      <g transform="translate(37.12 173.173021) scale(0.09 -0.09)">
       <use xlink:href="#TimesNewRomanPSMT-31"/>
      </g>
     </g>
    </g>
    <g id="text_25">
     <!-- $\omega$ [rad/s] -->
     <g transform="translate(26.119687 222.365) rotate(-90) scale(0.09 -0.09)">
      <use xlink:href="#STIXGeneral-Italic-3c9" transform="translate(0 0.5625)"/>
      <use xlink:href="#TimesNewRomanPSMT-20" transform="translate(68.599991 0.5625)"/>
      <use xlink:href="#TimesNewRomanPSMT-5b" transform="translate(93.599991 0.5625)"/>
      <use xlink:href="#TimesNewRomanPSMT-72" transform="translate(126.900772 0.5625)"/>
      <use xlink:href="#TimesNewRomanPSMT-61" transform="translate(160.201553 0.5625)"/>
      <use xlink:href="#TimesNewRomanPSMT-64" transform="translate(204.586319 0.5625)"/>
      <use xlink:href="#TimesNewRomanPSMT-2f" transform="translate(254.586319 0.5625)"/>
      <use xlink:href="#TimesNewRomanPSMT-73" transform="translate(282.369522 0.5625)"/>
      <use xlink:href="#TimesNewRomanPSMT-5d" transform="translate(321.285538 0.5625)"/>
     </g>
    </g>
   </g>
   <g id="line2d_45">
    <path d="M 48.62 170.048333 
L 146.9 170.048333 
" clip-path="url(#pb9fb6599d4)" style="fill: none; stroke-dasharray: 5.55,2.4; stroke-dashoffset: 0; stroke: #000000; stroke-width: 1.5"/>
   </g>
   <g id="line2d_46">
    <path d="M 48.62 242.731667 
L 146.9 242.731667 
" clip-path="url(#pb9fb6599d4)" style="fill: none; stroke-dasharray: 5.55,2.4; stroke-dashoffset: 0; stroke: #000000; stroke-width: 1.5"/>
   </g>
   <g id="line2d_47">
    <path d="M 48.62 206.39 
L 55.64 206.39 
L 56.108 197.857973 
L 56.342 190.84883 
L 56.576 189.394047 
L 56.81 186.200185 
L 78.104 186.200185 
L 78.572 197.155097 
L 79.508 206.230312 
L 79.742 208.09305 
L 79.976 208.994211 
L 80.678 213.379638 
L 81.146 215.062854 
L 81.614 216.302126 
L 82.082 216.707372 
L 82.55 216.462065 
L 83.018 216.023376 
L 83.252 216.023376 
L 84.188 214.707674 
L 84.422 214.345097 
L 84.656 214.345097 
L 85.592 212.753748 
L 85.826 212.753748 
L 86.996 210.816786 
L 87.23 210.816786 
L 88.166 209.458848 
L 88.4 209.170667 
L 88.634 209.170667 
L 89.57 208.116125 
L 89.804 208.116125 
L 90.74 207.296278 
L 90.974 207.137138 
L 91.208 207.137138 
L 92.144 206.602145 
L 93.08 206.327272 
L 94.016 206.138789 
L 95.186 205.995663 
L 96.59 205.940107 
L 97.058 214.854714 
L 97.526 226.579815 
L 97.76 225.413235 
L 97.994 226.579815 
L 119.288 226.579815 
L 119.756 226.010441 
L 120.224 214.325857 
L 120.458 210.082249 
L 120.692 209.087975 
L 121.394 202.417516 
L 121.628 201.358376 
L 122.33 196.413126 
L 122.798 194.322005 
L 123.266 192.763204 
L 123.734 191.892385 
L 123.968 191.876299 
L 124.202 192.113956 
L 124.67 193.004717 
L 124.904 193.004717 
L 125.84 195.218523 
L 126.074 195.218523 
L 127.01 197.619644 
L 127.244 197.619644 
L 128.414 200.435023 
L 128.648 200.435023 
L 129.584 202.358533 
L 129.818 202.358533 
L 130.754 203.935626 
L 130.988 204.253002 
L 131.222 204.253002 
L 132.158 205.359205 
L 132.392 205.57103 
L 132.626 205.57103 
L 133.562 206.272833 
L 134.03 206.398887 
L 134.966 206.786921 
L 135.434 206.855827 
L 136.37 207.019984 
L 140.816 206.922045 
L 142.688 206.69873 
L 144.326 206.580456 
L 144.56 206.39 
L 145.262 206.39 
L 145.262 206.39 
" clip-path="url(#pb9fb6599d4)" style="fill: none; stroke: #0000ff; stroke-width: 1.5; stroke-linecap: square"/>
   </g>
   <g id="line2d_48">
    <path d="M 48.62 206.39 
L 55.64 206.39 
L 58.214 186.402083 
L 58.448 186.200185 
L 78.104 186.200185 
L 82.082 216.707372 
L 82.55 216.462065 
L 83.018 216.023376 
L 83.252 216.023376 
L 84.188 214.707674 
L 84.422 214.345097 
L 84.656 214.345097 
L 85.592 212.753748 
L 85.826 212.753748 
L 86.996 210.816786 
L 87.23 210.816786 
L 88.166 209.458848 
L 88.4 209.170667 
L 88.634 209.170667 
L 89.57 208.116125 
L 89.804 208.116125 
L 90.74 207.296278 
L 90.974 207.137138 
L 91.208 207.137138 
L 92.144 206.602145 
L 93.08 206.327272 
L 94.016 206.138789 
L 95.186 205.995663 
L 96.59 205.940107 
L 99.164 225.928023 
L 99.398 226.579815 
L 119.288 226.579815 
L 119.756 226.010441 
L 124.202 192.113956 
L 124.67 193.004717 
L 124.904 193.004717 
L 125.84 195.218523 
L 126.074 195.218523 
L 127.01 197.619644 
L 127.244 197.619644 
L 128.414 200.435023 
L 128.648 200.435023 
L 129.584 202.358533 
L 129.818 202.358533 
L 130.754 203.935626 
L 130.988 204.253002 
L 131.222 204.253002 
L 132.158 205.359205 
L 132.392 205.57103 
L 132.626 205.57103 
L 133.562 206.272833 
L 134.03 206.398887 
L 134.966 206.786921 
L 135.434 206.855827 
L 136.37 207.019984 
L 140.816 206.922045 
L 142.688 206.69873 
L 144.326 206.580456 
L 144.56 206.39 
L 145.262 206.39 
L 145.262 206.39 
" clip-path="url(#pb9fb6599d4)" style="fill: none; stroke: #ff0000; stroke-width: 1.5; stroke-linecap: square"/>
   </g>
   <g id="patch_13">
    <path d="M 48.62 250 
L 48.62 162.78 
" style="fill: none; stroke: #000000; stroke-linejoin: miter; stroke-linecap: square"/>
   </g>
   <g id="patch_14">
    <path d="M 146.9 250 
L 146.9 162.78 
" style="fill: none; stroke: #000000; stroke-linejoin: miter; stroke-linecap: square"/>
   </g>
   <g id="patch_15">
    <path d="M 48.62 250 
L 146.9 250 
" style="fill: none; stroke: #000000; stroke-linejoin: miter; stroke-linecap: square"/>
   </g>
   <g id="patch_16">
    <path d="M 48.62 162.78 
L 146.9 162.78 
" style="fill: none; stroke: #000000; stroke-linejoin: miter; stroke-linecap: square"/>
   </g>
   <g id="text_26">
    <!-- RPP -->
    <g transform="translate(88.152219 156.78) scale(0.108 -0.108)">
     <defs>
      <path id="TimesNewRomanPSMT-52" d="M 4325 0 
L 3194 0 
L 1759 1981 
Q 1600 1975 1500 1975 
Q 1459 1975 1412 1976 
Q 1366 1978 1316 1981 
L 1316 750 
Q 1316 350 1403 253 
Q 1522 116 1759 116 
L 1925 116 
L 1925 0 
L 109 0 
L 109 116 
L 269 116 
Q 538 116 653 291 
Q 719 388 719 750 
L 719 3488 
Q 719 3888 631 3984 
Q 509 4122 269 4122 
L 109 4122 
L 109 4238 
L 1653 4238 
Q 2328 4238 2648 4139 
Q 2969 4041 3192 3777 
Q 3416 3513 3416 3147 
Q 3416 2756 3161 2468 
Q 2906 2181 2372 2063 
L 3247 847 
Q 3547 428 3762 290 
Q 3978 153 4325 116 
L 4325 0 
z
M 1316 2178 
Q 1375 2178 1419 2176 
Q 1463 2175 1491 2175 
Q 2097 2175 2405 2437 
Q 2713 2700 2713 3106 
Q 2713 3503 2464 3751 
Q 2216 4000 1806 4000 
Q 1625 4000 1316 3941 
L 1316 2178 
z
" transform="scale(0.015625)"/>
     </defs>
     <use xlink:href="#TimesNewRomanPSMT-52"/>
     <use xlink:href="#TimesNewRomanPSMT-50" x="66.699219"/>
     <use xlink:href="#TimesNewRomanPSMT-50" x="122.314453"/>
    </g>
   </g>
  </g>
  <g id="axes_4">
   <g id="patch_17">
    <path d="M 180 250 
L 278.28 250 
L 278.28 162.78 
L 180 162.78 
z
" style="fill: #ffffff"/>
   </g>
   <g id="matplotlib.axis_7">
    <g id="xtick_10">
     <g id="line2d_49">
      <path d="M 180 250 
L 180 162.78 
" clip-path="url(#p1c143865f3)" style="fill: none; stroke: #b0b0b0; stroke-width: 0.8; stroke-linecap: square"/>
     </g>
     <g id="line2d_50">
      <g>
       <use xlink:href="#m99c1632adb" x="180" y="250" style="stroke: #000000; stroke-width: 0.8"/>
      </g>
     </g>
     <g id="text_27">
      <!-- 0 -->
      <g transform="translate(177.75 263.249375) scale(0.09 -0.09)">
       <use xlink:href="#TimesNewRomanPSMT-30"/>
      </g>
     </g>
    </g>
    <g id="xtick_11">
     <g id="line2d_51">
      <path d="M 226.8 250 
L 226.8 162.78 
" clip-path="url(#p1c143865f3)" style="fill: none; stroke: #b0b0b0; stroke-width: 0.8; stroke-linecap: square"/>
     </g>
     <g id="line2d_52">
      <g>
       <use xlink:href="#m99c1632adb" x="226.8" y="250" style="stroke: #000000; stroke-width: 0.8"/>
      </g>
     </g>
     <g id="text_28">
      <!-- 10 -->
      <g transform="translate(222.3 263.249375) scale(0.09 -0.09)">
       <use xlink:href="#TimesNewRomanPSMT-31"/>
       <use xlink:href="#TimesNewRomanPSMT-30" x="50"/>
      </g>
     </g>
    </g>
    <g id="xtick_12">
     <g id="line2d_53">
      <path d="M 273.6 250 
L 273.6 162.78 
" clip-path="url(#p1c143865f3)" style="fill: none; stroke: #b0b0b0; stroke-width: 0.8; stroke-linecap: square"/>
     </g>
     <g id="line2d_54">
      <g>
       <use xlink:href="#m99c1632adb" x="273.6" y="250" style="stroke: #000000; stroke-width: 0.8"/>
      </g>
     </g>
     <g id="text_29">
      <!-- 20 -->
      <g transform="translate(269.1 263.249375) scale(0.09 -0.09)">
       <use xlink:href="#TimesNewRomanPSMT-32"/>
       <use xlink:href="#TimesNewRomanPSMT-30" x="50"/>
      </g>
     </g>
    </g>
    <g id="text_30">
     <!-- time [s] -->
     <g transform="translate(215.26875 275.423906) scale(0.09 -0.09)">
      <use xlink:href="#TimesNewRomanPSMT-74"/>
      <use xlink:href="#TimesNewRomanPSMT-69" x="27.783203"/>
      <use xlink:href="#TimesNewRomanPSMT-6d" x="55.566406"/>
      <use xlink:href="#TimesNewRomanPSMT-65" x="133.349609"/>
      <use xlink:href="#TimesNewRomanPSMT-20" x="177.734375"/>
      <use xlink:href="#TimesNewRomanPSMT-5b" x="202.734375"/>
      <use xlink:href="#TimesNewRomanPSMT-73" x="236.035156"/>
      <use xlink:href="#TimesNewRomanPSMT-5d" x="274.951172"/>
     </g>
    </g>
   </g>
   <g id="matplotlib.axis_8">
    <g id="ytick_10">
     <g id="line2d_55">
      <path d="M 180 242.731667 
L 278.28 242.731667 
" clip-path="url(#p1c143865f3)" style="fill: none; stroke: #b0b0b0; stroke-width: 0.8; stroke-linecap: square"/>
     </g>
     <g id="line2d_56">
      <g>
       <use xlink:href="#m2248b24d75" x="180" y="242.731667" style="stroke: #000000; stroke-width: 0.8"/>
      </g>
     </g>
     <g id="text_31">
      <!-- −1 -->
      <g transform="translate(163.424844 245.856354) scale(0.09 -0.09)">
       <use xlink:href="#TimesNewRomanPSMT-2212"/>
       <use xlink:href="#TimesNewRomanPSMT-31" x="56.396484"/>
      </g>
     </g>
    </g>
    <g id="ytick_11">
     <g id="line2d_57">
      <path d="M 180 206.39 
L 278.28 206.39 
" clip-path="url(#p1c143865f3)" style="fill: none; stroke: #b0b0b0; stroke-width: 0.8; stroke-linecap: square"/>
     </g>
     <g id="line2d_58">
      <g>
       <use xlink:href="#m2248b24d75" x="180" y="206.39" style="stroke: #000000; stroke-width: 0.8"/>
      </g>
     </g>
     <g id="text_32">
      <!-- 0 -->
      <g transform="translate(168.5 209.514688) scale(0.09 -0.09)">
       <use xlink:href="#TimesNewRomanPSMT-30"/>
      </g>
     </g>
    </g>
    <g id="ytick_12">
     <g id="line2d_59">
      <path d="M 180 170.048333 
L 278.28 170.048333 
" clip-path="url(#p1c143865f3)" style="fill: none; stroke: #b0b0b0; stroke-width: 0.8; stroke-linecap: square"/>
     </g>
     <g id="line2d_60">
      <g>
       <use xlink:href="#m2248b24d75" x="180" y="170.048333" style="stroke: #000000; stroke-width: 0.8"/>
      </g>
     </g>
     <g id="text_33">
      <!-- 1 -->
      <g transform="translate(168.5 173.173021) scale(0.09 -0.09)">
       <use xlink:href="#TimesNewRomanPSMT-31"/>
      </g>
     </g>
    </g>
   </g>
   <g id="line2d_61">
    <path d="M 180 170.048333 
L 278.28 170.048333 
" clip-path="url(#p1c143865f3)" style="fill: none; stroke-dasharray: 5.55,2.4; stroke-dashoffset: 0; stroke: #000000; stroke-width: 1.5"/>
   </g>
   <g id="line2d_62">
    <path d="M 180 242.731667 
L 278.28 242.731667 
" clip-path="url(#p1c143865f3)" style="fill: none; stroke-dasharray: 5.55,2.4; stroke-dashoffset: 0; stroke: #000000; stroke-width: 1.5"/>
   </g>
   <g id="line2d_63">
    <path d="M 180 206.39 
L 187.02 206.39 
L 191.7 170.34425 
L 191.934 170.048333 
L 194.04 186.200185 
L 194.742 186.200185 
L 195.21 189.834352 
L 195.678 186.200185 
L 205.272 186.200185 
L 205.506 186.529175 
L 205.74 186.200185 
L 205.974 186.82975 
L 206.208 186.200185 
L 206.442 187.167912 
L 206.676 186.200185 
L 206.91 187.567177 
L 207.144 186.360266 
L 209.718 206.348183 
L 209.952 207.047846 
L 210.186 208.852837 
L 210.888 210.503876 
L 211.356 211.162679 
L 211.59 211.162679 
L 212.058 211.589969 
L 212.526 211.783495 
L 213.93 211.680263 
L 214.866 211.125193 
L 215.1 210.95251 
L 215.334 210.95251 
L 216.504 209.944525 
L 216.738 209.944525 
L 217.674 209.111044 
L 217.908 209.111044 
L 219.078 208.170218 
L 219.312 208.170218 
L 220.482 207.419509 
L 220.716 207.419509 
L 221.886 206.872968 
L 222.354 206.783483 
L 223.29 206.567391 
L 224.46 206.323514 
L 225.63 206.216042 
L 225.864 208.033125 
L 226.098 206.216042 
L 226.332 206.022545 
L 229.842 232.87228 
L 230.544 227.42103 
L 230.778 226.579815 
L 236.862 226.579815 
L 237.33 222.945648 
L 237.798 226.579815 
L 245.754 226.579815 
L 245.988 226.233877 
L 246.222 226.579815 
L 246.456 225.940433 
L 246.69 226.579815 
L 246.924 225.60929 
L 247.158 226.579815 
L 247.626 223.807152 
L 247.86 224.844851 
L 250.434 204.892807 
L 251.136 203.370202 
L 251.37 203.370202 
L 252.072 202.425686 
L 252.306 202.237243 
L 252.54 202.237243 
L 253.008 201.984834 
L 253.71 201.91855 
L 254.412 202.029222 
L 255.816 202.644697 
L 256.284 202.958199 
L 256.518 202.958199 
L 257.688 203.81882 
L 257.922 203.81882 
L 258.858 204.483666 
L 259.092 204.483666 
L 260.262 205.201726 
L 260.496 205.201726 
L 261.666 205.751825 
L 262.134 205.844922 
L 263.07 206.136733 
L 263.538 206.198016 
L 264.942 206.419718 
L 266.346 206.519275 
L 272.43 206.409391 
L 273.132 206.39 
L 273.132 206.39 
" clip-path="url(#p1c143865f3)" style="fill: none; stroke: #0000ff; stroke-width: 1.5; stroke-linecap: square"/>
   </g>
   <g id="line2d_64">
    <path d="M 180 206.39 
L 187.02 206.39 
L 191.7 170.34425 
L 191.934 170.048333 
L 194.04 186.200185 
L 194.742 186.200185 
L 195.21 189.834352 
L 195.678 186.200185 
L 205.272 186.200185 
L 205.506 186.529175 
L 205.74 186.200185 
L 205.974 186.82975 
L 206.208 186.200185 
L 206.442 187.167912 
L 206.676 186.200185 
L 206.91 187.567177 
L 207.144 186.360266 
L 209.718 206.348183 
L 209.952 207.047846 
L 210.186 208.852837 
L 210.888 210.503876 
L 211.356 211.162679 
L 211.59 211.162679 
L 212.058 211.589969 
L 212.526 211.783495 
L 213.93 211.680263 
L 214.866 211.125193 
L 215.1 210.95251 
L 215.334 210.95251 
L 216.504 209.944525 
L 216.738 209.944525 
L 217.674 209.111044 
L 217.908 209.111044 
L 219.078 208.170218 
L 219.312 208.170218 
L 220.482 207.419509 
L 220.716 207.419509 
L 221.886 206.872968 
L 222.354 206.783483 
L 223.29 206.567391 
L 224.46 206.323514 
L 225.63 206.216042 
L 225.864 208.033125 
L 226.098 206.216042 
L 226.332 206.022545 
L 229.842 232.87228 
L 230.544 227.42103 
L 230.778 226.579815 
L 236.862 226.579815 
L 237.33 222.945648 
L 237.798 226.579815 
L 245.754 226.579815 
L 245.988 226.233877 
L 246.222 226.579815 
L 246.456 225.940433 
L 246.69 226.579815 
L 246.924 225.60929 
L 247.158 226.579815 
L 247.626 223.807152 
L 247.86 224.844851 
L 250.434 204.892807 
L 251.136 203.370202 
L 251.37 203.370202 
L 252.072 202.425686 
L 252.306 202.237243 
L 252.54 202.237243 
L 253.008 201.984834 
L 253.71 201.91855 
L 254.412 202.029222 
L 255.816 202.644697 
L 256.284 202.958199 
L 256.518 202.958199 
L 257.688 203.81882 
L 257.922 203.81882 
L 258.858 204.483666 
L 259.092 204.483666 
L 260.262 205.201726 
L 260.496 205.201726 
L 261.666 205.751825 
L 262.134 205.844922 
L 263.07 206.136733 
L 263.538 206.198016 
L 264.942 206.419718 
L 266.346 206.519275 
L 272.43 206.409391 
L 273.132 206.39 
L 273.132 206.39 
" clip-path="url(#p1c143865f3)" style="fill: none; stroke: #ff0000; stroke-width: 1.5; stroke-linecap: square"/>
   </g>
   <g id="patch_18">
    <path d="M 180 250 
L 180 162.78 
" style="fill: none; stroke: #000000; stroke-linejoin: miter; stroke-linecap: square"/>
   </g>
   <g id="patch_19">
    <path d="M 278.28 250 
L 278.28 162.78 
" style="fill: none; stroke: #000000; stroke-linejoin: miter; stroke-linecap: square"/>
   </g>
   <g id="patch_20">
    <path d="M 180 250 
L 278.28 250 
" style="fill: none; stroke: #000000; stroke-linejoin: miter; stroke-linecap: square"/>
   </g>
   <g id="patch_21">
    <path d="M 180 162.78 
L 278.28 162.78 
" style="fill: none; stroke: #000000; stroke-linejoin: miter; stroke-linecap: square"/>
   </g>
   <g id="text_34">
    <!-- DWPP (proposed) -->
    <g transform="translate(189.596813 156.78) scale(0.108 -0.108)">
     <defs>
      <path id="TimesNewRomanPSMT-44" d="M 109 0 
L 109 116 
L 269 116 
Q 538 116 650 288 
Q 719 391 719 750 
L 719 3488 
Q 719 3884 631 3984 
Q 509 4122 269 4122 
L 109 4122 
L 109 4238 
L 1834 4238 
Q 2784 4238 3279 4022 
Q 3775 3806 4076 3303 
Q 4378 2800 4378 2141 
Q 4378 1256 3841 663 
Q 3238 0 2003 0 
L 109 0 
z
M 1319 306 
Q 1716 219 1984 219 
Q 2709 219 3187 728 
Q 3666 1238 3666 2109 
Q 3666 2988 3187 3494 
Q 2709 4000 1959 4000 
Q 1678 4000 1319 3909 
L 1319 306 
z
" transform="scale(0.015625)"/>
      <path id="TimesNewRomanPSMT-57" d="M 5991 4238 
L 5991 4122 
Q 5825 4122 5722 4062 
Q 5619 4003 5525 3841 
Q 5463 3731 5328 3319 
L 4147 -97 
L 4022 -97 
L 3056 2613 
L 2097 -97 
L 1984 -97 
L 725 3422 
Q 584 3816 547 3888 
Q 484 4006 376 4064 
Q 269 4122 84 4122 
L 84 4238 
L 1653 4238 
L 1653 4122 
L 1578 4122 
Q 1413 4122 1325 4047 
Q 1238 3972 1238 3866 
Q 1238 3756 1375 3363 
L 2209 984 
L 2913 3006 
L 2788 3363 
L 2688 3647 
Q 2622 3803 2541 3922 
Q 2500 3981 2441 4022 
Q 2363 4078 2284 4103 
Q 2225 4122 2097 4122 
L 2097 4238 
L 3747 4238 
L 3747 4122 
L 3634 4122 
Q 3459 4122 3378 4047 
Q 3297 3972 3297 3844 
Q 3297 3684 3438 3288 
L 4250 984 
L 5056 3319 
Q 5194 3706 5194 3856 
Q 5194 3928 5148 3990 
Q 5103 4053 5034 4078 
Q 4916 4122 4725 4122 
L 4725 4238 
L 5991 4238 
z
" transform="scale(0.015625)"/>
      <path id="TimesNewRomanPSMT-28" d="M 1988 -1253 
L 1988 -1369 
Q 1516 -1131 1200 -813 
Q 750 -359 506 256 
Q 263 872 263 1534 
Q 263 2503 741 3301 
Q 1219 4100 1988 4444 
L 1988 4313 
Q 1603 4100 1356 3731 
Q 1109 3363 987 2797 
Q 866 2231 866 1616 
Q 866 947 969 400 
Q 1050 -31 1165 -292 
Q 1281 -553 1476 -793 
Q 1672 -1034 1988 -1253 
z
" transform="scale(0.015625)"/>
      <path id="TimesNewRomanPSMT-70" d="M -6 2578 
L 875 2934 
L 994 2934 
L 994 2266 
Q 1216 2644 1439 2795 
Q 1663 2947 1909 2947 
Q 2341 2947 2628 2609 
Q 2981 2197 2981 1534 
Q 2981 794 2556 309 
Q 2206 -88 1675 -88 
Q 1444 -88 1275 -22 
Q 1150 25 994 166 
L 994 -706 
Q 994 -1000 1030 -1079 
Q 1066 -1159 1155 -1206 
Q 1244 -1253 1478 -1253 
L 1478 -1369 
L -22 -1369 
L -22 -1253 
L 56 -1253 
Q 228 -1256 350 -1188 
Q 409 -1153 442 -1076 
Q 475 -1000 475 -688 
L 475 2019 
Q 475 2297 450 2372 
Q 425 2447 370 2484 
Q 316 2522 222 2522 
Q 147 2522 31 2478 
L -6 2578 
z
M 994 2081 
L 994 1013 
Q 994 666 1022 556 
Q 1066 375 1236 237 
Q 1406 100 1666 100 
Q 1978 100 2172 344 
Q 2425 663 2425 1241 
Q 2425 1897 2138 2250 
Q 1938 2494 1663 2494 
Q 1513 2494 1366 2419 
Q 1253 2363 994 2081 
z
" transform="scale(0.015625)"/>
      <path id="TimesNewRomanPSMT-6f" d="M 1600 2947 
Q 2250 2947 2644 2453 
Q 2978 2031 2978 1484 
Q 2978 1100 2793 706 
Q 2609 313 2286 112 
Q 1963 -88 1566 -88 
Q 919 -88 538 428 
Q 216 863 216 1403 
Q 216 1797 411 2186 
Q 606 2575 925 2761 
Q 1244 2947 1600 2947 
z
M 1503 2744 
Q 1338 2744 1170 2645 
Q 1003 2547 900 2300 
Q 797 2053 797 1666 
Q 797 1041 1045 587 
Q 1294 134 1700 134 
Q 2003 134 2200 384 
Q 2397 634 2397 1244 
Q 2397 2006 2069 2444 
Q 1847 2744 1503 2744 
z
" transform="scale(0.015625)"/>
      <path id="TimesNewRomanPSMT-29" d="M 144 4313 
L 144 4444 
Q 619 4209 934 3891 
Q 1381 3434 1625 2820 
Q 1869 2206 1869 1541 
Q 1869 572 1392 -226 
Q 916 -1025 144 -1369 
L 144 -1253 
Q 528 -1038 776 -670 
Q 1025 -303 1145 264 
Q 1266 831 1266 1447 
Q 1266 2113 1163 2663 
Q 1084 3094 967 3353 
Q 850 3613 656 3853 
Q 463 4094 144 4313 
z
" transform="scale(0.015625)"/>
     </defs>
     <use xlink:href="#TimesNewRomanPSMT-44"/>
     <use xlink:href="#TimesNewRomanPSMT-57" x="72.216797"/>
     <use xlink:href="#TimesNewRomanPSMT-50" x="166.601562"/>
     <use xlink:href="#TimesNewRomanPSMT-50" x="222.216797"/>
     <use xlink:href="#TimesNewRomanPSMT-20" x="274.082031"/>
     <use xlink:href="#TimesNewRomanPSMT-28" x="299.082031"/>
     <use xlink:href="#TimesNewRomanPSMT-70" x="332.382812"/>
     <use xlink:href="#TimesNewRomanPSMT-72" x="382.382812"/>
     <use xlink:href="#TimesNewRomanPSMT-6f" x="415.683594"/>
     <use xlink:href="#TimesNewRomanPSMT-70" x="465.683594"/>
     <use xlink:href="#TimesNewRomanPSMT-6f" x="515.683594"/>
     <use xlink:href="#TimesNewRomanPSMT-73" x="565.683594"/>
     <use xlink:href="#TimesNewRomanPSMT-65" x="604.599609"/>
     <use xlink:href="#TimesNewRomanPSMT-64" x="648.984375"/>
     <use xlink:href="#TimesNewRomanPSMT-29" x="698.984375"/>
    </g>
   </g>
  </g>
 </g>
 <defs>
  <clipPath id="pf8f3cea023">
   <rect x="48.62" y="23.64" width="98.28" height="87.22"/>
  </clipPath>
  <clipPath id="p7146756a97">
   <rect x="180" y="23.64" width="98.28" height="87.22"/>
  </clipPath>
  <clipPath id="pb9fb6599d4">
   <rect x="48.62" y="162.78" width="98.28" height="87.22"/>
  </clipPath>
  <clipPath id="p1c143865f3">
   <rect x="180" y="162.78" width="98.28" height="87.22"/>
  </clipPath>
 </defs>
</svg>
