<?xml version="1.0" encoding="utf-8" standalone="no"?>
<!DOCTYPE svg PUBLIC "-//W3C//DTD SVG 1.1//EN"
  "http://www.w3.org/Graphics/SVG/1.1/DTD/svg11.dtd">
<svg xmlns:xlink="http://www.w3.org/1999/xlink" width="360pt" height="288pt" viewBox="0 0 360 288" xmlns="http://www.w3.org/2000/svg" version="1.1">
 <metadata>
  <rdf:RDF xmlns:dc="http://purl.org/dc/elements/1.1/" xmlns:cc="http://creativecommons.org/ns#" xmlns:rdf="http://www.w3.org/1999/02/22-rdf-syntax-ns#">
   <cc:Work>
    <dc:type rdf:resource="http://purl.org/dc/dcmitype/StillImage"/>
    <dc:date>2025-02-27T14:50:30.990880</dc:date>
    <dc:format>image/svg+xml</dc:format>
    <dc:creator>
     <cc:Agent>
      <dc:title>Matplotlib v3.9.2, https://matplotlib.org/</dc:title>
     </cc:Agent>
    </dc:creator>
   </cc:Work>
  </rdf:RDF>
 </metadata>
 <defs>
  <style type="text/css">*{stroke-linejoin: round; stroke-linecap: butt}</style>
 </defs>
 <g id="figure_1">
  <g id="patch_1">
   <path d="M 0 288 
L 360 288 
L 360 0 
L 0 0 
z
" style="fill: #ffffff"/>
  </g>
  <g id="axes_1">
   <g id="patch_2">
    <path d="M 45.74 110.86 
L 175.14 110.86 
L 175.14 23.64 
L 45.74 23.64 
z
" style="fill: #ffffff"/>
   </g>
   <g id="matplotlib.axis_1">
    <g id="xtick_1">
     <g id="line2d_1">
      <path d="M 45.74 110.86 
L 45.74 23.64 
" clip-path="url(#p6619fb1ab5)" style="fill: none; stroke: #b0b0b0; stroke-width: 0.8; stroke-linecap: square"/>
     </g>
     <g id="line2d_2">
      <defs>
       <path id="m293a477605" d="M 0 0 
L 0 3.5 
" style="stroke: #000000; stroke-width: 0.8"/>
      </defs>
      <g>
       <use xlink:href="#m293a477605" x="45.74" y="110.86" style="stroke: #000000; stroke-width: 0.8"/>
      </g>
     </g>
     <g id="text_1">
      <!-- 0 -->
      <g transform="translate(43.49 124.109375) scale(0.09 -0.09)">
       <defs>
        <path id="TimesNewRomanPSMT-30" d="M 231 2094 
Q 231 2819 450 3342 
Q 669 3866 1031 4122 
Q 1313 4325 1613 4325 
Q 2100 4325 2488 3828 
Q 2972 3213 2972 2159 
Q 2972 1422 2759 906 
Q 2547 391 2217 158 
Q 1888 -75 1581 -75 
Q 975 -75 572 641 
Q 231 1244 231 2094 
z
M 844 2016 
Q 844 1141 1059 588 
Q 1238 122 1591 122 
Q 1759 122 1940 273 
Q 2122 425 2216 781 
Q 2359 1319 2359 2297 
Q 2359 3022 2209 3506 
Q 2097 3866 1919 4016 
Q 1791 4119 1609 4119 
Q 1397 4119 1231 3928 
Q 1006 3669 925 3112 
Q 844 2556 844 2016 
z
" transform="scale(0.015625)"/>
       </defs>
       <use xlink:href="#TimesNewRomanPSMT-30"/>
      </g>
     </g>
    </g>
    <g id="xtick_2">
     <g id="line2d_3">
      <path d="M 107.359048 110.86 
L 107.359048 23.64 
" clip-path="url(#p6619fb1ab5)" style="fill: none; stroke: #b0b0b0; stroke-width: 0.8; stroke-linecap: square"/>
     </g>
     <g id="line2d_4">
      <g>
       <use xlink:href="#m293a477605" x="107.359048" y="110.86" style="stroke: #000000; stroke-width: 0.8"/>
      </g>
     </g>
     <g id="text_2">
      <!-- 10 -->
      <g transform="translate(102.859048 124.109375) scale(0.09 -0.09)">
       <defs>
        <path id="TimesNewRomanPSMT-31" d="M 750 3822 
L 1781 4325 
L 1884 4325 
L 1884 747 
Q 1884 391 1914 303 
Q 1944 216 2037 169 
Q 2131 122 2419 116 
L 2419 0 
L 825 0 
L 825 116 
Q 1125 122 1212 167 
Q 1300 213 1334 289 
Q 1369 366 1369 747 
L 1369 3034 
Q 1369 3497 1338 3628 
Q 1316 3728 1258 3775 
Q 1200 3822 1119 3822 
Q 1003 3822 797 3725 
L 750 3822 
z
" transform="scale(0.015625)"/>
       </defs>
       <use xlink:href="#TimesNewRomanPSMT-31"/>
       <use xlink:href="#TimesNewRomanPSMT-30" x="50"/>
      </g>
     </g>
    </g>
    <g id="xtick_3">
     <g id="line2d_5">
      <path d="M 168.978095 110.86 
L 168.978095 23.64 
" clip-path="url(#p6619fb1ab5)" style="fill: none; stroke: #b0b0b0; stroke-width: 0.8; stroke-linecap: square"/>
     </g>
     <g id="line2d_6">
      <g>
       <use xlink:href="#m293a477605" x="168.978095" y="110.86" style="stroke: #000000; stroke-width: 0.8"/>
      </g>
     </g>
     <g id="text_3">
      <!-- 20 -->
      <g transform="translate(164.478095 124.109375) scale(0.09 -0.09)">
       <defs>
        <path id="TimesNewRomanPSMT-32" d="M 2934 816 
L 2638 0 
L 138 0 
L 138 116 
Q 1241 1122 1691 1759 
Q 2141 2397 2141 2925 
Q 2141 3328 1894 3587 
Q 1647 3847 1303 3847 
Q 991 3847 742 3664 
Q 494 3481 375 3128 
L 259 3128 
Q 338 3706 661 4015 
Q 984 4325 1469 4325 
Q 1984 4325 2329 3994 
Q 2675 3663 2675 3213 
Q 2675 2891 2525 2569 
Q 2294 2063 1775 1497 
Q 997 647 803 472 
L 1909 472 
Q 2247 472 2383 497 
Q 2519 522 2628 598 
Q 2738 675 2819 816 
L 2934 816 
z
" transform="scale(0.015625)"/>
       </defs>
       <use xlink:href="#TimesNewRomanPSMT-32"/>
       <use xlink:href="#TimesNewRomanPSMT-30" x="50"/>
      </g>
     </g>
    </g>
    <g id="text_4">
     <!-- time [s] -->
     <g transform="translate(96.56875 136.283906) scale(0.09 -0.09)">
      <defs>
       <path id="TimesNewRomanPSMT-74" d="M 1031 3803 
L 1031 2863 
L 1700 2863 
L 1700 2644 
L 1031 2644 
L 1031 788 
Q 1031 509 1111 412 
Q 1191 316 1316 316 
Q 1419 316 1516 380 
Q 1613 444 1666 569 
L 1788 569 
Q 1678 263 1478 108 
Q 1278 -47 1066 -47 
Q 922 -47 784 33 
Q 647 113 581 261 
Q 516 409 516 719 
L 516 2644 
L 63 2644 
L 63 2747 
Q 234 2816 414 2980 
Q 594 3144 734 3369 
Q 806 3488 934 3803 
L 1031 3803 
z
" transform="scale(0.015625)"/>
       <path id="TimesNewRomanPSMT-69" d="M 928 4444 
Q 1059 4444 1151 4351 
Q 1244 4259 1244 4128 
Q 1244 3997 1151 3903 
Q 1059 3809 928 3809 
Q 797 3809 703 3903 
Q 609 3997 609 4128 
Q 609 4259 701 4351 
Q 794 4444 928 4444 
z
M 1188 2947 
L 1188 647 
Q 1188 378 1227 289 
Q 1266 200 1342 156 
Q 1419 113 1622 113 
L 1622 0 
L 231 0 
L 231 113 
Q 441 113 512 153 
Q 584 194 626 287 
Q 669 381 669 647 
L 669 1750 
Q 669 2216 641 2353 
Q 619 2453 572 2492 
Q 525 2531 444 2531 
Q 356 2531 231 2484 
L 188 2597 
L 1050 2947 
L 1188 2947 
z
" transform="scale(0.015625)"/>
       <path id="TimesNewRomanPSMT-6d" d="M 1050 2338 
Q 1363 2650 1419 2697 
Q 1559 2816 1721 2881 
Q 1884 2947 2044 2947 
Q 2313 2947 2506 2790 
Q 2700 2634 2766 2338 
Q 3088 2713 3309 2830 
Q 3531 2947 3766 2947 
Q 3994 2947 4170 2830 
Q 4347 2713 4450 2447 
Q 4519 2266 4519 1878 
L 4519 647 
Q 4519 378 4559 278 
Q 4591 209 4675 161 
Q 4759 113 4950 113 
L 4950 0 
L 3538 0 
L 3538 113 
L 3597 113 
Q 3781 113 3884 184 
Q 3956 234 3988 344 
Q 4000 397 4000 647 
L 4000 1878 
Q 4000 2228 3916 2372 
Q 3794 2572 3525 2572 
Q 3359 2572 3192 2489 
Q 3025 2406 2788 2181 
L 2781 2147 
L 2788 2013 
L 2788 647 
Q 2788 353 2820 281 
Q 2853 209 2943 161 
Q 3034 113 3253 113 
L 3253 0 
L 1806 0 
L 1806 113 
Q 2044 113 2133 169 
Q 2222 225 2256 338 
Q 2272 391 2272 647 
L 2272 1878 
Q 2272 2228 2169 2381 
Q 2031 2581 1784 2581 
Q 1616 2581 1450 2491 
Q 1191 2353 1050 2181 
L 1050 647 
Q 1050 366 1089 281 
Q 1128 197 1204 155 
Q 1281 113 1516 113 
L 1516 0 
L 100 0 
L 100 113 
Q 297 113 375 155 
Q 453 197 493 289 
Q 534 381 534 647 
L 534 1741 
Q 534 2213 506 2350 
Q 484 2453 437 2492 
Q 391 2531 309 2531 
Q 222 2531 100 2484 
L 53 2597 
L 916 2947 
L 1050 2947 
L 1050 2338 
z
" transform="scale(0.015625)"/>
       <path id="TimesNewRomanPSMT-65" d="M 681 1784 
Q 678 1147 991 784 
Q 1303 422 1725 422 
Q 2006 422 2214 576 
Q 2422 731 2563 1106 
L 2659 1044 
Q 2594 616 2278 264 
Q 1963 -88 1488 -88 
Q 972 -88 605 314 
Q 238 716 238 1394 
Q 238 2128 614 2539 
Q 991 2950 1559 2950 
Q 2041 2950 2350 2633 
Q 2659 2316 2659 1784 
L 681 1784 
z
M 681 1966 
L 2006 1966 
Q 1991 2241 1941 2353 
Q 1863 2528 1708 2628 
Q 1553 2728 1384 2728 
Q 1125 2728 920 2526 
Q 716 2325 681 1966 
z
" transform="scale(0.015625)"/>
       <path id="TimesNewRomanPSMT-20" transform="scale(0.015625)"/>
       <path id="TimesNewRomanPSMT-5b" d="M 1900 -1269 
L 525 -1269 
L 525 4334 
L 1900 4334 
L 1900 4088 
L 994 4088 
L 994 -1025 
L 1900 -1025 
L 1900 -1269 
z
" transform="scale(0.015625)"/>
       <path id="TimesNewRomanPSMT-73" d="M 2050 2947 
L 2050 1972 
L 1947 1972 
Q 1828 2431 1642 2597 
Q 1456 2763 1169 2763 
Q 950 2763 815 2647 
Q 681 2531 681 2391 
Q 681 2216 781 2091 
Q 878 1963 1175 1819 
L 1631 1597 
Q 2266 1288 2266 781 
Q 2266 391 1970 151 
Q 1675 -88 1309 -88 
Q 1047 -88 709 6 
Q 606 38 541 38 
Q 469 38 428 -44 
L 325 -44 
L 325 978 
L 428 978 
Q 516 541 762 319 
Q 1009 97 1316 97 
Q 1531 97 1667 223 
Q 1803 350 1803 528 
Q 1803 744 1651 891 
Q 1500 1038 1047 1263 
Q 594 1488 453 1669 
Q 313 1847 313 2119 
Q 313 2472 555 2709 
Q 797 2947 1181 2947 
Q 1350 2947 1591 2875 
Q 1750 2828 1803 2828 
Q 1853 2828 1881 2850 
Q 1909 2872 1947 2947 
L 2050 2947 
z
" transform="scale(0.015625)"/>
       <path id="TimesNewRomanPSMT-5d" d="M 234 4334 
L 1609 4334 
L 1609 -1272 
L 234 -1272 
L 234 -1025 
L 1141 -1025 
L 1141 4088 
L 234 4088 
L 234 4334 
z
" transform="scale(0.015625)"/>
      </defs>
      <use xlink:href="#TimesNewRomanPSMT-74"/>
      <use xlink:href="#TimesNewRomanPSMT-69" x="27.783203"/>
      <use xlink:href="#TimesNewRomanPSMT-6d" x="55.566406"/>
      <use xlink:href="#TimesNewRomanPSMT-65" x="133.349609"/>
      <use xlink:href="#TimesNewRomanPSMT-20" x="177.734375"/>
      <use xlink:href="#TimesNewRomanPSMT-5b" x="202.734375"/>
      <use xlink:href="#TimesNewRomanPSMT-73" x="236.035156"/>
      <use xlink:href="#TimesNewRomanPSMT-5d" x="274.951172"/>
     </g>
    </g>
   </g>
   <g id="matplotlib.axis_2">
    <g id="ytick_1">
     <g id="line2d_7">
      <path d="M 45.74 103.591667 
L 175.14 103.591667 
" clip-path="url(#p6619fb1ab5)" style="fill: none; stroke: #b0b0b0; stroke-width: 0.8; stroke-linecap: square"/>
     </g>
     <g id="line2d_8">
      <defs>
       <path id="m42bc676a4c" d="M 0 0 
L -3.5 0 
" style="stroke: #000000; stroke-width: 0.8"/>
      </defs>
      <g>
       <use xlink:href="#m42bc676a4c" x="45.74" y="103.591667" style="stroke: #000000; stroke-width: 0.8"/>
      </g>
     </g>
     <g id="text_5">
      <!-- −1 -->
      <g transform="translate(29.164844 106.716354) scale(0.09 -0.09)">
       <defs>
        <path id="TimesNewRomanPSMT-2212" d="M 3484 2000 
L 116 2000 
L 116 2256 
L 3484 2256 
L 3484 2000 
z
" transform="scale(0.015625)"/>
       </defs>
       <use xlink:href="#TimesNewRomanPSMT-2212"/>
       <use xlink:href="#TimesNewRomanPSMT-31" x="56.396484"/>
      </g>
     </g>
    </g>
    <g id="ytick_2">
     <g id="line2d_9">
      <path d="M 45.74 67.25 
L 175.14 67.25 
" clip-path="url(#p6619fb1ab5)" style="fill: none; stroke: #b0b0b0; stroke-width: 0.8; stroke-linecap: square"/>
     </g>
     <g id="line2d_10">
      <g>
       <use xlink:href="#m42bc676a4c" x="45.74" y="67.25" style="stroke: #000000; stroke-width: 0.8"/>
      </g>
     </g>
     <g id="text_6">
      <!-- 0 -->
      <g transform="translate(34.24 70.374688) scale(0.09 -0.09)">
       <use xlink:href="#TimesNewRomanPSMT-30"/>
      </g>
     </g>
    </g>
    <g id="ytick_3">
     <g id="line2d_11">
      <path d="M 45.74 30.908333 
L 175.14 30.908333 
" clip-path="url(#p6619fb1ab5)" style="fill: none; stroke: #b0b0b0; stroke-width: 0.8; stroke-linecap: square"/>
     </g>
     <g id="line2d_12">
      <g>
       <use xlink:href="#m42bc676a4c" x="45.74" y="30.908333" style="stroke: #000000; stroke-width: 0.8"/>
      </g>
     </g>
     <g id="text_7">
      <!-- 1 -->
      <g transform="translate(34.24 34.033021) scale(0.09 -0.09)">
       <use xlink:href="#TimesNewRomanPSMT-31"/>
      </g>
     </g>
    </g>
    <g id="text_8">
     <!-- angular velocity [rad/s] -->
     <g transform="translate(23.222813 109.233594) rotate(-90) scale(0.09 -0.09)">
      <defs>
       <path id="TimesNewRomanPSMT-61" d="M 1822 413 
Q 1381 72 1269 19 
Q 1100 -59 909 -59 
Q 613 -59 420 144 
Q 228 347 228 678 
Q 228 888 322 1041 
Q 450 1253 767 1440 
Q 1084 1628 1822 1897 
L 1822 2009 
Q 1822 2438 1686 2597 
Q 1550 2756 1291 2756 
Q 1094 2756 978 2650 
Q 859 2544 859 2406 
L 866 2225 
Q 866 2081 792 2003 
Q 719 1925 600 1925 
Q 484 1925 411 2006 
Q 338 2088 338 2228 
Q 338 2497 613 2722 
Q 888 2947 1384 2947 
Q 1766 2947 2009 2819 
Q 2194 2722 2281 2516 
Q 2338 2381 2338 1966 
L 2338 994 
Q 2338 584 2353 492 
Q 2369 400 2405 369 
Q 2441 338 2488 338 
Q 2538 338 2575 359 
Q 2641 400 2828 588 
L 2828 413 
Q 2478 -56 2159 -56 
Q 2006 -56 1915 50 
Q 1825 156 1822 413 
z
M 1822 616 
L 1822 1706 
Q 1350 1519 1213 1441 
Q 966 1303 859 1153 
Q 753 1003 753 825 
Q 753 600 887 451 
Q 1022 303 1197 303 
Q 1434 303 1822 616 
z
" transform="scale(0.015625)"/>
       <path id="TimesNewRomanPSMT-6e" d="M 1034 2341 
Q 1538 2947 1994 2947 
Q 2228 2947 2397 2830 
Q 2566 2713 2666 2444 
Q 2734 2256 2734 1869 
L 2734 647 
Q 2734 375 2778 278 
Q 2813 200 2889 156 
Q 2966 113 3172 113 
L 3172 0 
L 1756 0 
L 1756 113 
L 1816 113 
Q 2016 113 2095 173 
Q 2175 234 2206 353 
Q 2219 400 2219 647 
L 2219 1819 
Q 2219 2209 2117 2386 
Q 2016 2563 1775 2563 
Q 1403 2563 1034 2156 
L 1034 647 
Q 1034 356 1069 288 
Q 1113 197 1189 155 
Q 1266 113 1500 113 
L 1500 0 
L 84 0 
L 84 113 
L 147 113 
Q 366 113 442 223 
Q 519 334 519 647 
L 519 1709 
Q 519 2225 495 2337 
Q 472 2450 423 2490 
Q 375 2531 294 2531 
Q 206 2531 84 2484 
L 38 2597 
L 900 2947 
L 1034 2947 
L 1034 2341 
z
" transform="scale(0.015625)"/>
       <path id="TimesNewRomanPSMT-67" d="M 966 1044 
Q 703 1172 562 1401 
Q 422 1631 422 1909 
Q 422 2334 742 2640 
Q 1063 2947 1563 2947 
Q 1972 2947 2272 2747 
L 2878 2747 
Q 3013 2747 3034 2739 
Q 3056 2731 3066 2713 
Q 3084 2684 3084 2613 
Q 3084 2531 3069 2500 
Q 3059 2484 3036 2475 
Q 3013 2466 2878 2466 
L 2506 2466 
Q 2681 2241 2681 1891 
Q 2681 1491 2375 1206 
Q 2069 922 1553 922 
Q 1341 922 1119 984 
Q 981 866 932 777 
Q 884 688 884 625 
Q 884 572 936 522 
Q 988 472 1138 450 
Q 1225 438 1575 428 
Q 2219 413 2409 384 
Q 2700 344 2873 169 
Q 3047 -6 3047 -263 
Q 3047 -616 2716 -925 
Q 2228 -1381 1444 -1381 
Q 841 -1381 425 -1109 
Q 191 -953 191 -784 
Q 191 -709 225 -634 
Q 278 -519 444 -313 
Q 466 -284 763 25 
Q 600 122 533 198 
Q 466 275 466 372 
Q 466 481 555 628 
Q 644 775 966 1044 
z
M 1509 2797 
Q 1278 2797 1122 2612 
Q 966 2428 966 2047 
Q 966 1553 1178 1281 
Q 1341 1075 1591 1075 
Q 1828 1075 1981 1253 
Q 2134 1431 2134 1813 
Q 2134 2309 1919 2591 
Q 1759 2797 1509 2797 
z
M 934 0 
Q 788 -159 713 -296 
Q 638 -434 638 -550 
Q 638 -700 819 -813 
Q 1131 -1006 1722 -1006 
Q 2284 -1006 2551 -807 
Q 2819 -609 2819 -384 
Q 2819 -222 2659 -153 
Q 2497 -84 2016 -72 
Q 1313 -53 934 0 
z
" transform="scale(0.015625)"/>
       <path id="TimesNewRomanPSMT-75" d="M 2709 2863 
L 2709 1128 
Q 2709 631 2732 520 
Q 2756 409 2807 365 
Q 2859 322 2928 322 
Q 3025 322 3147 375 
L 3191 266 
L 2334 -88 
L 2194 -88 
L 2194 519 
Q 1825 119 1631 15 
Q 1438 -88 1222 -88 
Q 981 -88 804 51 
Q 628 191 559 409 
Q 491 628 491 1028 
L 491 2306 
Q 491 2509 447 2587 
Q 403 2666 317 2708 
Q 231 2750 6 2747 
L 6 2863 
L 1009 2863 
L 1009 947 
Q 1009 547 1148 422 
Q 1288 297 1484 297 
Q 1619 297 1789 381 
Q 1959 466 2194 703 
L 2194 2325 
Q 2194 2569 2105 2655 
Q 2016 2741 1734 2747 
L 1734 2863 
L 2709 2863 
z
" transform="scale(0.015625)"/>
       <path id="TimesNewRomanPSMT-6c" d="M 1184 4444 
L 1184 647 
Q 1184 378 1223 290 
Q 1263 203 1344 158 
Q 1425 113 1647 113 
L 1647 0 
L 244 0 
L 244 113 
Q 441 113 512 153 
Q 584 194 625 287 
Q 666 381 666 647 
L 666 3247 
Q 666 3731 644 3842 
Q 622 3953 573 3993 
Q 525 4034 450 4034 
Q 369 4034 244 3984 
L 191 4094 
L 1044 4444 
L 1184 4444 
z
" transform="scale(0.015625)"/>
       <path id="TimesNewRomanPSMT-72" d="M 1038 2947 
L 1038 2303 
Q 1397 2947 1775 2947 
Q 1947 2947 2059 2842 
Q 2172 2738 2172 2600 
Q 2172 2478 2090 2393 
Q 2009 2309 1897 2309 
Q 1788 2309 1652 2417 
Q 1516 2525 1450 2525 
Q 1394 2525 1328 2463 
Q 1188 2334 1038 2041 
L 1038 669 
Q 1038 431 1097 309 
Q 1138 225 1241 169 
Q 1344 113 1538 113 
L 1538 0 
L 72 0 
L 72 113 
Q 291 113 397 181 
Q 475 231 506 341 
Q 522 394 522 644 
L 522 1753 
Q 522 2253 501 2348 
Q 481 2444 426 2487 
Q 372 2531 291 2531 
Q 194 2531 72 2484 
L 41 2597 
L 906 2947 
L 1038 2947 
z
" transform="scale(0.015625)"/>
       <path id="TimesNewRomanPSMT-76" d="M 53 2863 
L 1400 2863 
L 1400 2747 
L 1313 2747 
Q 1191 2747 1127 2687 
Q 1063 2628 1063 2528 
Q 1063 2419 1128 2269 
L 1794 688 
L 2463 2328 
Q 2534 2503 2534 2594 
Q 2534 2638 2509 2666 
Q 2475 2713 2422 2730 
Q 2369 2747 2206 2747 
L 2206 2863 
L 3141 2863 
L 3141 2747 
Q 2978 2734 2916 2681 
Q 2806 2588 2719 2369 
L 1703 -88 
L 1575 -88 
L 553 2328 
Q 484 2497 421 2570 
Q 359 2644 263 2694 
Q 209 2722 53 2747 
L 53 2863 
z
" transform="scale(0.015625)"/>
       <path id="TimesNewRomanPSMT-6f" d="M 1600 2947 
Q 2250 2947 2644 2453 
Q 2978 2031 2978 1484 
Q 2978 1100 2793 706 
Q 2609 313 2286 112 
Q 1963 -88 1566 -88 
Q 919 -88 538 428 
Q 216 863 216 1403 
Q 216 1797 411 2186 
Q 606 2575 925 2761 
Q 1244 2947 1600 2947 
z
M 1503 2744 
Q 1338 2744 1170 2645 
Q 1003 2547 900 2300 
Q 797 2053 797 1666 
Q 797 1041 1045 587 
Q 1294 134 1700 134 
Q 2003 134 2200 384 
Q 2397 634 2397 1244 
Q 2397 2006 2069 2444 
Q 1847 2744 1503 2744 
z
" transform="scale(0.015625)"/>
       <path id="TimesNewRomanPSMT-63" d="M 2631 1088 
Q 2516 522 2178 217 
Q 1841 -88 1431 -88 
Q 944 -88 581 321 
Q 219 731 219 1428 
Q 219 2103 620 2525 
Q 1022 2947 1584 2947 
Q 2006 2947 2278 2723 
Q 2550 2500 2550 2259 
Q 2550 2141 2473 2067 
Q 2397 1994 2259 1994 
Q 2075 1994 1981 2113 
Q 1928 2178 1911 2362 
Q 1894 2547 1784 2644 
Q 1675 2738 1481 2738 
Q 1169 2738 978 2506 
Q 725 2200 725 1697 
Q 725 1184 976 792 
Q 1228 400 1656 400 
Q 1963 400 2206 609 
Q 2378 753 2541 1131 
L 2631 1088 
z
" transform="scale(0.015625)"/>
       <path id="TimesNewRomanPSMT-79" d="M 38 2863 
L 1372 2863 
L 1372 2747 
L 1306 2747 
Q 1166 2747 1095 2686 
Q 1025 2625 1025 2534 
Q 1025 2413 1128 2197 
L 1825 753 
L 2466 2334 
Q 2519 2463 2519 2588 
Q 2519 2644 2497 2672 
Q 2472 2706 2419 2726 
Q 2366 2747 2231 2747 
L 2231 2863 
L 3163 2863 
L 3163 2747 
Q 3047 2734 2984 2696 
Q 2922 2659 2847 2556 
Q 2819 2513 2741 2316 
L 1575 -541 
Q 1406 -956 1132 -1168 
Q 859 -1381 606 -1381 
Q 422 -1381 303 -1275 
Q 184 -1169 184 -1031 
Q 184 -900 270 -820 
Q 356 -741 506 -741 
Q 609 -741 788 -809 
Q 913 -856 944 -856 
Q 1038 -856 1148 -759 
Q 1259 -663 1372 -384 
L 1575 113 
L 547 2272 
Q 500 2369 397 2513 
Q 319 2622 269 2659 
Q 197 2709 38 2747 
L 38 2863 
z
" transform="scale(0.015625)"/>
       <path id="TimesNewRomanPSMT-64" d="M 2222 322 
Q 2013 103 1813 7 
Q 1613 -88 1381 -88 
Q 913 -88 563 304 
Q 213 697 213 1313 
Q 213 1928 600 2439 
Q 988 2950 1597 2950 
Q 1975 2950 2222 2709 
L 2222 3238 
Q 2222 3728 2198 3840 
Q 2175 3953 2125 3993 
Q 2075 4034 2000 4034 
Q 1919 4034 1784 3984 
L 1744 4094 
L 2597 4444 
L 2738 4444 
L 2738 1134 
Q 2738 631 2761 520 
Q 2784 409 2836 365 
Q 2888 322 2956 322 
Q 3041 322 3181 375 
L 3216 266 
L 2366 -88 
L 2222 -88 
L 2222 322 
z
M 2222 541 
L 2222 2016 
Q 2203 2228 2109 2403 
Q 2016 2578 1861 2667 
Q 1706 2756 1559 2756 
Q 1284 2756 1069 2509 
Q 784 2184 784 1559 
Q 784 928 1059 592 
Q 1334 256 1672 256 
Q 1956 256 2222 541 
z
" transform="scale(0.015625)"/>
       <path id="TimesNewRomanPSMT-2f" d="M 1794 4444 
L 259 -88 
L 9 -88 
L 1544 4444 
L 1794 4444 
z
" transform="scale(0.015625)"/>
      </defs>
      <use xlink:href="#TimesNewRomanPSMT-61"/>
      <use xlink:href="#TimesNewRomanPSMT-6e" x="44.384766"/>
      <use xlink:href="#TimesNewRomanPSMT-67" x="94.384766"/>
      <use xlink:href="#TimesNewRomanPSMT-75" x="144.384766"/>
      <use xlink:href="#TimesNewRomanPSMT-6c" x="194.384766"/>
      <use xlink:href="#TimesNewRomanPSMT-61" x="222.167969"/>
      <use xlink:href="#TimesNewRomanPSMT-72" x="266.552734"/>
      <use xlink:href="#TimesNewRomanPSMT-20" x="299.853516"/>
      <use xlink:href="#TimesNewRomanPSMT-76" x="324.853516"/>
      <use xlink:href="#TimesNewRomanPSMT-65" x="374.853516"/>
      <use xlink:href="#TimesNewRomanPSMT-6c" x="419.238281"/>
      <use xlink:href="#TimesNewRomanPSMT-6f" x="447.021484"/>
      <use xlink:href="#TimesNewRomanPSMT-63" x="497.021484"/>
      <use xlink:href="#TimesNewRomanPSMT-69" x="541.40625"/>
      <use xlink:href="#TimesNewRomanPSMT-74" x="569.189453"/>
      <use xlink:href="#TimesNewRomanPSMT-79" x="596.972656"/>
      <use xlink:href="#TimesNewRomanPSMT-20" x="646.972656"/>
      <use xlink:href="#TimesNewRomanPSMT-5b" x="671.972656"/>
      <use xlink:href="#TimesNewRomanPSMT-72" x="705.273438"/>
      <use xlink:href="#TimesNewRomanPSMT-61" x="738.574219"/>
      <use xlink:href="#TimesNewRomanPSMT-64" x="782.958984"/>
      <use xlink:href="#TimesNewRomanPSMT-2f" x="832.958984"/>
      <use xlink:href="#TimesNewRomanPSMT-73" x="860.742188"/>
      <use xlink:href="#TimesNewRomanPSMT-5d" x="899.658203"/>
     </g>
    </g>
   </g>
   <g id="line2d_13">
    <path d="M 45.74 30.908333 
L 175.14 30.908333 
" clip-path="url(#p6619fb1ab5)" style="fill: none; stroke-dasharray: 5.55,2.4; stroke-dashoffset: 0; stroke: #000000; stroke-width: 1.5"/>
   </g>
   <g id="line2d_14">
    <path d="M 45.74 103.591667 
L 175.14 103.591667 
" clip-path="url(#p6619fb1ab5)" style="fill: none; stroke-dasharray: 5.55,2.4; stroke-dashoffset: 0; stroke: #000000; stroke-width: 1.5"/>
   </g>
   <g id="line2d_15">
    <path d="M 45.74 67.25 
L 56.215238 67.25 
L 56.523333 61.458965 
L 56.831429 52.565976 
L 57.139524 38.607126 
L 57.447619 33.992368 
L 57.812701 -1 
M 62.701124 -1 
L 63.609524 3.820839 
L 64.53381 7.576656 
L 65.458095 10.476943 
L 66.382381 12.737452 
L 66.690476 13.376795 
L 66.998571 14.814259 
L 67.306667 15.276168 
L 67.614762 16.522557 
L 68.230952 17.154879 
L 68.847143 19.198572 
L 69.155238 19.34544 
L 69.463333 20.287517 
L 69.771429 20.370678 
L 70.387619 22.169051 
L 70.695714 22.169782 
L 71.62 24.886059 
L 71.928095 24.824541 
L 73.160476 28.859374 
L 73.468571 28.812314 
L 74.700952 33.802205 
L 75.009048 33.802205 
L 76.241429 39.699121 
L 76.549524 39.699121 
L 77.47381 44.695932 
L 77.781905 44.695932 
L 78.70619 50.182166 
L 79.014286 50.18464 
L 79.630476 54.113825 
L 79.938571 54.134095 
L 80.246667 56.209208 
L 80.554762 56.227988 
L 81.170952 60.599262 
L 81.479048 60.656878 
L 81.787143 62.903035 
L 82.095238 62.938393 
L 82.711429 67.537805 
L 83.019524 67.622193 
L 83.327619 69.885844 
L 83.635714 69.926853 
L 84.251905 74.339363 
L 84.56 74.414384 
L 84.868095 76.456399 
L 85.17619 76.479122 
L 85.792381 80.157262 
L 86.100476 80.161889 
L 86.716667 82.991566 
L 87.024762 82.991566 
L 87.640952 84.903733 
L 87.949048 84.903733 
L 88.257143 85.525368 
L 88.565238 85.894042 
L 88.873333 85.894042 
L 89.181429 86.063294 
L 89.489524 86.02644 
L 89.797619 85.819492 
L 90.105714 85.819492 
L 90.721905 84.927894 
L 91.03 84.330588 
L 91.338095 84.330588 
L 92.570476 81.135325 
L 92.878571 80.299278 
L 93.186667 80.299278 
L 94.419048 76.769432 
L 94.727143 76.769432 
L 95.959524 73.541288 
L 96.267619 72.869241 
L 96.575714 72.869241 
L 97.5 70.959773 
L 97.808095 70.437202 
L 98.11619 70.437202 
L 99.040476 69.01647 
L 99.656667 68.321227 
L 99.964762 68.321227 
L 100.889048 67.487164 
L 101.505238 67.11426 
L 101.813333 67.11426 
L 102.737619 66.714755 
L 103.045714 72.096901 
L 103.35381 80.168123 
L 103.661905 81.777377 
L 103.97 96.308855 
L 104.278095 119.380771 
L 105.202381 229.803542 
L 105.510476 274.661761 
L 105.818571 282.87336 
L 106.126667 260.859657 
L 106.742857 203.047217 
L 107.050952 195.640919 
L 107.359048 144.045029 
L 107.667143 141.468165 
L 107.975238 144.168026 
L 108.591429 139.311297 
L 108.899524 141.528525 
L 109.82381 135.542469 
L 110.748095 130.950881 
L 111.672381 127.389278 
L 112.596667 124.60622 
L 112.904762 122.706436 
L 113.520952 121.524337 
L 113.829048 120.059742 
L 114.137143 119.653829 
L 114.445238 118.375478 
L 114.753333 118.092847 
L 115.061429 116.948579 
L 115.369524 116.761704 
L 115.677619 115.713272 
L 115.985714 115.602207 
L 116.601905 113.643072 
L 116.91 113.630726 
L 117.52619 111.727327 
L 117.834286 111.778102 
L 119.066667 107.772788 
L 119.374762 107.853533 
L 120.607143 103.063984 
L 120.915238 101.706251 
L 121.223333 101.706251 
L 122.455714 95.693191 
L 122.76381 95.693191 
L 123.688095 90.611002 
L 123.99619 90.611002 
L 124.612381 86.907377 
L 124.920476 86.903107 
L 125.844762 80.90226 
L 126.152857 80.864338 
L 126.460952 78.759175 
L 126.769048 78.738104 
L 127.385238 74.300969 
L 127.693333 74.237842 
L 128.001429 71.958638 
L 128.309524 71.920318 
L 128.925714 67.249505 
L 129.23381 67.158253 
L 129.541905 64.860391 
L 129.85 64.815921 
L 130.46619 60.333092 
L 130.774286 60.250668 
L 131.082381 58.177745 
L 131.390476 58.151692 
L 132.006667 54.41584 
L 132.314762 54.405052 
L 132.930952 51.537083 
L 133.239048 51.537083 
L 133.855238 49.603065 
L 134.163333 49.603065 
L 134.471429 48.976296 
L 134.779524 48.606597 
L 135.087619 48.606597 
L 135.395714 48.439574 
L 135.70381 48.481462 
L 136.011905 48.695392 
L 136.32 48.695392 
L 136.93619 49.606911 
L 137.552381 50.890583 
L 137.860476 50.890583 
L 139.092857 54.240348 
L 139.400952 54.240348 
L 140.941429 58.616973 
L 141.249524 58.616973 
L 142.17381 60.99309 
L 142.481905 61.673688 
L 142.79 61.673688 
L 143.714286 63.60282 
L 144.330476 64.602408 
L 144.638571 64.602408 
L 145.562857 65.87691 
L 146.179048 66.491646 
L 146.487143 66.491646 
L 147.411429 67.216742 
L 148.027619 67.533773 
L 148.335714 67.533773 
L 148.951905 67.77655 
L 151.108571 67.694055 
L 153.573333 67.514848 
L 155.421905 67.452221 
L 155.73 67.25 
L 156.654286 67.25 
L 156.654286 67.25 
" clip-path="url(#p6619fb1ab5)" style="fill: none; stroke: #0000ff; stroke-width: 1.5; stroke-linecap: square"/>
   </g>
   <g id="line2d_16">
    <path d="M 45.74 67.25 
L 56.215238 67.25 
L 62.377143 30.908333 
L 73.776667 30.908333 
L 74.084762 31.185797 
L 74.700952 33.802205 
L 75.009048 33.802205 
L 76.241429 39.699121 
L 76.549524 39.699121 
L 77.47381 44.695932 
L 77.781905 44.695932 
L 78.70619 50.142976 
L 79.014286 50.18464 
L 79.630476 53.818807 
L 79.938571 54.134095 
L 80.246667 55.951178 
L 80.554762 56.227988 
L 81.170952 59.862155 
L 81.479048 60.656878 
L 81.787143 62.473961 
L 82.095238 62.938393 
L 82.711429 66.57256 
L 83.019524 67.622193 
L 83.327619 69.439277 
L 83.635714 69.926853 
L 84.251905 73.56102 
L 84.56 74.414384 
L 84.868095 76.231467 
L 85.17619 76.479122 
L 85.792381 80.113289 
L 86.100476 80.161889 
L 86.716667 82.991566 
L 87.024762 82.991566 
L 87.640952 84.903733 
L 87.949048 84.903733 
L 88.257143 85.525368 
L 88.565238 85.894042 
L 88.873333 85.894042 
L 89.181429 86.063294 
L 89.489524 86.02644 
L 89.797619 85.819492 
L 90.105714 85.819492 
L 90.721905 84.927894 
L 91.03 84.330588 
L 91.338095 84.330588 
L 92.570476 81.135325 
L 92.878571 80.299278 
L 93.186667 80.299278 
L 94.419048 76.769432 
L 94.727143 76.769432 
L 95.959524 73.541288 
L 96.267619 72.869241 
L 96.575714 72.869241 
L 97.5 70.959773 
L 97.808095 70.437202 
L 98.11619 70.437202 
L 99.040476 69.01647 
L 99.656667 68.321227 
L 99.964762 68.321227 
L 100.889048 67.487164 
L 101.505238 67.11426 
L 101.813333 67.11426 
L 102.737619 66.714755 
L 108.899524 103.056422 
L 109.207619 103.591667 
L 120.299048 103.591667 
L 120.607143 103.063984 
L 120.915238 101.706251 
L 121.223333 101.706251 
L 122.455714 95.693191 
L 122.76381 95.693191 
L 123.688095 90.611002 
L 123.99619 90.611002 
L 124.612381 86.976835 
L 124.920476 86.903107 
L 125.844762 81.451857 
L 126.152857 80.864338 
L 126.460952 79.047255 
L 126.769048 78.738104 
L 127.385238 75.103937 
L 127.693333 74.237842 
L 128.001429 72.420758 
L 128.309524 71.920318 
L 128.925714 68.286152 
L 129.23381 67.158253 
L 129.541905 65.34117 
L 129.85 64.815921 
L 130.46619 61.181754 
L 130.774286 60.250668 
L 131.082381 58.433584 
L 131.390476 58.151692 
L 132.006667 54.517526 
L 132.314762 54.405052 
L 132.930952 51.537083 
L 133.239048 51.537083 
L 133.855238 49.603065 
L 134.163333 49.603065 
L 134.471429 48.976296 
L 134.779524 48.606597 
L 135.087619 48.606597 
L 135.395714 48.439574 
L 135.70381 48.481462 
L 136.011905 48.695392 
L 136.32 48.695392 
L 136.93619 49.606911 
L 137.552381 50.890583 
L 137.860476 50.890583 
L 139.092857 54.240348 
L 139.400952 54.240348 
L 140.941429 58.616973 
L 141.249524 58.616973 
L 142.17381 60.99309 
L 142.481905 61.673688 
L 142.79 61.673688 
L 143.714286 63.60282 
L 144.330476 64.602408 
L 144.638571 64.602408 
L 145.562857 65.87691 
L 146.179048 66.491646 
L 146.487143 66.491646 
L 147.411429 67.216742 
L 148.027619 67.533773 
L 148.335714 67.533773 
L 148.951905 67.77655 
L 151.108571 67.694055 
L 153.573333 67.514848 
L 155.421905 67.452221 
L 155.73 67.25 
L 156.654286 67.25 
L 156.654286 67.25 
" clip-path="url(#p6619fb1ab5)" style="fill: none; stroke: #ff0000; stroke-width: 1.5; stroke-linecap: square"/>
   </g>
   <g id="patch_3">
    <path d="M 45.74 110.86 
L 45.74 23.64 
" style="fill: none; stroke: #000000; stroke-linejoin: miter; stroke-linecap: square"/>
   </g>
   <g id="patch_4">
    <path d="M 175.14 110.86 
L 175.14 23.64 
" style="fill: none; stroke: #000000; stroke-linejoin: miter; stroke-linecap: square"/>
   </g>
   <g id="patch_5">
    <path d="M 45.74 110.86 
L 175.14 110.86 
" style="fill: none; stroke: #000000; stroke-linejoin: miter; stroke-linecap: square"/>
   </g>
   <g id="patch_6">
    <path d="M 45.74 23.64 
L 175.14 23.64 
" style="fill: none; stroke: #000000; stroke-linejoin: miter; stroke-linecap: square"/>
   </g>
   <g id="text_9">
    <!-- Pure Pursuit -->
    <g transform="translate(83.888875 17.64) scale(0.108 -0.108)">
     <defs>
      <path id="TimesNewRomanPSMT-50" d="M 1313 1984 
L 1313 750 
Q 1313 350 1400 253 
Q 1519 116 1759 116 
L 1922 116 
L 1922 0 
L 106 0 
L 106 116 
L 266 116 
Q 534 116 650 291 
Q 713 388 713 750 
L 713 3488 
Q 713 3888 628 3984 
Q 506 4122 266 4122 
L 106 4122 
L 106 4238 
L 1659 4238 
Q 2228 4238 2556 4120 
Q 2884 4003 3109 3725 
Q 3334 3447 3334 3066 
Q 3334 2547 2992 2222 
Q 2650 1897 2025 1897 
Q 1872 1897 1694 1919 
Q 1516 1941 1313 1984 
z
M 1313 2163 
Q 1478 2131 1606 2115 
Q 1734 2100 1825 2100 
Q 2150 2100 2386 2351 
Q 2622 2603 2622 3003 
Q 2622 3278 2509 3514 
Q 2397 3750 2190 3867 
Q 1984 3984 1722 3984 
Q 1563 3984 1313 3925 
L 1313 2163 
z
" transform="scale(0.015625)"/>
     </defs>
     <use xlink:href="#TimesNewRomanPSMT-50"/>
     <use xlink:href="#TimesNewRomanPSMT-75" x="55.615234"/>
     <use xlink:href="#TimesNewRomanPSMT-72" x="105.615234"/>
     <use xlink:href="#TimesNewRomanPSMT-65" x="138.916016"/>
     <use xlink:href="#TimesNewRomanPSMT-20" x="183.300781"/>
     <use xlink:href="#TimesNewRomanPSMT-50" x="208.300781"/>
     <use xlink:href="#TimesNewRomanPSMT-75" x="263.916016"/>
     <use xlink:href="#TimesNewRomanPSMT-72" x="313.916016"/>
     <use xlink:href="#TimesNewRomanPSMT-73" x="347.216797"/>
     <use xlink:href="#TimesNewRomanPSMT-75" x="386.132812"/>
     <use xlink:href="#TimesNewRomanPSMT-69" x="436.132812"/>
     <use xlink:href="#TimesNewRomanPSMT-74" x="463.916016"/>
    </g>
   </g>
  </g>
  <g id="axes_2">
   <g id="patch_7">
    <path d="M 220.88 110.86 
L 350.28 110.86 
L 350.28 23.64 
L 220.88 23.64 
z
" style="fill: #ffffff"/>
   </g>
   <g id="matplotlib.axis_3">
    <g id="xtick_4">
     <g id="line2d_17">
      <path d="M 220.88 110.86 
L 220.88 23.64 
" clip-path="url(#p068b329a20)" style="fill: none; stroke: #b0b0b0; stroke-width: 0.8; stroke-linecap: square"/>
     </g>
     <g id="line2d_18">
      <g>
       <use xlink:href="#m293a477605" x="220.88" y="110.86" style="stroke: #000000; stroke-width: 0.8"/>
      </g>
     </g>
     <g id="text_10">
      <!-- 0 -->
      <g transform="translate(218.63 124.109375) scale(0.09 -0.09)">
       <use xlink:href="#TimesNewRomanPSMT-30"/>
      </g>
     </g>
    </g>
    <g id="xtick_5">
     <g id="line2d_19">
      <path d="M 282.499048 110.86 
L 282.499048 23.64 
" clip-path="url(#p068b329a20)" style="fill: none; stroke: #b0b0b0; stroke-width: 0.8; stroke-linecap: square"/>
     </g>
     <g id="line2d_20">
      <g>
       <use xlink:href="#m293a477605" x="282.499048" y="110.86" style="stroke: #000000; stroke-width: 0.8"/>
      </g>
     </g>
     <g id="text_11">
      <!-- 10 -->
      <g transform="translate(277.999048 124.109375) scale(0.09 -0.09)">
       <use xlink:href="#TimesNewRomanPSMT-31"/>
       <use xlink:href="#TimesNewRomanPSMT-30" x="50"/>
      </g>
     </g>
    </g>
    <g id="xtick_6">
     <g id="line2d_21">
      <path d="M 344.118095 110.86 
L 344.118095 23.64 
" clip-path="url(#p068b329a20)" style="fill: none; stroke: #b0b0b0; stroke-width: 0.8; stroke-linecap: square"/>
     </g>
     <g id="line2d_22">
      <g>
       <use xlink:href="#m293a477605" x="344.118095" y="110.86" style="stroke: #000000; stroke-width: 0.8"/>
      </g>
     </g>
     <g id="text_12">
      <!-- 20 -->
      <g transform="translate(339.618095 124.109375) scale(0.09 -0.09)">
       <use xlink:href="#TimesNewRomanPSMT-32"/>
       <use xlink:href="#TimesNewRomanPSMT-30" x="50"/>
      </g>
     </g>
    </g>
    <g id="text_13">
     <!-- time [s] -->
     <g transform="translate(271.70875 136.283906) scale(0.09 -0.09)">
      <use xlink:href="#TimesNewRomanPSMT-74"/>
      <use xlink:href="#TimesNewRomanPSMT-69" x="27.783203"/>
      <use xlink:href="#TimesNewRomanPSMT-6d" x="55.566406"/>
      <use xlink:href="#TimesNewRomanPSMT-65" x="133.349609"/>
      <use xlink:href="#TimesNewRomanPSMT-20" x="177.734375"/>
      <use xlink:href="#TimesNewRomanPSMT-5b" x="202.734375"/>
      <use xlink:href="#TimesNewRomanPSMT-73" x="236.035156"/>
      <use xlink:href="#TimesNewRomanPSMT-5d" x="274.951172"/>
     </g>
    </g>
   </g>
   <g id="matplotlib.axis_4">
    <g id="ytick_4">
     <g id="line2d_23">
      <path d="M 220.88 103.591667 
L 350.28 103.591667 
" clip-path="url(#p068b329a20)" style="fill: none; stroke: #b0b0b0; stroke-width: 0.8; stroke-linecap: square"/>
     </g>
     <g id="line2d_24">
      <g>
       <use xlink:href="#m42bc676a4c" x="220.88" y="103.591667" style="stroke: #000000; stroke-width: 0.8"/>
      </g>
     </g>
     <g id="text_14">
      <!-- −1 -->
      <g transform="translate(204.304844 106.716354) scale(0.09 -0.09)">
       <use xlink:href="#TimesNewRomanPSMT-2212"/>
       <use xlink:href="#TimesNewRomanPSMT-31" x="56.396484"/>
      </g>
     </g>
    </g>
    <g id="ytick_5">
     <g id="line2d_25">
      <path d="M 220.88 67.25 
L 350.28 67.25 
" clip-path="url(#p068b329a20)" style="fill: none; stroke: #b0b0b0; stroke-width: 0.8; stroke-linecap: square"/>
     </g>
     <g id="line2d_26">
      <g>
       <use xlink:href="#m42bc676a4c" x="220.88" y="67.25" style="stroke: #000000; stroke-width: 0.8"/>
      </g>
     </g>
     <g id="text_15">
      <!-- 0 -->
      <g transform="translate(209.38 70.374688) scale(0.09 -0.09)">
       <use xlink:href="#TimesNewRomanPSMT-30"/>
      </g>
     </g>
    </g>
    <g id="ytick_6">
     <g id="line2d_27">
      <path d="M 220.88 30.908333 
L 350.28 30.908333 
" clip-path="url(#p068b329a20)" style="fill: none; stroke: #b0b0b0; stroke-width: 0.8; stroke-linecap: square"/>
     </g>
     <g id="line2d_28">
      <g>
       <use xlink:href="#m42bc676a4c" x="220.88" y="30.908333" style="stroke: #000000; stroke-width: 0.8"/>
      </g>
     </g>
     <g id="text_16">
      <!-- 1 -->
      <g transform="translate(209.38 34.033021) scale(0.09 -0.09)">
       <use xlink:href="#TimesNewRomanPSMT-31"/>
      </g>
     </g>
    </g>
    <g id="text_17">
     <!-- angular velocity [rad/s] -->
     <g transform="translate(198.362812 109.233594) rotate(-90) scale(0.09 -0.09)">
      <use xlink:href="#TimesNewRomanPSMT-61"/>
      <use xlink:href="#TimesNewRomanPSMT-6e" x="44.384766"/>
      <use xlink:href="#TimesNewRomanPSMT-67" x="94.384766"/>
      <use xlink:href="#TimesNewRomanPSMT-75" x="144.384766"/>
      <use xlink:href="#TimesNewRomanPSMT-6c" x="194.384766"/>
      <use xlink:href="#TimesNewRomanPSMT-61" x="222.167969"/>
      <use xlink:href="#TimesNewRomanPSMT-72" x="266.552734"/>
      <use xlink:href="#TimesNewRomanPSMT-20" x="299.853516"/>
      <use xlink:href="#TimesNewRomanPSMT-76" x="324.853516"/>
      <use xlink:href="#TimesNewRomanPSMT-65" x="374.853516"/>
      <use xlink:href="#TimesNewRomanPSMT-6c" x="419.238281"/>
      <use xlink:href="#TimesNewRomanPSMT-6f" x="447.021484"/>
      <use xlink:href="#TimesNewRomanPSMT-63" x="497.021484"/>
      <use xlink:href="#TimesNewRomanPSMT-69" x="541.40625"/>
      <use xlink:href="#TimesNewRomanPSMT-74" x="569.189453"/>
      <use xlink:href="#TimesNewRomanPSMT-79" x="596.972656"/>
      <use xlink:href="#TimesNewRomanPSMT-20" x="646.972656"/>
      <use xlink:href="#TimesNewRomanPSMT-5b" x="671.972656"/>
      <use xlink:href="#TimesNewRomanPSMT-72" x="705.273438"/>
      <use xlink:href="#TimesNewRomanPSMT-61" x="738.574219"/>
      <use xlink:href="#TimesNewRomanPSMT-64" x="782.958984"/>
      <use xlink:href="#TimesNewRomanPSMT-2f" x="832.958984"/>
      <use xlink:href="#TimesNewRomanPSMT-73" x="860.742188"/>
      <use xlink:href="#TimesNewRomanPSMT-5d" x="899.658203"/>
     </g>
    </g>
   </g>
   <g id="line2d_29">
    <path d="M 220.88 30.908333 
L 350.28 30.908333 
" clip-path="url(#p068b329a20)" style="fill: none; stroke-dasharray: 5.55,2.4; stroke-dashoffset: 0; stroke: #000000; stroke-width: 1.5"/>
   </g>
   <g id="line2d_30">
    <path d="M 220.88 103.591667 
L 350.28 103.591667 
" clip-path="url(#p068b329a20)" style="fill: none; stroke-dasharray: 5.55,2.4; stroke-dashoffset: 0; stroke: #000000; stroke-width: 1.5"/>
   </g>
   <g id="line2d_31">
    <path d="M 220.88 67.25 
L 230.122857 67.25 
L 230.430952 63.672728 
L 230.739048 58.717973 
L 231.047143 51.70883 
L 231.355238 50.254047 
L 231.663333 38.699045 
L 231.971429 21.654524 
L 232.257313 -1 
M 235.349001 -1 
L 235.360476 0.99888 
L 235.976667 3.397376 
L 236.284762 0.768426 
L 237.517143 4.678877 
L 238.749524 7.668076 
L 239.981905 9.941438 
L 240.29 10.417056 
L 240.598095 12.572779 
L 241.214286 13.194531 
L 241.522381 14.956194 
L 241.830476 15.144841 
L 242.138571 16.705789 
L 242.446667 16.80973 
L 242.754762 18.224453 
L 243.062857 18.262257 
L 243.679048 20.839992 
L 243.987143 20.797392 
L 244.603333 23.212543 
L 244.911429 23.126852 
L 245.835714 26.72287 
L 246.14381 26.636679 
L 247.684286 33.302736 
L 247.992381 33.302736 
L 249.224762 39.29306 
L 249.532857 39.29306 
L 250.765238 45.704222 
L 251.073333 45.704222 
L 251.997619 50.746303 
L 252.305714 50.746303 
L 252.921905 54.220533 
L 253.23 54.220533 
L 253.84619 57.778531 
L 254.154286 57.778531 
L 254.770476 61.361564 
L 255.078571 61.361564 
L 255.694762 64.890189 
L 256.002857 64.890189 
L 256.619048 68.271633 
L 256.927143 68.271633 
L 257.543333 71.405628 
L 257.851429 71.405628 
L 258.467619 74.19572 
L 258.775714 74.19572 
L 259.391905 76.560533 
L 259.7 76.560533 
L 260.31619 78.442786 
L 260.624286 78.442786 
L 261.240476 79.813991 
L 261.548571 80.273504 
L 261.856667 80.273504 
L 262.472857 80.863665 
L 263.089048 80.980617 
L 263.705238 80.927527 
L 264.013333 80.775363 
L 264.321429 80.775363 
L 264.937619 80.237198 
L 265.55381 79.508403 
L 265.861905 79.508403 
L 267.094286 77.602504 
L 267.402381 77.602504 
L 268.634762 75.464815 
L 268.942857 75.464815 
L 270.483333 72.90581 
L 270.791429 72.90581 
L 272.02381 71.131967 
L 272.331905 70.757497 
L 272.64 70.757497 
L 273.872381 69.393428 
L 274.180476 69.393428 
L 274.488571 73.373829 
L 274.796667 78.877157 
L 275.104762 86.614901 
L 275.412857 97.588211 
L 275.720952 113.054578 
L 276.029048 119.164128 
L 276.645238 175.032187 
L 277.261429 226.818914 
L 277.569524 231.373329 
L 277.877619 238.016989 
L 278.49381 204.828875 
L 278.801905 187.661379 
L 279.11 184.210065 
L 279.418095 133.518993 
L 279.72619 132.509844 
L 280.034286 135.420227 
L 281.266667 131.806878 
L 282.499048 128.964354 
L 283.731429 126.754947 
L 284.039524 124.251705 
L 284.655714 123.602387 
L 284.96381 121.568002 
L 285.271905 121.374418 
L 285.58 119.588849 
L 285.888095 119.486942 
L 286.19619 117.884278 
L 286.504286 117.854121 
L 286.812381 116.384348 
L 287.120476 116.410681 
L 287.736667 113.697764 
L 288.044762 113.789556 
L 288.969048 109.928421 
L 289.277143 110.046616 
L 290.201429 106.075024 
L 290.509524 106.144817 
L 292.05 98.607849 
L 292.358095 98.607849 
L 293.590476 92.043067 
L 293.898571 92.043067 
L 294.822857 86.858226 
L 295.130952 86.858226 
L 296.055238 81.50129 
L 296.363333 81.50129 
L 296.979524 77.863813 
L 297.287619 77.863582 
L 298.211905 72.463755 
L 298.52 72.463755 
L 299.13619 69.021305 
L 299.444286 69.021305 
L 300.060476 65.754131 
L 300.368571 65.754131 
L 300.984762 62.756533 
L 301.292857 62.756533 
L 301.909048 60.11615 
L 302.217143 60.11615 
L 302.833333 57.904008 
L 303.141429 57.904008 
L 303.757619 56.167199 
L 304.065714 56.167199 
L 304.681905 54.925717 
L 304.99 54.519496 
L 305.298095 54.519496 
L 305.914286 54.021625 
L 306.530476 53.939429 
L 307.146667 54.047023 
L 307.454762 54.216904 
L 307.762857 54.216904 
L 308.379048 54.777019 
L 308.995238 55.509672 
L 309.303333 55.509672 
L 310.535714 57.385501 
L 310.84381 57.385501 
L 312.07619 59.460977 
L 312.384286 59.460977 
L 313.924762 61.923867 
L 314.232857 61.923867 
L 315.465238 63.619742 
L 315.773333 63.976503 
L 316.081429 63.976503 
L 317.31381 65.27207 
L 320.086667 65.27207 
L 321.319048 65.819287 
L 322.859524 66.205998 
L 325.01619 66.498011 
L 325.324286 67.25 
L 326.248571 67.25 
L 326.248571 67.25 
" clip-path="url(#p068b329a20)" style="fill: none; stroke: #0000ff; stroke-width: 1.5; stroke-linecap: square"/>
   </g>
   <g id="line2d_32">
    <path d="M 220.88 67.25 
L 230.122857 67.25 
L 236.284762 30.908333 
L 247.068095 30.908333 
L 247.37619 31.891893 
L 247.684286 33.302736 
L 247.992381 33.302736 
L 249.224762 39.29306 
L 249.532857 39.29306 
L 250.765238 45.704222 
L 251.073333 45.704222 
L 251.997619 50.746303 
L 252.305714 50.746303 
L 252.921905 54.220533 
L 253.23 54.220533 
L 253.84619 57.778531 
L 254.154286 57.778531 
L 254.770476 61.361564 
L 255.078571 61.361564 
L 255.694762 64.890189 
L 256.002857 64.890189 
L 256.619048 68.271633 
L 256.927143 68.271633 
L 257.543333 71.405628 
L 257.851429 71.405628 
L 258.467619 74.19572 
L 258.775714 74.19572 
L 259.391905 76.560533 
L 259.7 76.560533 
L 260.31619 78.442786 
L 260.624286 78.442786 
L 261.240476 79.813991 
L 261.548571 80.273504 
L 261.856667 80.273504 
L 262.472857 80.863665 
L 263.089048 80.980617 
L 263.705238 80.927527 
L 264.013333 80.775363 
L 264.321429 80.775363 
L 264.937619 80.237198 
L 265.55381 79.508403 
L 265.861905 79.508403 
L 267.094286 77.602504 
L 267.402381 77.602504 
L 268.634762 75.464815 
L 268.942857 75.464815 
L 270.483333 72.90581 
L 270.791429 72.90581 
L 272.02381 71.131967 
L 272.331905 70.757497 
L 272.64 70.757497 
L 273.872381 69.393428 
L 274.180476 69.393428 
L 280.034286 103.591667 
L 290.817619 103.591667 
L 291.125714 103.238235 
L 292.05 98.607849 
L 292.358095 98.607849 
L 293.590476 92.043067 
L 293.898571 92.043067 
L 294.822857 86.858226 
L 295.130952 86.858226 
L 296.055238 81.50129 
L 296.363333 81.50129 
L 296.979524 77.867123 
L 297.287619 77.863582 
L 298.211905 72.463755 
L 298.52 72.463755 
L 299.13619 69.021305 
L 299.444286 69.021305 
L 300.060476 65.754131 
L 300.368571 65.754131 
L 300.984762 62.756533 
L 301.292857 62.756533 
L 301.909048 60.11615 
L 302.217143 60.11615 
L 302.833333 57.904008 
L 303.141429 57.904008 
L 303.757619 56.167199 
L 304.065714 56.167199 
L 304.681905 54.925717 
L 304.99 54.519496 
L 305.298095 54.519496 
L 305.914286 54.021625 
L 306.530476 53.939429 
L 307.146667 54.047023 
L 307.454762 54.216904 
L 307.762857 54.216904 
L 308.379048 54.777019 
L 308.995238 55.509672 
L 309.303333 55.509672 
L 310.535714 57.385501 
L 310.84381 57.385501 
L 312.07619 59.460977 
L 312.384286 59.460977 
L 313.924762 61.923867 
L 314.232857 61.923867 
L 315.465238 63.619742 
L 315.773333 63.976503 
L 316.081429 63.976503 
L 317.31381 65.27207 
L 320.086667 65.27207 
L 321.319048 65.819287 
L 322.859524 66.205998 
L 325.01619 66.498011 
L 325.324286 67.25 
L 326.248571 67.25 
L 326.248571 67.25 
" clip-path="url(#p068b329a20)" style="fill: none; stroke: #ff0000; stroke-width: 1.5; stroke-linecap: square"/>
   </g>
   <g id="patch_8">
    <path d="M 220.88 110.86 
L 220.88 23.64 
" style="fill: none; stroke: #000000; stroke-linejoin: miter; stroke-linecap: square"/>
   </g>
   <g id="patch_9">
    <path d="M 350.28 110.86 
L 350.28 23.64 
" style="fill: none; stroke: #000000; stroke-linejoin: miter; stroke-linecap: square"/>
   </g>
   <g id="patch_10">
    <path d="M 220.88 110.86 
L 350.28 110.86 
" style="fill: none; stroke: #000000; stroke-linejoin: miter; stroke-linecap: square"/>
   </g>
   <g id="patch_11">
    <path d="M 220.88 23.64 
L 350.28 23.64 
" style="fill: none; stroke: #000000; stroke-linejoin: miter; stroke-linecap: square"/>
   </g>
   <g id="text_18">
    <!-- Adaptive Pure Pursuit -->
    <g transform="translate(237.8845 17.64) scale(0.108 -0.108)">
     <defs>
      <path id="TimesNewRomanPSMT-41" d="M 2928 1419 
L 1288 1419 
L 1000 750 
Q 894 503 894 381 
Q 894 284 986 211 
Q 1078 138 1384 116 
L 1384 0 
L 50 0 
L 50 116 
Q 316 163 394 238 
Q 553 388 747 847 
L 2238 4334 
L 2347 4334 
L 3822 809 
Q 4000 384 4145 257 
Q 4291 131 4550 116 
L 4550 0 
L 2878 0 
L 2878 116 
Q 3131 128 3220 200 
Q 3309 272 3309 375 
Q 3309 513 3184 809 
L 2928 1419 
z
M 2841 1650 
L 2122 3363 
L 1384 1650 
L 2841 1650 
z
" transform="scale(0.015625)"/>
      <path id="TimesNewRomanPSMT-70" d="M -6 2578 
L 875 2934 
L 994 2934 
L 994 2266 
Q 1216 2644 1439 2795 
Q 1663 2947 1909 2947 
Q 2341 2947 2628 2609 
Q 2981 2197 2981 1534 
Q 2981 794 2556 309 
Q 2206 -88 1675 -88 
Q 1444 -88 1275 -22 
Q 1150 25 994 166 
L 994 -706 
Q 994 -1000 1030 -1079 
Q 1066 -1159 1155 -1206 
Q 1244 -1253 1478 -1253 
L 1478 -1369 
L -22 -1369 
L -22 -1253 
L 56 -1253 
Q 228 -1256 350 -1188 
Q 409 -1153 442 -1076 
Q 475 -1000 475 -688 
L 475 2019 
Q 475 2297 450 2372 
Q 425 2447 370 2484 
Q 316 2522 222 2522 
Q 147 2522 31 2478 
L -6 2578 
z
M 994 2081 
L 994 1013 
Q 994 666 1022 556 
Q 1066 375 1236 237 
Q 1406 100 1666 100 
Q 1978 100 2172 344 
Q 2425 663 2425 1241 
Q 2425 1897 2138 2250 
Q 1938 2494 1663 2494 
Q 1513 2494 1366 2419 
Q 1253 2363 994 2081 
z
" transform="scale(0.015625)"/>
     </defs>
     <use xlink:href="#TimesNewRomanPSMT-41"/>
     <use xlink:href="#TimesNewRomanPSMT-64" x="72.216797"/>
     <use xlink:href="#TimesNewRomanPSMT-61" x="122.216797"/>
     <use xlink:href="#TimesNewRomanPSMT-70" x="166.601562"/>
     <use xlink:href="#TimesNewRomanPSMT-74" x="216.601562"/>
     <use xlink:href="#TimesNewRomanPSMT-69" x="244.384766"/>
     <use xlink:href="#TimesNewRomanPSMT-76" x="272.167969"/>
     <use xlink:href="#TimesNewRomanPSMT-65" x="322.167969"/>
     <use xlink:href="#TimesNewRomanPSMT-20" x="366.552734"/>
     <use xlink:href="#TimesNewRomanPSMT-50" x="391.552734"/>
     <use xlink:href="#TimesNewRomanPSMT-75" x="447.167969"/>
     <use xlink:href="#TimesNewRomanPSMT-72" x="497.167969"/>
     <use xlink:href="#TimesNewRomanPSMT-65" x="530.46875"/>
     <use xlink:href="#TimesNewRomanPSMT-20" x="574.853516"/>
     <use xlink:href="#TimesNewRomanPSMT-50" x="599.853516"/>
     <use xlink:href="#TimesNewRomanPSMT-75" x="655.46875"/>
     <use xlink:href="#TimesNewRomanPSMT-72" x="705.46875"/>
     <use xlink:href="#TimesNewRomanPSMT-73" x="738.769531"/>
     <use xlink:href="#TimesNewRomanPSMT-75" x="777.685547"/>
     <use xlink:href="#TimesNewRomanPSMT-69" x="827.685547"/>
     <use xlink:href="#TimesNewRomanPSMT-74" x="855.46875"/>
    </g>
   </g>
  </g>
  <g id="axes_3">
   <g id="patch_12">
    <path d="M 45.74 250 
L 175.14 250 
L 175.14 162.78 
L 45.74 162.78 
z
" style="fill: #ffffff"/>
   </g>
   <g id="matplotlib.axis_5">
    <g id="xtick_7">
     <g id="line2d_33">
      <path d="M 45.74 250 
L 45.74 162.78 
" clip-path="url(#p9c0a867296)" style="fill: none; stroke: #b0b0b0; stroke-width: 0.8; stroke-linecap: square"/>
     </g>
     <g id="line2d_34">
      <g>
       <use xlink:href="#m293a477605" x="45.74" y="250" style="stroke: #000000; stroke-width: 0.8"/>
      </g>
     </g>
     <g id="text_19">
      <!-- 0 -->
      <g transform="translate(43.49 263.249375) scale(0.09 -0.09)">
       <use xlink:href="#TimesNewRomanPSMT-30"/>
      </g>
     </g>
    </g>
    <g id="xtick_8">
     <g id="line2d_35">
      <path d="M 107.359048 250 
L 107.359048 162.78 
" clip-path="url(#p9c0a867296)" style="fill: none; stroke: #b0b0b0; stroke-width: 0.8; stroke-linecap: square"/>
     </g>
     <g id="line2d_36">
      <g>
       <use xlink:href="#m293a477605" x="107.359048" y="250" style="stroke: #000000; stroke-width: 0.8"/>
      </g>
     </g>
     <g id="text_20">
      <!-- 10 -->
      <g transform="translate(102.859048 263.249375) scale(0.09 -0.09)">
       <use xlink:href="#TimesNewRomanPSMT-31"/>
       <use xlink:href="#TimesNewRomanPSMT-30" x="50"/>
      </g>
     </g>
    </g>
    <g id="xtick_9">
     <g id="line2d_37">
      <path d="M 168.978095 250 
L 168.978095 162.78 
" clip-path="url(#p9c0a867296)" style="fill: none; stroke: #b0b0b0; stroke-width: 0.8; stroke-linecap: square"/>
     </g>
     <g id="line2d_38">
      <g>
       <use xlink:href="#m293a477605" x="168.978095" y="250" style="stroke: #000000; stroke-width: 0.8"/>
      </g>
     </g>
     <g id="text_21">
      <!-- 20 -->
      <g transform="translate(164.478095 263.249375) scale(0.09 -0.09)">
       <use xlink:href="#TimesNewRomanPSMT-32"/>
       <use xlink:href="#TimesNewRomanPSMT-30" x="50"/>
      </g>
     </g>
    </g>
    <g id="text_22">
     <!-- time [s] -->
     <g transform="translate(96.56875 275.423906) scale(0.09 -0.09)">
      <use xlink:href="#TimesNewRomanPSMT-74"/>
      <use xlink:href="#TimesNewRomanPSMT-69" x="27.783203"/>
      <use xlink:href="#TimesNewRomanPSMT-6d" x="55.566406"/>
      <use xlink:href="#TimesNewRomanPSMT-65" x="133.349609"/>
      <use xlink:href="#TimesNewRomanPSMT-20" x="177.734375"/>
      <use xlink:href="#TimesNewRomanPSMT-5b" x="202.734375"/>
      <use xlink:href="#TimesNewRomanPSMT-73" x="236.035156"/>
      <use xlink:href="#TimesNewRomanPSMT-5d" x="274.951172"/>
     </g>
    </g>
   </g>
   <g id="matplotlib.axis_6">
    <g id="ytick_7">
     <g id="line2d_39">
      <path d="M 45.74 242.731667 
L 175.14 242.731667 
" clip-path="url(#p9c0a867296)" style="fill: none; stroke: #b0b0b0; stroke-width: 0.8; stroke-linecap: square"/>
     </g>
     <g id="line2d_40">
      <g>
       <use xlink:href="#m42bc676a4c" x="45.74" y="242.731667" style="stroke: #000000; stroke-width: 0.8"/>
      </g>
     </g>
     <g id="text_23">
      <!-- −1 -->
      <g transform="translate(29.164844 245.856354) scale(0.09 -0.09)">
       <use xlink:href="#TimesNewRomanPSMT-2212"/>
       <use xlink:href="#TimesNewRomanPSMT-31" x="56.396484"/>
      </g>
     </g>
    </g>
    <g id="ytick_8">
     <g id="line2d_41">
      <path d="M 45.74 206.39 
L 175.14 206.39 
" clip-path="url(#p9c0a867296)" style="fill: none; stroke: #b0b0b0; stroke-width: 0.8; stroke-linecap: square"/>
     </g>
     <g id="line2d_42">
      <g>
       <use xlink:href="#m42bc676a4c" x="45.74" y="206.39" style="stroke: #000000; stroke-width: 0.8"/>
      </g>
     </g>
     <g id="text_24">
      <!-- 0 -->
      <g transform="translate(34.24 209.514688) scale(0.09 -0.09)">
       <use xlink:href="#TimesNewRomanPSMT-30"/>
      </g>
     </g>
    </g>
    <g id="ytick_9">
     <g id="line2d_43">
      <path d="M 45.74 170.048333 
L 175.14 170.048333 
" clip-path="url(#p9c0a867296)" style="fill: none; stroke: #b0b0b0; stroke-width: 0.8; stroke-linecap: square"/>
     </g>
     <g id="line2d_44">
      <g>
       <use xlink:href="#m42bc676a4c" x="45.74" y="170.048333" style="stroke: #000000; stroke-width: 0.8"/>
      </g>
     </g>
     <g id="text_25">
      <!-- 1 -->
      <g transform="translate(34.24 173.173021) scale(0.09 -0.09)">
       <use xlink:href="#TimesNewRomanPSMT-31"/>
      </g>
     </g>
    </g>
    <g id="text_26">
     <!-- angular velocity [rad/s] -->
     <g transform="translate(23.222813 248.373594) rotate(-90) scale(0.09 -0.09)">
      <use xlink:href="#TimesNewRomanPSMT-61"/>
      <use xlink:href="#TimesNewRomanPSMT-6e" x="44.384766"/>
      <use xlink:href="#TimesNewRomanPSMT-67" x="94.384766"/>
      <use xlink:href="#TimesNewRomanPSMT-75" x="144.384766"/>
      <use xlink:href="#TimesNewRomanPSMT-6c" x="194.384766"/>
      <use xlink:href="#TimesNewRomanPSMT-61" x="222.167969"/>
      <use xlink:href="#TimesNewRomanPSMT-72" x="266.552734"/>
      <use xlink:href="#TimesNewRomanPSMT-20" x="299.853516"/>
      <use xlink:href="#TimesNewRomanPSMT-76" x="324.853516"/>
      <use xlink:href="#TimesNewRomanPSMT-65" x="374.853516"/>
      <use xlink:href="#TimesNewRomanPSMT-6c" x="419.238281"/>
      <use xlink:href="#TimesNewRomanPSMT-6f" x="447.021484"/>
      <use xlink:href="#TimesNewRomanPSMT-63" x="497.021484"/>
      <use xlink:href="#TimesNewRomanPSMT-69" x="541.40625"/>
      <use xlink:href="#TimesNewRomanPSMT-74" x="569.189453"/>
      <use xlink:href="#TimesNewRomanPSMT-79" x="596.972656"/>
      <use xlink:href="#TimesNewRomanPSMT-20" x="646.972656"/>
      <use xlink:href="#TimesNewRomanPSMT-5b" x="671.972656"/>
      <use xlink:href="#TimesNewRomanPSMT-72" x="705.273438"/>
      <use xlink:href="#TimesNewRomanPSMT-61" x="738.574219"/>
      <use xlink:href="#TimesNewRomanPSMT-64" x="782.958984"/>
      <use xlink:href="#TimesNewRomanPSMT-2f" x="832.958984"/>
      <use xlink:href="#TimesNewRomanPSMT-73" x="860.742188"/>
      <use xlink:href="#TimesNewRomanPSMT-5d" x="899.658203"/>
     </g>
    </g>
   </g>
   <g id="line2d_45">
    <path d="M 45.74 170.048333 
L 175.14 170.048333 
" clip-path="url(#p9c0a867296)" style="fill: none; stroke-dasharray: 5.55,2.4; stroke-dashoffset: 0; stroke: #000000; stroke-width: 1.5"/>
   </g>
   <g id="line2d_46">
    <path d="M 45.74 242.731667 
L 175.14 242.731667 
" clip-path="url(#p9c0a867296)" style="fill: none; stroke-dasharray: 5.55,2.4; stroke-dashoffset: 0; stroke: #000000; stroke-width: 1.5"/>
   </g>
   <g id="line2d_47">
    <path d="M 45.74 206.39 
L 54.982857 206.39 
L 55.290952 202.812728 
L 55.599048 197.857973 
L 55.907143 190.84883 
L 56.215238 189.394047 
L 56.523333 186.200185 
L 84.56 186.200185 
L 85.17619 197.155097 
L 86.100476 204.197979 
L 86.716667 208.09305 
L 87.024762 208.994211 
L 87.949048 213.379638 
L 88.257143 214.428441 
L 89.181429 216.302126 
L 89.797619 216.707372 
L 90.41381 216.462065 
L 91.03 216.023376 
L 91.338095 216.023376 
L 92.570476 214.707674 
L 92.878571 214.345097 
L 93.186667 214.345097 
L 94.419048 212.753748 
L 94.727143 212.753748 
L 96.267619 210.816786 
L 96.575714 210.816786 
L 97.808095 209.458848 
L 98.11619 209.170667 
L 98.424286 209.170667 
L 99.656667 208.116125 
L 99.964762 208.116125 
L 101.197143 207.296278 
L 101.505238 207.137138 
L 101.813333 207.137138 
L 103.045714 206.602145 
L 103.97 206.409482 
L 105.202381 206.195615 
L 106.742857 205.995663 
L 108.899524 205.940107 
L 109.207619 209.661416 
L 109.515714 214.854714 
L 109.82381 222.255286 
L 110.131905 226.579815 
L 110.44 225.413235 
L 110.748095 226.579815 
L 138.784762 226.579815 
L 139.400952 226.010441 
L 140.017143 214.325857 
L 140.325238 210.082249 
L 140.633333 209.087975 
L 141.557619 202.417516 
L 141.865714 201.358376 
L 142.79 196.413126 
L 143.40619 194.322005 
L 144.022381 192.763204 
L 144.638571 191.892385 
L 144.946667 191.876299 
L 145.254762 192.113956 
L 145.870952 193.004717 
L 146.179048 193.004717 
L 147.411429 195.218523 
L 147.719524 195.218523 
L 148.951905 197.619644 
L 149.26 197.619644 
L 150.492381 199.926289 
L 150.800476 200.435023 
L 151.108571 200.435023 
L 152.340952 202.358533 
L 152.649048 202.358533 
L 153.573333 203.589325 
L 154.189524 204.253002 
L 154.497619 204.253002 
L 155.421905 205.123511 
L 156.038095 205.57103 
L 156.34619 205.57103 
L 157.578571 206.272833 
L 157.886667 206.398887 
L 158.194762 206.398887 
L 159.427143 206.786921 
L 160.043333 206.855827 
L 161.275714 207.019984 
L 167.129524 206.922045 
L 169.594286 206.69873 
L 171.750952 206.580456 
L 172.059048 206.39 
L 172.983333 206.39 
L 172.983333 206.39 
" clip-path="url(#p9c0a867296)" style="fill: none; stroke: #0000ff; stroke-width: 1.5; stroke-linecap: square"/>
   </g>
   <g id="line2d_48">
    <path d="M 45.74 206.39 
L 54.982857 206.39 
L 58.371905 186.402083 
L 58.68 186.200185 
L 84.56 186.200185 
L 89.797619 216.707372 
L 90.41381 216.462065 
L 91.03 216.023376 
L 91.338095 216.023376 
L 92.570476 214.707674 
L 92.878571 214.345097 
L 93.186667 214.345097 
L 94.419048 212.753748 
L 94.727143 212.753748 
L 96.267619 210.816786 
L 96.575714 210.816786 
L 97.808095 209.458848 
L 98.11619 209.170667 
L 98.424286 209.170667 
L 99.656667 208.116125 
L 99.964762 208.116125 
L 101.197143 207.296278 
L 101.505238 207.137138 
L 101.813333 207.137138 
L 103.045714 206.602145 
L 103.97 206.409482 
L 105.202381 206.195615 
L 106.742857 205.995663 
L 108.899524 205.940107 
L 112.288571 225.928023 
L 112.596667 226.579815 
L 138.784762 226.579815 
L 139.400952 226.010441 
L 145.254762 192.113956 
L 145.870952 193.004717 
L 146.179048 193.004717 
L 147.411429 195.218523 
L 147.719524 195.218523 
L 148.951905 197.619644 
L 149.26 197.619644 
L 150.492381 199.926289 
L 150.800476 200.435023 
L 151.108571 200.435023 
L 152.340952 202.358533 
L 152.649048 202.358533 
L 153.573333 203.589325 
L 154.189524 204.253002 
L 154.497619 204.253002 
L 155.421905 205.123511 
L 156.038095 205.57103 
L 156.34619 205.57103 
L 157.578571 206.272833 
L 157.886667 206.398887 
L 158.194762 206.398887 
L 159.427143 206.786921 
L 160.043333 206.855827 
L 161.275714 207.019984 
L 167.129524 206.922045 
L 169.594286 206.69873 
L 171.750952 206.580456 
L 172.059048 206.39 
L 172.983333 206.39 
L 172.983333 206.39 
" clip-path="url(#p9c0a867296)" style="fill: none; stroke: #ff0000; stroke-width: 1.5; stroke-linecap: square"/>
   </g>
   <g id="patch_13">
    <path d="M 45.74 250 
L 45.74 162.78 
" style="fill: none; stroke: #000000; stroke-linejoin: miter; stroke-linecap: square"/>
   </g>
   <g id="patch_14">
    <path d="M 175.14 250 
L 175.14 162.78 
" style="fill: none; stroke: #000000; stroke-linejoin: miter; stroke-linecap: square"/>
   </g>
   <g id="patch_15">
    <path d="M 45.74 250 
L 175.14 250 
" style="fill: none; stroke: #000000; stroke-linejoin: miter; stroke-linecap: square"/>
   </g>
   <g id="patch_16">
    <path d="M 45.74 162.78 
L 175.14 162.78 
" style="fill: none; stroke: #000000; stroke-linejoin: miter; stroke-linecap: square"/>
   </g>
   <g id="text_27">
    <!-- Regulated Pure Pursuit -->
    <g transform="translate(60.64525 156.78) scale(0.108 -0.108)">
     <defs>
      <path id="TimesNewRomanPSMT-52" d="M 4325 0 
L 3194 0 
L 1759 1981 
Q 1600 1975 1500 1975 
Q 1459 1975 1412 1976 
Q 1366 1978 1316 1981 
L 1316 750 
Q 1316 350 1403 253 
Q 1522 116 1759 116 
L 1925 116 
L 1925 0 
L 109 0 
L 109 116 
L 269 116 
Q 538 116 653 291 
Q 719 388 719 750 
L 719 3488 
Q 719 3888 631 3984 
Q 509 4122 269 4122 
L 109 4122 
L 109 4238 
L 1653 4238 
Q 2328 4238 2648 4139 
Q 2969 4041 3192 3777 
Q 3416 3513 3416 3147 
Q 3416 2756 3161 2468 
Q 2906 2181 2372 2063 
L 3247 847 
Q 3547 428 3762 290 
Q 3978 153 4325 116 
L 4325 0 
z
M 1316 2178 
Q 1375 2178 1419 2176 
Q 1463 2175 1491 2175 
Q 2097 2175 2405 2437 
Q 2713 2700 2713 3106 
Q 2713 3503 2464 3751 
Q 2216 4000 1806 4000 
Q 1625 4000 1316 3941 
L 1316 2178 
z
" transform="scale(0.015625)"/>
     </defs>
     <use xlink:href="#TimesNewRomanPSMT-52"/>
     <use xlink:href="#TimesNewRomanPSMT-65" x="66.699219"/>
     <use xlink:href="#TimesNewRomanPSMT-67" x="111.083984"/>
     <use xlink:href="#TimesNewRomanPSMT-75" x="161.083984"/>
     <use xlink:href="#TimesNewRomanPSMT-6c" x="211.083984"/>
     <use xlink:href="#TimesNewRomanPSMT-61" x="238.867188"/>
     <use xlink:href="#TimesNewRomanPSMT-74" x="283.251953"/>
     <use xlink:href="#TimesNewRomanPSMT-65" x="311.035156"/>
     <use xlink:href="#TimesNewRomanPSMT-64" x="355.419922"/>
     <use xlink:href="#TimesNewRomanPSMT-20" x="405.419922"/>
     <use xlink:href="#TimesNewRomanPSMT-50" x="430.419922"/>
     <use xlink:href="#TimesNewRomanPSMT-75" x="486.035156"/>
     <use xlink:href="#TimesNewRomanPSMT-72" x="536.035156"/>
     <use xlink:href="#TimesNewRomanPSMT-65" x="569.335938"/>
     <use xlink:href="#TimesNewRomanPSMT-20" x="613.720703"/>
     <use xlink:href="#TimesNewRomanPSMT-50" x="638.720703"/>
     <use xlink:href="#TimesNewRomanPSMT-75" x="694.335938"/>
     <use xlink:href="#TimesNewRomanPSMT-72" x="744.335938"/>
     <use xlink:href="#TimesNewRomanPSMT-73" x="777.636719"/>
     <use xlink:href="#TimesNewRomanPSMT-75" x="816.552734"/>
     <use xlink:href="#TimesNewRomanPSMT-69" x="866.552734"/>
     <use xlink:href="#TimesNewRomanPSMT-74" x="894.335938"/>
    </g>
   </g>
  </g>
  <g id="axes_4">
   <g id="patch_17">
    <path d="M 220.88 250 
L 350.28 250 
L 350.28 162.78 
L 220.88 162.78 
z
" style="fill: #ffffff"/>
   </g>
   <g id="matplotlib.axis_7">
    <g id="xtick_10">
     <g id="line2d_49">
      <path d="M 220.88 250 
L 220.88 162.78 
" clip-path="url(#p917831b780)" style="fill: none; stroke: #b0b0b0; stroke-width: 0.8; stroke-linecap: square"/>
     </g>
     <g id="line2d_50">
      <g>
       <use xlink:href="#m293a477605" x="220.88" y="250" style="stroke: #000000; stroke-width: 0.8"/>
      </g>
     </g>
     <g id="text_28">
      <!-- 0 -->
      <g transform="translate(218.63 263.249375) scale(0.09 -0.09)">
       <use xlink:href="#TimesNewRomanPSMT-30"/>
      </g>
     </g>
    </g>
    <g id="xtick_11">
     <g id="line2d_51">
      <path d="M 282.499048 250 
L 282.499048 162.78 
" clip-path="url(#p917831b780)" style="fill: none; stroke: #b0b0b0; stroke-width: 0.8; stroke-linecap: square"/>
     </g>
     <g id="line2d_52">
      <g>
       <use xlink:href="#m293a477605" x="282.499048" y="250" style="stroke: #000000; stroke-width: 0.8"/>
      </g>
     </g>
     <g id="text_29">
      <!-- 10 -->
      <g transform="translate(277.999048 263.249375) scale(0.09 -0.09)">
       <use xlink:href="#TimesNewRomanPSMT-31"/>
       <use xlink:href="#TimesNewRomanPSMT-30" x="50"/>
      </g>
     </g>
    </g>
    <g id="xtick_12">
     <g id="line2d_53">
      <path d="M 344.118095 250 
L 344.118095 162.78 
" clip-path="url(#p917831b780)" style="fill: none; stroke: #b0b0b0; stroke-width: 0.8; stroke-linecap: square"/>
     </g>
     <g id="line2d_54">
      <g>
       <use xlink:href="#m293a477605" x="344.118095" y="250" style="stroke: #000000; stroke-width: 0.8"/>
      </g>
     </g>
     <g id="text_30">
      <!-- 20 -->
      <g transform="translate(339.618095 263.249375) scale(0.09 -0.09)">
       <use xlink:href="#TimesNewRomanPSMT-32"/>
       <use xlink:href="#TimesNewRomanPSMT-30" x="50"/>
      </g>
     </g>
    </g>
    <g id="text_31">
     <!-- time [s] -->
     <g transform="translate(271.70875 275.423906) scale(0.09 -0.09)">
      <use xlink:href="#TimesNewRomanPSMT-74"/>
      <use xlink:href="#TimesNewRomanPSMT-69" x="27.783203"/>
      <use xlink:href="#TimesNewRomanPSMT-6d" x="55.566406"/>
      <use xlink:href="#TimesNewRomanPSMT-65" x="133.349609"/>
      <use xlink:href="#TimesNewRomanPSMT-20" x="177.734375"/>
      <use xlink:href="#TimesNewRomanPSMT-5b" x="202.734375"/>
      <use xlink:href="#TimesNewRomanPSMT-73" x="236.035156"/>
      <use xlink:href="#TimesNewRomanPSMT-5d" x="274.951172"/>
     </g>
    </g>
   </g>
   <g id="matplotlib.axis_8">
    <g id="ytick_10">
     <g id="line2d_55">
      <path d="M 220.88 242.731667 
L 350.28 242.731667 
" clip-path="url(#p917831b780)" style="fill: none; stroke: #b0b0b0; stroke-width: 0.8; stroke-linecap: square"/>
     </g>
     <g id="line2d_56">
      <g>
       <use xlink:href="#m42bc676a4c" x="220.88" y="242.731667" style="stroke: #000000; stroke-width: 0.8"/>
      </g>
     </g>
     <g id="text_32">
      <!-- −1 -->
      <g transform="translate(204.304844 245.856354) scale(0.09 -0.09)">
       <use xlink:href="#TimesNewRomanPSMT-2212"/>
       <use xlink:href="#TimesNewRomanPSMT-31" x="56.396484"/>
      </g>
     </g>
    </g>
    <g id="ytick_11">
     <g id="line2d_57">
      <path d="M 220.88 206.39 
L 350.28 206.39 
" clip-path="url(#p917831b780)" style="fill: none; stroke: #b0b0b0; stroke-width: 0.8; stroke-linecap: square"/>
     </g>
     <g id="line2d_58">
      <g>
       <use xlink:href="#m42bc676a4c" x="220.88" y="206.39" style="stroke: #000000; stroke-width: 0.8"/>
      </g>
     </g>
     <g id="text_33">
      <!-- 0 -->
      <g transform="translate(209.38 209.514688) scale(0.09 -0.09)">
       <use xlink:href="#TimesNewRomanPSMT-30"/>
      </g>
     </g>
    </g>
    <g id="ytick_12">
     <g id="line2d_59">
      <path d="M 220.88 170.048333 
L 350.28 170.048333 
" clip-path="url(#p917831b780)" style="fill: none; stroke: #b0b0b0; stroke-width: 0.8; stroke-linecap: square"/>
     </g>
     <g id="line2d_60">
      <g>
       <use xlink:href="#m42bc676a4c" x="220.88" y="170.048333" style="stroke: #000000; stroke-width: 0.8"/>
      </g>
     </g>
     <g id="text_34">
      <!-- 1 -->
      <g transform="translate(209.38 173.173021) scale(0.09 -0.09)">
       <use xlink:href="#TimesNewRomanPSMT-31"/>
      </g>
     </g>
    </g>
    <g id="text_35">
     <!-- angular velocity [rad/s] -->
     <g transform="translate(198.362812 248.373594) rotate(-90) scale(0.09 -0.09)">
      <use xlink:href="#TimesNewRomanPSMT-61"/>
      <use xlink:href="#TimesNewRomanPSMT-6e" x="44.384766"/>
      <use xlink:href="#TimesNewRomanPSMT-67" x="94.384766"/>
      <use xlink:href="#TimesNewRomanPSMT-75" x="144.384766"/>
      <use xlink:href="#TimesNewRomanPSMT-6c" x="194.384766"/>
      <use xlink:href="#TimesNewRomanPSMT-61" x="222.167969"/>
      <use xlink:href="#TimesNewRomanPSMT-72" x="266.552734"/>
      <use xlink:href="#TimesNewRomanPSMT-20" x="299.853516"/>
      <use xlink:href="#TimesNewRomanPSMT-76" x="324.853516"/>
      <use xlink:href="#TimesNewRomanPSMT-65" x="374.853516"/>
      <use xlink:href="#TimesNewRomanPSMT-6c" x="419.238281"/>
      <use xlink:href="#TimesNewRomanPSMT-6f" x="447.021484"/>
      <use xlink:href="#TimesNewRomanPSMT-63" x="497.021484"/>
      <use xlink:href="#TimesNewRomanPSMT-69" x="541.40625"/>
      <use xlink:href="#TimesNewRomanPSMT-74" x="569.189453"/>
      <use xlink:href="#TimesNewRomanPSMT-79" x="596.972656"/>
      <use xlink:href="#TimesNewRomanPSMT-20" x="646.972656"/>
      <use xlink:href="#TimesNewRomanPSMT-5b" x="671.972656"/>
      <use xlink:href="#TimesNewRomanPSMT-72" x="705.273438"/>
      <use xlink:href="#TimesNewRomanPSMT-61" x="738.574219"/>
      <use xlink:href="#TimesNewRomanPSMT-64" x="782.958984"/>
      <use xlink:href="#TimesNewRomanPSMT-2f" x="832.958984"/>
      <use xlink:href="#TimesNewRomanPSMT-73" x="860.742188"/>
      <use xlink:href="#TimesNewRomanPSMT-5d" x="899.658203"/>
     </g>
    </g>
   </g>
   <g id="line2d_61">
    <path d="M 220.88 170.048333 
L 350.28 170.048333 
" clip-path="url(#p917831b780)" style="fill: none; stroke-dasharray: 5.55,2.4; stroke-dashoffset: 0; stroke: #000000; stroke-width: 1.5"/>
   </g>
   <g id="line2d_62">
    <path d="M 220.88 242.731667 
L 350.28 242.731667 
" clip-path="url(#p917831b780)" style="fill: none; stroke-dasharray: 5.55,2.4; stroke-dashoffset: 0; stroke: #000000; stroke-width: 1.5"/>
   </g>
   <g id="line2d_63">
    <path d="M 220.88 206.39 
L 230.122857 206.39 
L 236.284762 170.34425 
L 236.592857 170.048333 
L 239.365714 186.200185 
L 240.29 186.200185 
L 240.90619 189.834352 
L 241.522381 186.200185 
L 254.154286 186.200185 
L 254.462381 186.529175 
L 254.770476 186.200185 
L 255.078571 186.82975 
L 255.386667 186.200185 
L 255.694762 187.167912 
L 256.002857 186.200185 
L 256.310952 187.567177 
L 256.619048 186.360266 
L 260.008095 206.348183 
L 260.31619 207.047846 
L 260.624286 208.852837 
L 261.240476 210.051908 
L 261.856667 210.871046 
L 262.164762 211.162679 
L 262.472857 211.162679 
L 263.089048 211.589969 
L 263.705238 211.783495 
L 265.55381 211.680263 
L 266.78619 211.125193 
L 267.094286 210.95251 
L 267.402381 210.95251 
L 268.942857 209.944525 
L 269.250952 209.944525 
L 270.483333 209.111044 
L 270.791429 209.111044 
L 272.331905 208.170218 
L 272.64 208.170218 
L 274.180476 207.419509 
L 274.488571 207.419509 
L 276.029048 206.872968 
L 276.645238 206.783483 
L 277.877619 206.567391 
L 279.418095 206.323514 
L 280.958571 206.216042 
L 281.266667 208.033125 
L 281.574762 206.216042 
L 281.882857 206.022545 
L 286.504286 232.87228 
L 287.428571 227.42103 
L 287.736667 226.579815 
L 295.747143 226.579815 
L 296.363333 222.945648 
L 296.979524 226.579815 
L 307.454762 226.579815 
L 307.762857 226.233877 
L 308.070952 226.579815 
L 308.379048 225.940433 
L 308.687143 226.579815 
L 308.995238 225.60929 
L 309.303333 226.579815 
L 309.919524 223.807152 
L 310.227619 224.844851 
L 313.616667 204.892807 
L 314.232857 203.793878 
L 314.540952 203.370202 
L 314.849048 203.370202 
L 315.465238 202.672102 
L 316.081429 202.237243 
L 316.389524 202.237243 
L 317.005714 201.984834 
L 317.93 201.91855 
L 318.854286 202.029222 
L 320.702857 202.644697 
L 321.319048 202.958199 
L 321.627143 202.958199 
L 323.167619 203.81882 
L 323.475714 203.81882 
L 324.708095 204.483666 
L 325.01619 204.483666 
L 326.556667 205.201726 
L 326.864762 205.201726 
L 328.405238 205.751825 
L 329.021429 205.844922 
L 330.25381 206.136733 
L 330.87 206.198016 
L 332.718571 206.419718 
L 334.567143 206.519275 
L 342.577619 206.409391 
L 343.501905 206.39 
L 343.501905 206.39 
" clip-path="url(#p917831b780)" style="fill: none; stroke: #0000ff; stroke-width: 1.5; stroke-linecap: square"/>
   </g>
   <g id="line2d_64">
    <path d="M 220.88 206.39 
L 230.122857 206.39 
L 236.284762 170.34425 
L 236.592857 170.048333 
L 239.365714 186.200185 
L 240.29 186.200185 
L 240.90619 189.834352 
L 241.522381 186.200185 
L 254.154286 186.200185 
L 254.462381 186.529175 
L 254.770476 186.200185 
L 255.078571 186.82975 
L 255.386667 186.200185 
L 255.694762 187.167912 
L 256.002857 186.200185 
L 256.310952 187.567177 
L 256.619048 186.360266 
L 260.008095 206.348183 
L 260.31619 207.047846 
L 260.624286 208.852837 
L 261.240476 210.051908 
L 261.856667 210.871046 
L 262.164762 211.162679 
L 262.472857 211.162679 
L 263.089048 211.589969 
L 263.705238 211.783495 
L 265.55381 211.680263 
L 266.78619 211.125193 
L 267.094286 210.95251 
L 267.402381 210.95251 
L 268.942857 209.944525 
L 269.250952 209.944525 
L 270.483333 209.111044 
L 270.791429 209.111044 
L 272.331905 208.170218 
L 272.64 208.170218 
L 274.180476 207.419509 
L 274.488571 207.419509 
L 276.029048 206.872968 
L 276.645238 206.783483 
L 277.877619 206.567391 
L 279.418095 206.323514 
L 280.958571 206.216042 
L 281.266667 208.033125 
L 281.574762 206.216042 
L 281.882857 206.022545 
L 286.504286 232.87228 
L 287.428571 227.42103 
L 287.736667 226.579815 
L 295.747143 226.579815 
L 296.363333 222.945648 
L 296.979524 226.579815 
L 307.454762 226.579815 
L 307.762857 226.233877 
L 308.070952 226.579815 
L 308.379048 225.940433 
L 308.687143 226.579815 
L 308.995238 225.60929 
L 309.303333 226.579815 
L 309.919524 223.807152 
L 310.227619 224.844851 
L 313.616667 204.892807 
L 314.232857 203.793878 
L 314.540952 203.370202 
L 314.849048 203.370202 
L 315.465238 202.672102 
L 316.081429 202.237243 
L 316.389524 202.237243 
L 317.005714 201.984834 
L 317.93 201.91855 
L 318.854286 202.029222 
L 320.702857 202.644697 
L 321.319048 202.958199 
L 321.627143 202.958199 
L 323.167619 203.81882 
L 323.475714 203.81882 
L 324.708095 204.483666 
L 325.01619 204.483666 
L 326.556667 205.201726 
L 326.864762 205.201726 
L 328.405238 205.751825 
L 329.021429 205.844922 
L 330.25381 206.136733 
L 330.87 206.198016 
L 332.718571 206.419718 
L 334.567143 206.519275 
L 342.577619 206.409391 
L 343.501905 206.39 
L 343.501905 206.39 
" clip-path="url(#p917831b780)" style="fill: none; stroke: #ff0000; stroke-width: 1.5; stroke-linecap: square"/>
   </g>
   <g id="patch_18">
    <path d="M 220.88 250 
L 220.88 162.78 
" style="fill: none; stroke: #000000; stroke-linejoin: miter; stroke-linecap: square"/>
   </g>
   <g id="patch_19">
    <path d="M 350.28 250 
L 350.28 162.78 
" style="fill: none; stroke: #000000; stroke-linejoin: miter; stroke-linecap: square"/>
   </g>
   <g id="patch_20">
    <path d="M 220.88 250 
L 350.28 250 
" style="fill: none; stroke: #000000; stroke-linejoin: miter; stroke-linecap: square"/>
   </g>
   <g id="patch_21">
    <path d="M 220.88 162.78 
L 350.28 162.78 
" style="fill: none; stroke: #000000; stroke-linejoin: miter; stroke-linecap: square"/>
   </g>
   <g id="text_36">
    <!-- Dynamic Window Pure Pursuit -->
    <g transform="translate(218.247906 156.78) scale(0.108 -0.108)">
     <defs>
      <path id="TimesNewRomanPSMT-44" d="M 109 0 
L 109 116 
L 269 116 
Q 538 116 650 288 
Q 719 391 719 750 
L 719 3488 
Q 719 3884 631 3984 
Q 509 4122 269 4122 
L 109 4122 
L 109 4238 
L 1834 4238 
Q 2784 4238 3279 4022 
Q 3775 3806 4076 3303 
Q 4378 2800 4378 2141 
Q 4378 1256 3841 663 
Q 3238 0 2003 0 
L 109 0 
z
M 1319 306 
Q 1716 219 1984 219 
Q 2709 219 3187 728 
Q 3666 1238 3666 2109 
Q 3666 2988 3187 3494 
Q 2709 4000 1959 4000 
Q 1678 4000 1319 3909 
L 1319 306 
z
" transform="scale(0.015625)"/>
      <path id="TimesNewRomanPSMT-57" d="M 5991 4238 
L 5991 4122 
Q 5825 4122 5722 4062 
Q 5619 4003 5525 3841 
Q 5463 3731 5328 3319 
L 4147 -97 
L 4022 -97 
L 3056 2613 
L 2097 -97 
L 1984 -97 
L 725 3422 
Q 584 3816 547 3888 
Q 484 4006 376 4064 
Q 269 4122 84 4122 
L 84 4238 
L 1653 4238 
L 1653 4122 
L 1578 4122 
Q 1413 4122 1325 4047 
Q 1238 3972 1238 3866 
Q 1238 3756 1375 3363 
L 2209 984 
L 2913 3006 
L 2788 3363 
L 2688 3647 
Q 2622 3803 2541 3922 
Q 2500 3981 2441 4022 
Q 2363 4078 2284 4103 
Q 2225 4122 2097 4122 
L 2097 4238 
L 3747 4238 
L 3747 4122 
L 3634 4122 
Q 3459 4122 3378 4047 
Q 3297 3972 3297 3844 
Q 3297 3684 3438 3288 
L 4250 984 
L 5056 3319 
Q 5194 3706 5194 3856 
Q 5194 3928 5148 3990 
Q 5103 4053 5034 4078 
Q 4916 4122 4725 4122 
L 4725 4238 
L 5991 4238 
z
" transform="scale(0.015625)"/>
      <path id="TimesNewRomanPSMT-77" d="M 41 2863 
L 1241 2863 
L 1241 2747 
Q 1075 2734 1023 2687 
Q 972 2641 972 2553 
Q 972 2456 1025 2319 
L 1638 672 
L 2253 2013 
L 2091 2434 
Q 2016 2622 1894 2694 
Q 1825 2738 1638 2747 
L 1638 2863 
L 3000 2863 
L 3000 2747 
Q 2775 2738 2681 2666 
Q 2619 2616 2619 2506 
Q 2619 2444 2644 2378 
L 3294 734 
L 3897 2319 
Q 3959 2488 3959 2588 
Q 3959 2647 3898 2694 
Q 3838 2741 3659 2747 
L 3659 2863 
L 4563 2863 
L 4563 2747 
Q 4291 2706 4163 2378 
L 3206 -88 
L 3078 -88 
L 2363 1741 
L 1528 -88 
L 1413 -88 
L 494 2319 
Q 403 2547 315 2626 
Q 228 2706 41 2747 
L 41 2863 
z
" transform="scale(0.015625)"/>
     </defs>
     <use xlink:href="#TimesNewRomanPSMT-44"/>
     <use xlink:href="#TimesNewRomanPSMT-79" x="72.216797"/>
     <use xlink:href="#TimesNewRomanPSMT-6e" x="122.216797"/>
     <use xlink:href="#TimesNewRomanPSMT-61" x="172.216797"/>
     <use xlink:href="#TimesNewRomanPSMT-6d" x="216.601562"/>
     <use xlink:href="#TimesNewRomanPSMT-69" x="294.384766"/>
     <use xlink:href="#TimesNewRomanPSMT-63" x="322.167969"/>
     <use xlink:href="#TimesNewRomanPSMT-20" x="366.552734"/>
     <use xlink:href="#TimesNewRomanPSMT-57" x="389.802734"/>
     <use xlink:href="#TimesNewRomanPSMT-69" x="480.1875"/>
     <use xlink:href="#TimesNewRomanPSMT-6e" x="507.970703"/>
     <use xlink:href="#TimesNewRomanPSMT-64" x="557.970703"/>
     <use xlink:href="#TimesNewRomanPSMT-6f" x="607.970703"/>
     <use xlink:href="#TimesNewRomanPSMT-77" x="657.970703"/>
     <use xlink:href="#TimesNewRomanPSMT-20" x="730.1875"/>
     <use xlink:href="#TimesNewRomanPSMT-50" x="755.1875"/>
     <use xlink:href="#TimesNewRomanPSMT-75" x="810.802734"/>
     <use xlink:href="#TimesNewRomanPSMT-72" x="860.802734"/>
     <use xlink:href="#TimesNewRomanPSMT-65" x="894.103516"/>
     <use xlink:href="#TimesNewRomanPSMT-20" x="938.488281"/>
     <use xlink:href="#TimesNewRomanPSMT-50" x="963.488281"/>
     <use xlink:href="#TimesNewRomanPSMT-75" x="1019.103516"/>
     <use xlink:href="#TimesNewRomanPSMT-72" x="1069.103516"/>
     <use xlink:href="#TimesNewRomanPSMT-73" x="1102.404297"/>
     <use xlink:href="#TimesNewRomanPSMT-75" x="1141.320312"/>
     <use xlink:href="#TimesNewRomanPSMT-69" x="1191.320312"/>
     <use xlink:href="#TimesNewRomanPSMT-74" x="1219.103516"/>
    </g>
   </g>
  </g>
  <g id="legend_1">
   <g id="patch_22">
    <path d="M 143.1 326.7 
L 216.9 326.7 
Q 218.7 326.7 218.7 324.9 
L 218.7 312.48 
Q 218.7 310.68 216.9 310.68 
L 143.1 310.68 
Q 141.3 310.68 141.3 312.48 
L 141.3 324.9 
Q 141.3 326.7 143.1 326.7 
z
" style="fill: #ffffff; opacity: 0.8; stroke: #000000; stroke-linejoin: miter"/>
   </g>
   <g id="line2d_65">
    <path style="fill: none; stroke: #0000ff; stroke-width: 1.5; stroke-linecap: square"/>
   </g>
   <g id="text_37">
    <!-- $\omega_{ref}$ -->
    <g transform="translate(161.1 320.58) scale(0.09 -0.09)">
     <defs>
      <path id="STIXGeneral-Italic-3c9" d="M 3021 2810 
L 3136 2810 
Q 3648 2810 3898 2598 
Q 4186 2355 4186 1824 
Q 4186 1357 3910 838 
Q 3667 390 3334 160 
Q 3002 -70 2669 -70 
Q 2438 -70 2281 3 
Q 2125 77 2064 160 
Q 2003 243 1939 384 
Q 1741 147 1533 38 
Q 1325 -70 998 -70 
Q 659 -70 416 160 
Q 173 390 173 832 
Q 173 1101 237 1350 
Q 403 1965 883 2387 
Q 1363 2810 2010 2810 
L 2125 2810 
L 2125 2707 
Q 1606 2707 1267 2291 
Q 1024 1990 867 1526 
Q 710 1062 710 666 
Q 710 64 1075 64 
Q 1286 64 1523 285 
Q 1760 506 1856 774 
Q 1837 915 1837 1101 
Q 1837 1363 1914 1651 
Q 1984 1920 2125 2105 
Q 2266 2291 2432 2291 
Q 2656 2291 2656 1997 
Q 2656 1530 2387 1062 
Q 2272 864 2189 736 
Q 2176 691 2176 602 
Q 2176 384 2288 224 
Q 2400 64 2592 64 
Q 3040 64 3341 627 
Q 3482 896 3565 1270 
Q 3648 1645 3648 1971 
Q 3648 2240 3616 2362 
Q 3565 2566 3411 2636 
Q 3258 2707 3021 2707 
L 3021 2810 
z
" transform="scale(0.015625)"/>
      <path id="STIXGeneral-Italic-72" d="M 1126 1427 
L 1229 1651 
Q 1446 2131 1830 2534 
Q 2106 2822 2336 2822 
Q 2470 2822 2553 2732 
Q 2637 2643 2637 2496 
Q 2637 2349 2557 2249 
Q 2477 2150 2336 2150 
Q 2214 2150 2112 2317 
Q 2061 2406 2010 2406 
Q 1837 2406 1485 1805 
Q 1267 1434 1136 1104 
Q 1005 774 774 0 
L 288 0 
L 806 1869 
Q 909 2246 909 2394 
Q 909 2560 666 2560 
Q 614 2560 467 2541 
L 467 2650 
L 1459 2822 
L 1478 2810 
L 1126 1427 
z
" transform="scale(0.015625)"/>
      <path id="STIXGeneral-Italic-65" d="M 2291 698 
L 2368 621 
Q 1805 -70 1062 -70 
Q 672 -70 435 170 
Q 198 410 198 806 
Q 198 1555 796 2188 
Q 1395 2822 2112 2822 
Q 2362 2822 2499 2707 
Q 2637 2592 2637 2387 
Q 2637 1965 2147 1632 
Q 1658 1299 819 1190 
Q 755 1062 755 800 
Q 755 538 918 378 
Q 1082 218 1350 218 
Q 1562 218 1754 317 
Q 1946 416 2291 698 
z
M 973 1613 
L 864 1331 
Q 1581 1504 1894 1805 
Q 2214 2112 2214 2426 
Q 2214 2675 1990 2675 
Q 1722 2675 1430 2364 
Q 1139 2054 973 1613 
z
" transform="scale(0.015625)"/>
      <path id="STIXGeneral-Italic-66" d="M 262 2739 
L 858 2739 
Q 1107 3546 1318 3846 
Q 1664 4339 2163 4339 
Q 2400 4339 2557 4227 
Q 2714 4115 2714 3942 
Q 2714 3834 2634 3750 
Q 2554 3667 2445 3667 
Q 2355 3667 2281 3737 
Q 2208 3808 2208 3917 
Q 2208 3981 2240 4038 
Q 2272 4096 2272 4115 
Q 2272 4198 2131 4198 
Q 1862 4198 1676 3849 
Q 1491 3501 1350 2739 
L 2035 2739 
L 1997 2534 
L 1306 2534 
L 845 486 
Q 435 -1325 -435 -1325 
Q -653 -1325 -797 -1213 
Q -941 -1101 -941 -934 
Q -941 -826 -870 -746 
Q -800 -666 -698 -666 
Q -589 -666 -521 -733 
Q -454 -800 -454 -902 
Q -454 -947 -483 -1001 
Q -512 -1056 -512 -1088 
Q -512 -1190 -384 -1190 
Q 13 -1190 237 -154 
L 800 2534 
L 218 2534 
L 262 2739 
z
" transform="scale(0.015625)"/>
     </defs>
     <use xlink:href="#STIXGeneral-Italic-3c9" transform="translate(0 0.09375)"/>
     <use xlink:href="#STIXGeneral-Italic-72" transform="translate(68.599991 -13.134375) scale(0.7)"/>
     <use xlink:href="#STIXGeneral-Italic-65" transform="translate(95.829987 -13.134375) scale(0.7)"/>
     <use xlink:href="#STIXGeneral-Italic-66" transform="translate(126.909982 -13.134375) scale(0.7)"/>
    </g>
   </g>
   <g id="line2d_66">
    <path style="fill: none; stroke: #ff0000; stroke-width: 1.5; stroke-linecap: square"/>
   </g>
   <g id="text_38">
    <!-- $\omega$ -->
    <g transform="translate(208.89 320.58) scale(0.09 -0.09)">
     <use xlink:href="#STIXGeneral-Italic-3c9" transform="translate(0 0.09375)"/>
    </g>
   </g>
  </g>
 </g>
 <defs>
  <clipPath id="p6619fb1ab5">
   <rect x="45.74" y="23.64" width="129.4" height="87.22"/>
  </clipPath>
  <clipPath id="p068b329a20">
   <rect x="220.88" y="23.64" width="129.4" height="87.22"/>
  </clipPath>
  <clipPath id="p9c0a867296">
   <rect x="45.74" y="162.78" width="129.4" height="87.22"/>
  </clipPath>
  <clipPath id="p917831b780">
   <rect x="220.88" y="162.78" width="129.4" height="87.22"/>
  </clipPath>
 </defs>
</svg>
