<?xml version="1.0" encoding="utf-8" standalone="no"?>
<!DOCTYPE svg PUBLIC "-//W3C//DTD SVG 1.1//EN"
  "http://www.w3.org/Graphics/SVG/1.1/DTD/svg11.dtd">
<svg xmlns:xlink="http://www.w3.org/1999/xlink" width="360pt" height="144pt" viewBox="0 0 360 144" xmlns="http://www.w3.org/2000/svg" version="1.1">
 <metadata>
  <rdf:RDF xmlns:dc="http://purl.org/dc/elements/1.1/" xmlns:cc="http://creativecommons.org/ns#" xmlns:rdf="http://www.w3.org/1999/02/22-rdf-syntax-ns#">
   <cc:Work>
    <dc:type rdf:resource="http://purl.org/dc/dcmitype/StillImage"/>
    <dc:date>2025-03-06T03:23:45.993719</dc:date>
    <dc:format>image/svg+xml</dc:format>
    <dc:creator>
     <cc:Agent>
      <dc:title>Matplotlib v3.9.2, https://matplotlib.org/</dc:title>
     </cc:Agent>
    </dc:creator>
   </cc:Work>
  </rdf:RDF>
 </metadata>
 <defs>
  <style type="text/css">*{stroke-linejoin: round; stroke-linecap: butt}</style>
 </defs>
 <g id="figure_1">
  <g id="patch_1">
   <path d="M 0 144 
L 360 144 
L 360 0 
L 0 0 
z
" style="fill: #ffffff"/>
  </g>
  <g id="axes_1">
   <g id="patch_2">
    <path d="M 43.67 103.12 
L 170.46 103.12 
L 170.46 9.72 
L 43.67 9.72 
z
" style="fill: #ffffff"/>
   </g>
   <g id="matplotlib.axis_1">
    <g id="xtick_1">
     <g id="line2d_1">
      <path d="M 43.67 103.12 
L 43.67 9.72 
" clip-path="url(#pcddef508fa)" style="fill: none; stroke: #b0b0b0; stroke-width: 0.8; stroke-linecap: square"/>
     </g>
     <g id="line2d_2">
      <defs>
       <path id="mfc3e8b9c35" d="M 0 0 
L 0 3.5 
" style="stroke: #000000; stroke-width: 0.8"/>
      </defs>
      <g>
       <use xlink:href="#mfc3e8b9c35" x="43.67" y="103.12" style="stroke: #000000; stroke-width: 0.8"/>
      </g>
     </g>
     <g id="text_1">
      <!-- 0 -->
      <g transform="translate(41.42 116.369375) scale(0.09 -0.09)">
       <defs>
        <path id="TimesNewRomanPSMT-30" d="M 231 2094 
Q 231 2819 450 3342 
Q 669 3866 1031 4122 
Q 1313 4325 1613 4325 
Q 2100 4325 2488 3828 
Q 2972 3213 2972 2159 
Q 2972 1422 2759 906 
Q 2547 391 2217 158 
Q 1888 -75 1581 -75 
Q 975 -75 572 641 
Q 231 1244 231 2094 
z
M 844 2016 
Q 844 1141 1059 588 
Q 1238 122 1591 122 
Q 1759 122 1940 273 
Q 2122 425 2216 781 
Q 2359 1319 2359 2297 
Q 2359 3022 2209 3506 
Q 2097 3866 1919 4016 
Q 1791 4119 1609 4119 
Q 1397 4119 1231 3928 
Q 1006 3669 925 3112 
Q 844 2556 844 2016 
z
" transform="scale(0.015625)"/>
       </defs>
       <use xlink:href="#TimesNewRomanPSMT-30"/>
      </g>
     </g>
    </g>
    <g id="xtick_2">
     <g id="line2d_3">
      <path d="M 85.933333 103.12 
L 85.933333 9.72 
" clip-path="url(#pcddef508fa)" style="fill: none; stroke: #b0b0b0; stroke-width: 0.8; stroke-linecap: square"/>
     </g>
     <g id="line2d_4">
      <g>
       <use xlink:href="#mfc3e8b9c35" x="85.933333" y="103.12" style="stroke: #000000; stroke-width: 0.8"/>
      </g>
     </g>
     <g id="text_2">
      <!-- 1 -->
      <g transform="translate(83.683333 116.369375) scale(0.09 -0.09)">
       <defs>
        <path id="TimesNewRomanPSMT-31" d="M 750 3822 
L 1781 4325 
L 1884 4325 
L 1884 747 
Q 1884 391 1914 303 
Q 1944 216 2037 169 
Q 2131 122 2419 116 
L 2419 0 
L 825 0 
L 825 116 
Q 1125 122 1212 167 
Q 1300 213 1334 289 
Q 1369 366 1369 747 
L 1369 3034 
Q 1369 3497 1338 3628 
Q 1316 3728 1258 3775 
Q 1200 3822 1119 3822 
Q 1003 3822 797 3725 
L 750 3822 
z
" transform="scale(0.015625)"/>
       </defs>
       <use xlink:href="#TimesNewRomanPSMT-31"/>
      </g>
     </g>
    </g>
    <g id="xtick_3">
     <g id="line2d_5">
      <path d="M 128.196667 103.12 
L 128.196667 9.72 
" clip-path="url(#pcddef508fa)" style="fill: none; stroke: #b0b0b0; stroke-width: 0.8; stroke-linecap: square"/>
     </g>
     <g id="line2d_6">
      <g>
       <use xlink:href="#mfc3e8b9c35" x="128.196667" y="103.12" style="stroke: #000000; stroke-width: 0.8"/>
      </g>
     </g>
     <g id="text_3">
      <!-- 2 -->
      <g transform="translate(125.946667 116.369375) scale(0.09 -0.09)">
       <defs>
        <path id="TimesNewRomanPSMT-32" d="M 2934 816 
L 2638 0 
L 138 0 
L 138 116 
Q 1241 1122 1691 1759 
Q 2141 2397 2141 2925 
Q 2141 3328 1894 3587 
Q 1647 3847 1303 3847 
Q 991 3847 742 3664 
Q 494 3481 375 3128 
L 259 3128 
Q 338 3706 661 4015 
Q 984 4325 1469 4325 
Q 1984 4325 2329 3994 
Q 2675 3663 2675 3213 
Q 2675 2891 2525 2569 
Q 2294 2063 1775 1497 
Q 997 647 803 472 
L 1909 472 
Q 2247 472 2383 497 
Q 2519 522 2628 598 
Q 2738 675 2819 816 
L 2934 816 
z
" transform="scale(0.015625)"/>
       </defs>
       <use xlink:href="#TimesNewRomanPSMT-32"/>
      </g>
     </g>
    </g>
    <g id="xtick_4">
     <g id="line2d_7">
      <path d="M 170.46 103.12 
L 170.46 9.72 
" clip-path="url(#pcddef508fa)" style="fill: none; stroke: #b0b0b0; stroke-width: 0.8; stroke-linecap: square"/>
     </g>
     <g id="line2d_8">
      <g>
       <use xlink:href="#mfc3e8b9c35" x="170.46" y="103.12" style="stroke: #000000; stroke-width: 0.8"/>
      </g>
     </g>
     <g id="text_4">
      <!-- 3 -->
      <g transform="translate(168.21 116.369375) scale(0.09 -0.09)">
       <defs>
        <path id="TimesNewRomanPSMT-33" d="M 325 3431 
Q 506 3859 782 4092 
Q 1059 4325 1472 4325 
Q 1981 4325 2253 3994 
Q 2459 3747 2459 3466 
Q 2459 3003 1878 2509 
Q 2269 2356 2469 2072 
Q 2669 1788 2669 1403 
Q 2669 853 2319 450 
Q 1863 -75 997 -75 
Q 569 -75 414 31 
Q 259 138 259 259 
Q 259 350 332 419 
Q 406 488 509 488 
Q 588 488 669 463 
Q 722 447 909 348 
Q 1097 250 1169 231 
Q 1284 197 1416 197 
Q 1734 197 1970 444 
Q 2206 691 2206 1028 
Q 2206 1275 2097 1509 
Q 2016 1684 1919 1775 
Q 1784 1900 1550 2001 
Q 1316 2103 1072 2103 
L 972 2103 
L 972 2197 
Q 1219 2228 1467 2375 
Q 1716 2522 1828 2728 
Q 1941 2934 1941 3181 
Q 1941 3503 1739 3701 
Q 1538 3900 1238 3900 
Q 753 3900 428 3381 
L 325 3431 
z
" transform="scale(0.015625)"/>
       </defs>
       <use xlink:href="#TimesNewRomanPSMT-33"/>
      </g>
     </g>
    </g>
    <g id="text_5">
     <!-- $t$ [s] -->
     <g transform="translate(99.91 128.543906) scale(0.09 -0.09)">
      <defs>
       <path id="STIXGeneral-Italic-74" d="M 1894 2739 
L 1862 2534 
L 1325 2534 
L 768 435 
Q 755 384 755 346 
Q 755 243 851 243 
Q 928 243 1030 342 
Q 1133 442 1370 749 
L 1453 704 
Q 1158 256 969 93 
Q 781 -70 538 -70 
Q 243 -70 243 166 
Q 243 230 346 640 
L 845 2534 
L 365 2534 
L 358 2573 
Q 358 2688 570 2733 
Q 730 2771 992 2979 
Q 1254 3187 1421 3437 
Q 1459 3494 1510 3494 
Q 1568 3494 1568 3443 
Q 1568 3411 1562 3398 
L 1382 2739 
L 1894 2739 
z
" transform="scale(0.015625)"/>
       <path id="TimesNewRomanPSMT-20" transform="scale(0.015625)"/>
       <path id="TimesNewRomanPSMT-5b" d="M 1900 -1269 
L 525 -1269 
L 525 4334 
L 1900 4334 
L 1900 4088 
L 994 4088 
L 994 -1025 
L 1900 -1025 
L 1900 -1269 
z
" transform="scale(0.015625)"/>
       <path id="TimesNewRomanPSMT-73" d="M 2050 2947 
L 2050 1972 
L 1947 1972 
Q 1828 2431 1642 2597 
Q 1456 2763 1169 2763 
Q 950 2763 815 2647 
Q 681 2531 681 2391 
Q 681 2216 781 2091 
Q 878 1963 1175 1819 
L 1631 1597 
Q 2266 1288 2266 781 
Q 2266 391 1970 151 
Q 1675 -88 1309 -88 
Q 1047 -88 709 6 
Q 606 38 541 38 
Q 469 38 428 -44 
L 325 -44 
L 325 978 
L 428 978 
Q 516 541 762 319 
Q 1009 97 1316 97 
Q 1531 97 1667 223 
Q 1803 350 1803 528 
Q 1803 744 1651 891 
Q 1500 1038 1047 1263 
Q 594 1488 453 1669 
Q 313 1847 313 2119 
Q 313 2472 555 2709 
Q 797 2947 1181 2947 
Q 1350 2947 1591 2875 
Q 1750 2828 1803 2828 
Q 1853 2828 1881 2850 
Q 1909 2872 1947 2947 
L 2050 2947 
z
" transform="scale(0.015625)"/>
       <path id="TimesNewRomanPSMT-5d" d="M 234 4334 
L 1609 4334 
L 1609 -1272 
L 234 -1272 
L 234 -1025 
L 1141 -1025 
L 1141 4088 
L 234 4088 
L 234 4334 
z
" transform="scale(0.015625)"/>
      </defs>
      <use xlink:href="#STIXGeneral-Italic-74" transform="translate(0 0.28125)"/>
      <use xlink:href="#TimesNewRomanPSMT-20" transform="translate(27.799988 0.28125)"/>
      <use xlink:href="#TimesNewRomanPSMT-5b" transform="translate(52.799988 0.28125)"/>
      <use xlink:href="#TimesNewRomanPSMT-73" transform="translate(86.100769 0.28125)"/>
      <use xlink:href="#TimesNewRomanPSMT-5d" transform="translate(125.016785 0.28125)"/>
     </g>
    </g>
   </g>
   <g id="matplotlib.axis_2">
    <g id="ytick_1">
     <g id="line2d_9">
      <path d="M 43.67 98.874545 
L 170.46 98.874545 
" clip-path="url(#pcddef508fa)" style="fill: none; stroke: #b0b0b0; stroke-width: 0.8; stroke-linecap: square"/>
     </g>
     <g id="line2d_10">
      <defs>
       <path id="md43eef2e87" d="M 0 0 
L -3.5 0 
" style="stroke: #000000; stroke-width: 0.8"/>
      </defs>
      <g>
       <use xlink:href="#md43eef2e87" x="43.67" y="98.874545" style="stroke: #000000; stroke-width: 0.8"/>
      </g>
     </g>
     <g id="text_6">
      <!-- 0.0 -->
      <g transform="translate(25.42 101.999233) scale(0.09 -0.09)">
       <defs>
        <path id="TimesNewRomanPSMT-2e" d="M 800 606 
Q 947 606 1047 504 
Q 1147 403 1147 259 
Q 1147 116 1045 14 
Q 944 -88 800 -88 
Q 656 -88 554 14 
Q 453 116 453 259 
Q 453 406 554 506 
Q 656 606 800 606 
z
" transform="scale(0.015625)"/>
       </defs>
       <use xlink:href="#TimesNewRomanPSMT-30"/>
       <use xlink:href="#TimesNewRomanPSMT-2e" x="50"/>
       <use xlink:href="#TimesNewRomanPSMT-30" x="75"/>
      </g>
     </g>
    </g>
    <g id="ytick_2">
     <g id="line2d_11">
      <path d="M 43.67 64.910909 
L 170.46 64.910909 
" clip-path="url(#pcddef508fa)" style="fill: none; stroke: #b0b0b0; stroke-width: 0.8; stroke-linecap: square"/>
     </g>
     <g id="line2d_12">
      <g>
       <use xlink:href="#md43eef2e87" x="43.67" y="64.910909" style="stroke: #000000; stroke-width: 0.8"/>
      </g>
     </g>
     <g id="text_7">
      <!-- 0.2 -->
      <g transform="translate(25.42 68.035597) scale(0.09 -0.09)">
       <use xlink:href="#TimesNewRomanPSMT-30"/>
       <use xlink:href="#TimesNewRomanPSMT-2e" x="50"/>
       <use xlink:href="#TimesNewRomanPSMT-32" x="75"/>
      </g>
     </g>
    </g>
    <g id="ytick_3">
     <g id="line2d_13">
      <path d="M 43.67 30.947273 
L 170.46 30.947273 
" clip-path="url(#pcddef508fa)" style="fill: none; stroke: #b0b0b0; stroke-width: 0.8; stroke-linecap: square"/>
     </g>
     <g id="line2d_14">
      <g>
       <use xlink:href="#md43eef2e87" x="43.67" y="30.947273" style="stroke: #000000; stroke-width: 0.8"/>
      </g>
     </g>
     <g id="text_8">
      <!-- 0.4 -->
      <g transform="translate(25.42 34.07196) scale(0.09 -0.09)">
       <defs>
        <path id="TimesNewRomanPSMT-34" d="M 2978 1563 
L 2978 1119 
L 2409 1119 
L 2409 0 
L 1894 0 
L 1894 1119 
L 100 1119 
L 100 1519 
L 2066 4325 
L 2409 4325 
L 2409 1563 
L 2978 1563 
z
M 1894 1563 
L 1894 3666 
L 406 1563 
L 1894 1563 
z
" transform="scale(0.015625)"/>
       </defs>
       <use xlink:href="#TimesNewRomanPSMT-30"/>
       <use xlink:href="#TimesNewRomanPSMT-2e" x="50"/>
       <use xlink:href="#TimesNewRomanPSMT-34" x="75"/>
      </g>
     </g>
    </g>
    <g id="text_9">
     <!-- $v$ [m/s] -->
     <g transform="translate(19.494844 69.065) rotate(-90) scale(0.09 -0.09)">
      <defs>
       <path id="STIXGeneral-Italic-76" d="M 1325 448 
L 1523 653 
Q 1869 1005 2134 1456 
Q 2400 1907 2400 2131 
Q 2400 2208 2285 2317 
Q 2125 2458 2125 2605 
Q 2125 2701 2195 2761 
Q 2266 2822 2368 2822 
Q 2522 2822 2624 2704 
Q 2726 2586 2726 2445 
Q 2726 2074 2323 1453 
Q 1971 909 1562 474 
Q 1504 416 1421 326 
Q 1338 237 1299 192 
Q 1261 147 1200 86 
Q 1139 26 1110 -3 
Q 1082 -32 1043 -64 
Q 1005 -96 979 -105 
Q 954 -115 928 -115 
Q 870 -115 870 58 
L 870 211 
Q 870 1094 717 1990 
Q 653 2355 579 2470 
Q 506 2586 326 2586 
Q 198 2586 128 2579 
L 128 2662 
Q 480 2720 845 2797 
Q 915 2822 973 2822 
Q 1011 2822 1033 2739 
Q 1056 2656 1165 2093 
Q 1280 1510 1325 448 
z
" transform="scale(0.015625)"/>
       <path id="TimesNewRomanPSMT-6d" d="M 1050 2338 
Q 1363 2650 1419 2697 
Q 1559 2816 1721 2881 
Q 1884 2947 2044 2947 
Q 2313 2947 2506 2790 
Q 2700 2634 2766 2338 
Q 3088 2713 3309 2830 
Q 3531 2947 3766 2947 
Q 3994 2947 4170 2830 
Q 4347 2713 4450 2447 
Q 4519 2266 4519 1878 
L 4519 647 
Q 4519 378 4559 278 
Q 4591 209 4675 161 
Q 4759 113 4950 113 
L 4950 0 
L 3538 0 
L 3538 113 
L 3597 113 
Q 3781 113 3884 184 
Q 3956 234 3988 344 
Q 4000 397 4000 647 
L 4000 1878 
Q 4000 2228 3916 2372 
Q 3794 2572 3525 2572 
Q 3359 2572 3192 2489 
Q 3025 2406 2788 2181 
L 2781 2147 
L 2788 2013 
L 2788 647 
Q 2788 353 2820 281 
Q 2853 209 2943 161 
Q 3034 113 3253 113 
L 3253 0 
L 1806 0 
L 1806 113 
Q 2044 113 2133 169 
Q 2222 225 2256 338 
Q 2272 391 2272 647 
L 2272 1878 
Q 2272 2228 2169 2381 
Q 2031 2581 1784 2581 
Q 1616 2581 1450 2491 
Q 1191 2353 1050 2181 
L 1050 647 
Q 1050 366 1089 281 
Q 1128 197 1204 155 
Q 1281 113 1516 113 
L 1516 0 
L 100 0 
L 100 113 
Q 297 113 375 155 
Q 453 197 493 289 
Q 534 381 534 647 
L 534 1741 
Q 534 2213 506 2350 
Q 484 2453 437 2492 
Q 391 2531 309 2531 
Q 222 2531 100 2484 
L 53 2597 
L 916 2947 
L 1050 2947 
L 1050 2338 
z
" transform="scale(0.015625)"/>
       <path id="TimesNewRomanPSMT-2f" d="M 1794 4444 
L 259 -88 
L 9 -88 
L 1544 4444 
L 1794 4444 
z
" transform="scale(0.015625)"/>
      </defs>
      <use xlink:href="#STIXGeneral-Italic-76" transform="translate(0 0.5625)"/>
      <use xlink:href="#TimesNewRomanPSMT-20" transform="translate(44.399994 0.5625)"/>
      <use xlink:href="#TimesNewRomanPSMT-5b" transform="translate(69.399994 0.5625)"/>
      <use xlink:href="#TimesNewRomanPSMT-6d" transform="translate(102.700775 0.5625)"/>
      <use xlink:href="#TimesNewRomanPSMT-2f" transform="translate(180.483978 0.5625)"/>
      <use xlink:href="#TimesNewRomanPSMT-73" transform="translate(208.267181 0.5625)"/>
      <use xlink:href="#TimesNewRomanPSMT-5d" transform="translate(247.183197 0.5625)"/>
     </g>
    </g>
   </g>
   <g id="line2d_15">
    <path d="M 43.67 13.965455 
L 170.46 13.965455 
" clip-path="url(#pcddef508fa)" style="fill: none; stroke-dasharray: 5.55,2.4; stroke-dashoffset: 0; stroke: #000000; stroke-width: 1.5"/>
   </g>
   <g id="line2d_16">
    <path d="M 43.67 98.874545 
L 170.46 98.874545 
" clip-path="url(#pcddef508fa)" style="fill: none; stroke-dasharray: 5.55,2.4; stroke-dashoffset: 0; stroke: #000000; stroke-width: 1.5"/>
   </g>
   <g id="line2d_17">
    <path d="M 43.67 98.874545 
L 85.933333 13.965455 
L 115.517667 13.965455 
L 153.554667 90.383636 
L 155.667833 91.172996 
L 181.025833 91.172996 
L 185.252167 82.682086 
L 187.365333 78.900586 
L 191.591667 78.900586 
L 193.704833 77.45312 
L 221.176 77.45312 
L 223.289167 75.783785 
L 235.968167 75.783785 
L 238.081333 73.916775 
L 248.647167 73.916775 
L 250.760333 71.797554 
L 257.099833 71.797554 
L 259.213 69.433532 
L 265.5525 69.433532 
L 267.665667 66.740495 
L 274.005167 66.740495 
L 276.118333 63.592829 
L 280.344667 63.592829 
L 282.457833 59.945289 
L 286.684167 59.945289 
L 288.797333 55.699835 
L 290.9105 55.60533 
L 293.023667 51.359876 
L 295.136833 50.517269 
L 297.25 46.271815 
L 299.363167 44.404717 
L 301.476333 40.159262 
L 303.5895 36.821744 
L 314.155333 15.594472 
L 316.2685 13.965455 
L 361 13.965455 
L 361 13.965455 
" clip-path="url(#pcddef508fa)" style="fill: none; stroke: #0000ff; stroke-width: 1.5; stroke-linecap: square"/>
   </g>
   <g id="line2d_18">
    <path d="M 43.67 98.874545 
L 85.933333 13.965455 
L 107.065 13.965455 
L 109.178167 18.210909 
L 111.291333 16.81589 
L 115.517667 25.306799 
L 117.630833 21.061344 
L 123.970333 33.797708 
L 126.0835 33.667469 
L 153.554667 88.858378 
L 155.667833 91.760405 
L 162.007333 91.547712 
L 164.1205 90.70905 
L 174.686333 90.637031 
L 176.7995 90.637031 
L 181.025833 82.146122 
L 183.139 79.023279 
L 185.252167 77.059967 
L 200.044333 77.059967 
L 202.1575 75.431408 
L 216.949667 75.431408 
L 219.062833 73.562449 
L 229.628667 73.562449 
L 231.741833 71.427356 
L 238.081333 71.427356 
L 240.1945 69.042871 
L 246.534 69.042871 
L 248.647167 66.324914 
L 254.986667 66.324914 
L 257.099833 63.147437 
L 261.326167 63.147437 
L 263.439333 59.473544 
L 267.665667 59.473544 
L 269.778833 55.22809 
L 271.892 55.117302 
L 274.005167 50.871847 
L 276.118333 50.076694 
L 278.2315 45.83124 
L 280.344667 44.123993 
L 282.457833 39.878538 
L 284.571 36.908412 
L 295.136833 15.681139 
L 297.25 13.965455 
L 307.815833 13.965455 
L 312.042167 22.456364 
L 316.2685 13.965455 
L 361 13.965455 
L 361 13.965455 
" clip-path="url(#pcddef508fa)" style="fill: none; stroke: #ff0000; stroke-width: 1.5; stroke-linecap: square"/>
   </g>
   <g id="patch_3">
    <path d="M 43.67 103.12 
L 43.67 9.72 
" style="fill: none; stroke: #000000; stroke-linejoin: miter; stroke-linecap: square"/>
   </g>
   <g id="patch_4">
    <path d="M 170.46 103.12 
L 170.46 9.72 
" style="fill: none; stroke: #000000; stroke-linejoin: miter; stroke-linecap: square"/>
   </g>
   <g id="patch_5">
    <path d="M 43.67 103.12 
L 170.46 103.12 
" style="fill: none; stroke: #000000; stroke-linejoin: miter; stroke-linecap: square"/>
   </g>
   <g id="patch_6">
    <path d="M 43.67 9.72 
L 170.46 9.72 
" style="fill: none; stroke: #000000; stroke-linejoin: miter; stroke-linecap: square"/>
   </g>
  </g>
  <g id="axes_2">
   <g id="patch_7">
    <path d="M 221.285 103.12 
L 348.075 103.12 
L 348.075 9.72 
L 221.285 9.72 
z
" style="fill: #ffffff"/>
   </g>
   <g id="matplotlib.axis_3">
    <g id="xtick_5">
     <g id="line2d_19">
      <path d="M 221.285 103.12 
L 221.285 9.72 
" clip-path="url(#pbc4e812f72)" style="fill: none; stroke: #b0b0b0; stroke-width: 0.8; stroke-linecap: square"/>
     </g>
     <g id="line2d_20">
      <g>
       <use xlink:href="#mfc3e8b9c35" x="221.285" y="103.12" style="stroke: #000000; stroke-width: 0.8"/>
      </g>
     </g>
     <g id="text_10">
      <!-- 0 -->
      <g transform="translate(219.035 116.369375) scale(0.09 -0.09)">
       <use xlink:href="#TimesNewRomanPSMT-30"/>
      </g>
     </g>
    </g>
    <g id="xtick_6">
     <g id="line2d_21">
      <path d="M 263.548333 103.12 
L 263.548333 9.72 
" clip-path="url(#pbc4e812f72)" style="fill: none; stroke: #b0b0b0; stroke-width: 0.8; stroke-linecap: square"/>
     </g>
     <g id="line2d_22">
      <g>
       <use xlink:href="#mfc3e8b9c35" x="263.548333" y="103.12" style="stroke: #000000; stroke-width: 0.8"/>
      </g>
     </g>
     <g id="text_11">
      <!-- 1 -->
      <g transform="translate(261.298333 116.369375) scale(0.09 -0.09)">
       <use xlink:href="#TimesNewRomanPSMT-31"/>
      </g>
     </g>
    </g>
    <g id="xtick_7">
     <g id="line2d_23">
      <path d="M 305.811667 103.12 
L 305.811667 9.72 
" clip-path="url(#pbc4e812f72)" style="fill: none; stroke: #b0b0b0; stroke-width: 0.8; stroke-linecap: square"/>
     </g>
     <g id="line2d_24">
      <g>
       <use xlink:href="#mfc3e8b9c35" x="305.811667" y="103.12" style="stroke: #000000; stroke-width: 0.8"/>
      </g>
     </g>
     <g id="text_12">
      <!-- 2 -->
      <g transform="translate(303.561667 116.369375) scale(0.09 -0.09)">
       <use xlink:href="#TimesNewRomanPSMT-32"/>
      </g>
     </g>
    </g>
    <g id="xtick_8">
     <g id="line2d_25">
      <path d="M 348.075 103.12 
L 348.075 9.72 
" clip-path="url(#pbc4e812f72)" style="fill: none; stroke: #b0b0b0; stroke-width: 0.8; stroke-linecap: square"/>
     </g>
     <g id="line2d_26">
      <g>
       <use xlink:href="#mfc3e8b9c35" x="348.075" y="103.12" style="stroke: #000000; stroke-width: 0.8"/>
      </g>
     </g>
     <g id="text_13">
      <!-- 3 -->
      <g transform="translate(345.825 116.369375) scale(0.09 -0.09)">
       <use xlink:href="#TimesNewRomanPSMT-33"/>
      </g>
     </g>
    </g>
    <g id="text_14">
     <!-- $t$ [s] -->
     <g transform="translate(277.525 128.543906) scale(0.09 -0.09)">
      <use xlink:href="#STIXGeneral-Italic-74" transform="translate(0 0.28125)"/>
      <use xlink:href="#TimesNewRomanPSMT-20" transform="translate(27.799988 0.28125)"/>
      <use xlink:href="#TimesNewRomanPSMT-5b" transform="translate(52.799988 0.28125)"/>
      <use xlink:href="#TimesNewRomanPSMT-73" transform="translate(86.100769 0.28125)"/>
      <use xlink:href="#TimesNewRomanPSMT-5d" transform="translate(125.016785 0.28125)"/>
     </g>
    </g>
   </g>
   <g id="matplotlib.axis_4">
    <g id="ytick_4">
     <g id="line2d_27">
      <path d="M 221.285 98.874545 
L 348.075 98.874545 
" clip-path="url(#pbc4e812f72)" style="fill: none; stroke: #b0b0b0; stroke-width: 0.8; stroke-linecap: square"/>
     </g>
     <g id="line2d_28">
      <g>
       <use xlink:href="#md43eef2e87" x="221.285" y="98.874545" style="stroke: #000000; stroke-width: 0.8"/>
      </g>
     </g>
     <g id="text_15">
      <!-- −1.0 -->
      <g transform="translate(197.959844 101.999233) scale(0.09 -0.09)">
       <defs>
        <path id="TimesNewRomanPSMT-2212" d="M 3484 2000 
L 116 2000 
L 116 2256 
L 3484 2256 
L 3484 2000 
z
" transform="scale(0.015625)"/>
       </defs>
       <use xlink:href="#TimesNewRomanPSMT-2212"/>
       <use xlink:href="#TimesNewRomanPSMT-31" x="56.396484"/>
       <use xlink:href="#TimesNewRomanPSMT-2e" x="106.396484"/>
       <use xlink:href="#TimesNewRomanPSMT-30" x="131.396484"/>
      </g>
     </g>
    </g>
    <g id="ytick_5">
     <g id="line2d_29">
      <path d="M 221.285 77.647273 
L 348.075 77.647273 
" clip-path="url(#pbc4e812f72)" style="fill: none; stroke: #b0b0b0; stroke-width: 0.8; stroke-linecap: square"/>
     </g>
     <g id="line2d_30">
      <g>
       <use xlink:href="#md43eef2e87" x="221.285" y="77.647273" style="stroke: #000000; stroke-width: 0.8"/>
      </g>
     </g>
     <g id="text_16">
      <!-- −0.5 -->
      <g transform="translate(197.959844 80.77196) scale(0.09 -0.09)">
       <defs>
        <path id="TimesNewRomanPSMT-35" d="M 2778 4238 
L 2534 3706 
L 1259 3706 
L 981 3138 
Q 1809 3016 2294 2522 
Q 2709 2097 2709 1522 
Q 2709 1188 2573 903 
Q 2438 619 2231 419 
Q 2025 219 1772 97 
Q 1413 -75 1034 -75 
Q 653 -75 479 54 
Q 306 184 306 341 
Q 306 428 378 495 
Q 450 563 559 563 
Q 641 563 702 538 
Q 763 513 909 409 
Q 1144 247 1384 247 
Q 1750 247 2026 523 
Q 2303 800 2303 1197 
Q 2303 1581 2056 1914 
Q 1809 2247 1375 2428 
Q 1034 2569 447 2591 
L 1259 4238 
L 2778 4238 
z
" transform="scale(0.015625)"/>
       </defs>
       <use xlink:href="#TimesNewRomanPSMT-2212"/>
       <use xlink:href="#TimesNewRomanPSMT-30" x="56.396484"/>
       <use xlink:href="#TimesNewRomanPSMT-2e" x="106.396484"/>
       <use xlink:href="#TimesNewRomanPSMT-35" x="131.396484"/>
      </g>
     </g>
    </g>
    <g id="ytick_6">
     <g id="line2d_31">
      <path d="M 221.285 56.42 
L 348.075 56.42 
" clip-path="url(#pbc4e812f72)" style="fill: none; stroke: #b0b0b0; stroke-width: 0.8; stroke-linecap: square"/>
     </g>
     <g id="line2d_32">
      <g>
       <use xlink:href="#md43eef2e87" x="221.285" y="56.42" style="stroke: #000000; stroke-width: 0.8"/>
      </g>
     </g>
     <g id="text_17">
      <!-- 0.0 -->
      <g transform="translate(203.035 59.544687) scale(0.09 -0.09)">
       <use xlink:href="#TimesNewRomanPSMT-30"/>
       <use xlink:href="#TimesNewRomanPSMT-2e" x="50"/>
       <use xlink:href="#TimesNewRomanPSMT-30" x="75"/>
      </g>
     </g>
    </g>
    <g id="ytick_7">
     <g id="line2d_33">
      <path d="M 221.285 35.192727 
L 348.075 35.192727 
" clip-path="url(#pbc4e812f72)" style="fill: none; stroke: #b0b0b0; stroke-width: 0.8; stroke-linecap: square"/>
     </g>
     <g id="line2d_34">
      <g>
       <use xlink:href="#md43eef2e87" x="221.285" y="35.192727" style="stroke: #000000; stroke-width: 0.8"/>
      </g>
     </g>
     <g id="text_18">
      <!-- 0.5 -->
      <g transform="translate(203.035 38.317415) scale(0.09 -0.09)">
       <use xlink:href="#TimesNewRomanPSMT-30"/>
       <use xlink:href="#TimesNewRomanPSMT-2e" x="50"/>
       <use xlink:href="#TimesNewRomanPSMT-35" x="75"/>
      </g>
     </g>
    </g>
    <g id="ytick_8">
     <g id="line2d_35">
      <path d="M 221.285 13.965455 
L 348.075 13.965455 
" clip-path="url(#pbc4e812f72)" style="fill: none; stroke: #b0b0b0; stroke-width: 0.8; stroke-linecap: square"/>
     </g>
     <g id="line2d_36">
      <g>
       <use xlink:href="#md43eef2e87" x="221.285" y="13.965455" style="stroke: #000000; stroke-width: 0.8"/>
      </g>
     </g>
     <g id="text_19">
      <!-- 1.0 -->
      <g transform="translate(203.035 17.090142) scale(0.09 -0.09)">
       <use xlink:href="#TimesNewRomanPSMT-31"/>
       <use xlink:href="#TimesNewRomanPSMT-2e" x="50"/>
       <use xlink:href="#TimesNewRomanPSMT-30" x="75"/>
      </g>
     </g>
    </g>
    <g id="text_20">
     <!-- $\omega$ [m/s] -->
     <g transform="translate(192.034688 70.145) rotate(-90) scale(0.09 -0.09)">
      <defs>
       <path id="STIXGeneral-Italic-3c9" d="M 3021 2810 
L 3136 2810 
Q 3648 2810 3898 2598 
Q 4186 2355 4186 1824 
Q 4186 1357 3910 838 
Q 3667 390 3334 160 
Q 3002 -70 2669 -70 
Q 2438 -70 2281 3 
Q 2125 77 2064 160 
Q 2003 243 1939 384 
Q 1741 147 1533 38 
Q 1325 -70 998 -70 
Q 659 -70 416 160 
Q 173 390 173 832 
Q 173 1101 237 1350 
Q 403 1965 883 2387 
Q 1363 2810 2010 2810 
L 2125 2810 
L 2125 2707 
Q 1606 2707 1267 2291 
Q 1024 1990 867 1526 
Q 710 1062 710 666 
Q 710 64 1075 64 
Q 1286 64 1523 285 
Q 1760 506 1856 774 
Q 1837 915 1837 1101 
Q 1837 1363 1914 1651 
Q 1984 1920 2125 2105 
Q 2266 2291 2432 2291 
Q 2656 2291 2656 1997 
Q 2656 1530 2387 1062 
Q 2272 864 2189 736 
Q 2176 691 2176 602 
Q 2176 384 2288 224 
Q 2400 64 2592 64 
Q 3040 64 3341 627 
Q 3482 896 3565 1270 
Q 3648 1645 3648 1971 
Q 3648 2240 3616 2362 
Q 3565 2566 3411 2636 
Q 3258 2707 3021 2707 
L 3021 2810 
z
" transform="scale(0.015625)"/>
      </defs>
      <use xlink:href="#STIXGeneral-Italic-3c9" transform="translate(0 0.5625)"/>
      <use xlink:href="#TimesNewRomanPSMT-20" transform="translate(68.599991 0.5625)"/>
      <use xlink:href="#TimesNewRomanPSMT-5b" transform="translate(93.599991 0.5625)"/>
      <use xlink:href="#TimesNewRomanPSMT-6d" transform="translate(126.900772 0.5625)"/>
      <use xlink:href="#TimesNewRomanPSMT-2f" transform="translate(204.683975 0.5625)"/>
      <use xlink:href="#TimesNewRomanPSMT-73" transform="translate(232.467178 0.5625)"/>
      <use xlink:href="#TimesNewRomanPSMT-5d" transform="translate(271.383194 0.5625)"/>
     </g>
    </g>
   </g>
   <g id="line2d_37">
    <path d="M 221.285 13.965455 
L 348.075 13.965455 
" clip-path="url(#pbc4e812f72)" style="fill: none; stroke-dasharray: 5.55,2.4; stroke-dashoffset: 0; stroke: #000000; stroke-width: 1.5"/>
   </g>
   <g id="line2d_38">
    <path d="M 221.285 98.874545 
L 348.075 98.874545 
" clip-path="url(#pbc4e812f72)" style="fill: none; stroke-dasharray: 5.55,2.4; stroke-dashoffset: 0; stroke: #000000; stroke-width: 1.5"/>
   </g>
   <g id="line2d_39">
    <path d="M 221.285 56.42 
L 284.68 56.42 
L 307.924833 33.07 
L 310.038 32.834141 
L 361 32.834141 
L 361 32.834141 
" clip-path="url(#pbc4e812f72)" style="fill: none; stroke: #0000ff; stroke-width: 1.5; stroke-linecap: square"/>
   </g>
   <g id="line2d_40">
    <path d="M 221.285 56.42 
L 284.68 56.42 
L 293.132667 47.929091 
L 295.245833 46.152055 
L 326.943333 14.311146 
L 329.0565 13.965455 
L 345.961833 30.947273 
L 348.075 32.834141 
L 354.4145 32.834141 
L 358.640833 37.079596 
L 361 34.709756 
L 361 34.709756 
" clip-path="url(#pbc4e812f72)" style="fill: none; stroke: #ff0000; stroke-width: 1.5; stroke-linecap: square"/>
   </g>
   <g id="patch_8">
    <path d="M 221.285 103.12 
L 221.285 9.72 
" style="fill: none; stroke: #000000; stroke-linejoin: miter; stroke-linecap: square"/>
   </g>
   <g id="patch_9">
    <path d="M 348.075 103.12 
L 348.075 9.72 
" style="fill: none; stroke: #000000; stroke-linejoin: miter; stroke-linecap: square"/>
   </g>
   <g id="patch_10">
    <path d="M 221.285 103.12 
L 348.075 103.12 
" style="fill: none; stroke: #000000; stroke-linejoin: miter; stroke-linecap: square"/>
   </g>
   <g id="patch_11">
    <path d="M 221.285 9.72 
L 348.075 9.72 
" style="fill: none; stroke: #000000; stroke-linejoin: miter; stroke-linecap: square"/>
   </g>
   <g id="legend_1">
    <g id="patch_12">
     <path d="M 227.585 42.370313 
L 272.389531 42.370313 
Q 274.189531 42.370313 274.189531 40.570313 
L 274.189531 16.02 
Q 274.189531 14.22 272.389531 14.22 
L 227.585 14.22 
Q 225.785 14.22 225.785 16.02 
L 225.785 40.570313 
Q 225.785 42.370313 227.585 42.370313 
z
" style="fill: #ffffff; opacity: 0.8; stroke: #000000; stroke-linejoin: miter"/>
    </g>
    <g id="line2d_41">
     <path d="M 229.385 20.97 
L 233.885 20.97 
L 238.385 20.97 
" style="fill: none; stroke: #0000ff; stroke-width: 1.5; stroke-linecap: square"/>
    </g>
    <g id="text_21">
     <!-- RPP -->
     <g transform="translate(245.585 24.12) scale(0.09 -0.09)">
      <defs>
       <path id="TimesNewRomanPSMT-52" d="M 4325 0 
L 3194 0 
L 1759 1981 
Q 1600 1975 1500 1975 
Q 1459 1975 1412 1976 
Q 1366 1978 1316 1981 
L 1316 750 
Q 1316 350 1403 253 
Q 1522 116 1759 116 
L 1925 116 
L 1925 0 
L 109 0 
L 109 116 
L 269 116 
Q 538 116 653 291 
Q 719 388 719 750 
L 719 3488 
Q 719 3888 631 3984 
Q 509 4122 269 4122 
L 109 4122 
L 109 4238 
L 1653 4238 
Q 2328 4238 2648 4139 
Q 2969 4041 3192 3777 
Q 3416 3513 3416 3147 
Q 3416 2756 3161 2468 
Q 2906 2181 2372 2063 
L 3247 847 
Q 3547 428 3762 290 
Q 3978 153 4325 116 
L 4325 0 
z
M 1316 2178 
Q 1375 2178 1419 2176 
Q 1463 2175 1491 2175 
Q 2097 2175 2405 2437 
Q 2713 2700 2713 3106 
Q 2713 3503 2464 3751 
Q 2216 4000 1806 4000 
Q 1625 4000 1316 3941 
L 1316 2178 
z
" transform="scale(0.015625)"/>
       <path id="TimesNewRomanPSMT-50" d="M 1313 1984 
L 1313 750 
Q 1313 350 1400 253 
Q 1519 116 1759 116 
L 1922 116 
L 1922 0 
L 106 0 
L 106 116 
L 266 116 
Q 534 116 650 291 
Q 713 388 713 750 
L 713 3488 
Q 713 3888 628 3984 
Q 506 4122 266 4122 
L 106 4122 
L 106 4238 
L 1659 4238 
Q 2228 4238 2556 4120 
Q 2884 4003 3109 3725 
Q 3334 3447 3334 3066 
Q 3334 2547 2992 2222 
Q 2650 1897 2025 1897 
Q 1872 1897 1694 1919 
Q 1516 1941 1313 1984 
z
M 1313 2163 
Q 1478 2131 1606 2115 
Q 1734 2100 1825 2100 
Q 2150 2100 2386 2351 
Q 2622 2603 2622 3003 
Q 2622 3278 2509 3514 
Q 2397 3750 2190 3867 
Q 1984 3984 1722 3984 
Q 1563 3984 1313 3925 
L 1313 2163 
z
" transform="scale(0.015625)"/>
      </defs>
      <use xlink:href="#TimesNewRomanPSMT-52"/>
      <use xlink:href="#TimesNewRomanPSMT-50" x="66.699219"/>
      <use xlink:href="#TimesNewRomanPSMT-50" x="122.314453"/>
     </g>
    </g>
    <g id="line2d_42">
     <path d="M 229.385 33.695156 
L 233.885 33.695156 
L 238.385 33.695156 
" style="fill: none; stroke: #ff0000; stroke-width: 1.5; stroke-linecap: square"/>
    </g>
    <g id="text_22">
     <!-- DWPP -->
     <g transform="translate(245.585 36.845156) scale(0.09 -0.09)">
      <defs>
       <path id="TimesNewRomanPSMT-44" d="M 109 0 
L 109 116 
L 269 116 
Q 538 116 650 288 
Q 719 391 719 750 
L 719 3488 
Q 719 3884 631 3984 
Q 509 4122 269 4122 
L 109 4122 
L 109 4238 
L 1834 4238 
Q 2784 4238 3279 4022 
Q 3775 3806 4076 3303 
Q 4378 2800 4378 2141 
Q 4378 1256 3841 663 
Q 3238 0 2003 0 
L 109 0 
z
M 1319 306 
Q 1716 219 1984 219 
Q 2709 219 3187 728 
Q 3666 1238 3666 2109 
Q 3666 2988 3187 3494 
Q 2709 4000 1959 4000 
Q 1678 4000 1319 3909 
L 1319 306 
z
" transform="scale(0.015625)"/>
       <path id="TimesNewRomanPSMT-57" d="M 5991 4238 
L 5991 4122 
Q 5825 4122 5722 4062 
Q 5619 4003 5525 3841 
Q 5463 3731 5328 3319 
L 4147 -97 
L 4022 -97 
L 3056 2613 
L 2097 -97 
L 1984 -97 
L 725 3422 
Q 584 3816 547 3888 
Q 484 4006 376 4064 
Q 269 4122 84 4122 
L 84 4238 
L 1653 4238 
L 1653 4122 
L 1578 4122 
Q 1413 4122 1325 4047 
Q 1238 3972 1238 3866 
Q 1238 3756 1375 3363 
L 2209 984 
L 2913 3006 
L 2788 3363 
L 2688 3647 
Q 2622 3803 2541 3922 
Q 2500 3981 2441 4022 
Q 2363 4078 2284 4103 
Q 2225 4122 2097 4122 
L 2097 4238 
L 3747 4238 
L 3747 4122 
L 3634 4122 
Q 3459 4122 3378 4047 
Q 3297 3972 3297 3844 
Q 3297 3684 3438 3288 
L 4250 984 
L 5056 3319 
Q 5194 3706 5194 3856 
Q 5194 3928 5148 3990 
Q 5103 4053 5034 4078 
Q 4916 4122 4725 4122 
L 4725 4238 
L 5991 4238 
z
" transform="scale(0.015625)"/>
      </defs>
      <use xlink:href="#TimesNewRomanPSMT-44"/>
      <use xlink:href="#TimesNewRomanPSMT-57" x="72.216797"/>
      <use xlink:href="#TimesNewRomanPSMT-50" x="166.601562"/>
      <use xlink:href="#TimesNewRomanPSMT-50" x="222.216797"/>
     </g>
    </g>
   </g>
  </g>
 </g>
 <defs>
  <clipPath id="pcddef508fa">
   <rect x="43.67" y="9.72" width="126.79" height="93.4"/>
  </clipPath>
  <clipPath id="pbc4e812f72">
   <rect x="221.285" y="9.72" width="126.79" height="93.4"/>
  </clipPath>
 </defs>
</svg>
