<?xml version="1.0" encoding="utf-8" standalone="no"?>
<!DOCTYPE svg PUBLIC "-//W3C//DTD SVG 1.1//EN"
  "http://www.w3.org/Graphics/SVG/1.1/DTD/svg11.dtd">
<svg xmlns:xlink="http://www.w3.org/1999/xlink" width="216pt" height="216pt" viewBox="0 0 216 216" xmlns="http://www.w3.org/2000/svg" version="1.1">
 <metadata>
  <rdf:RDF xmlns:dc="http://purl.org/dc/elements/1.1/" xmlns:cc="http://creativecommons.org/ns#" xmlns:rdf="http://www.w3.org/1999/02/22-rdf-syntax-ns#">
   <cc:Work>
    <dc:type rdf:resource="http://purl.org/dc/dcmitype/StillImage"/>
    <dc:date>2025-02-28T21:04:20.243631</dc:date>
    <dc:format>image/svg+xml</dc:format>
    <dc:creator>
     <cc:Agent>
      <dc:title>Matplotlib v3.9.2, https://matplotlib.org/</dc:title>
     </cc:Agent>
    </dc:creator>
   </cc:Work>
  </rdf:RDF>
 </metadata>
 <defs>
  <style type="text/css">*{stroke-linejoin: round; stroke-linecap: butt}</style>
 </defs>
 <g id="figure_1">
  <g id="patch_1">
   <path d="M 0 216 
L 216 216 
L 216 0 
L 0 0 
z
" style="fill: #ffffff"/>
  </g>
  <g id="axes_1">
   <g id="patch_2">
    <path d="M 41.78 167.300268 
L 206.28 167.300268 
L 206.28 31.708829 
L 41.78 31.708829 
z
" style="fill: #ffffff"/>
   </g>
   <g id="matplotlib.axis_1">
    <g id="xtick_1">
     <g id="line2d_1">
      <path d="M 45.771439 167.300268 
L 45.771439 31.708829 
" clip-path="url(#p234c8ae41a)" style="fill: none; stroke: #b0b0b0; stroke-width: 0.8; stroke-linecap: square"/>
     </g>
     <g id="line2d_2">
      <defs>
       <path id="me0c1f76f56" d="M 0 0 
L 0 3.5 
" style="stroke: #000000; stroke-width: 0.8"/>
      </defs>
      <g>
       <use xlink:href="#me0c1f76f56" x="45.771439" y="167.300268" style="stroke: #000000; stroke-width: 0.8"/>
      </g>
     </g>
     <g id="text_1">
      <!-- −2 -->
      <g transform="translate(40.983861 180.549643) scale(0.09 -0.09)">
       <defs>
        <path id="TimesNewRomanPSMT-2212" d="M 3484 2000 
L 116 2000 
L 116 2256 
L 3484 2256 
L 3484 2000 
z
" transform="scale(0.015625)"/>
        <path id="TimesNewRomanPSMT-32" d="M 2934 816 
L 2638 0 
L 138 0 
L 138 116 
Q 1241 1122 1691 1759 
Q 2141 2397 2141 2925 
Q 2141 3328 1894 3587 
Q 1647 3847 1303 3847 
Q 991 3847 742 3664 
Q 494 3481 375 3128 
L 259 3128 
Q 338 3706 661 4015 
Q 984 4325 1469 4325 
Q 1984 4325 2329 3994 
Q 2675 3663 2675 3213 
Q 2675 2891 2525 2569 
Q 2294 2063 1775 1497 
Q 997 647 803 472 
L 1909 472 
Q 2247 472 2383 497 
Q 2519 522 2628 598 
Q 2738 675 2819 816 
L 2934 816 
z
" transform="scale(0.015625)"/>
       </defs>
       <use xlink:href="#TimesNewRomanPSMT-2212"/>
       <use xlink:href="#TimesNewRomanPSMT-32" x="56.396484"/>
      </g>
     </g>
    </g>
    <g id="xtick_2">
     <g id="line2d_3">
      <path d="M 78.671439 167.300268 
L 78.671439 31.708829 
" clip-path="url(#p234c8ae41a)" style="fill: none; stroke: #b0b0b0; stroke-width: 0.8; stroke-linecap: square"/>
     </g>
     <g id="line2d_4">
      <g>
       <use xlink:href="#me0c1f76f56" x="78.671439" y="167.300268" style="stroke: #000000; stroke-width: 0.8"/>
      </g>
     </g>
     <g id="text_2">
      <!-- −1 -->
      <g transform="translate(73.883861 180.549643) scale(0.09 -0.09)">
       <defs>
        <path id="TimesNewRomanPSMT-31" d="M 750 3822 
L 1781 4325 
L 1884 4325 
L 1884 747 
Q 1884 391 1914 303 
Q 1944 216 2037 169 
Q 2131 122 2419 116 
L 2419 0 
L 825 0 
L 825 116 
Q 1125 122 1212 167 
Q 1300 213 1334 289 
Q 1369 366 1369 747 
L 1369 3034 
Q 1369 3497 1338 3628 
Q 1316 3728 1258 3775 
Q 1200 3822 1119 3822 
Q 1003 3822 797 3725 
L 750 3822 
z
" transform="scale(0.015625)"/>
       </defs>
       <use xlink:href="#TimesNewRomanPSMT-2212"/>
       <use xlink:href="#TimesNewRomanPSMT-31" x="56.396484"/>
      </g>
     </g>
    </g>
    <g id="xtick_3">
     <g id="line2d_5">
      <path d="M 111.571439 167.300268 
L 111.571439 31.708829 
" clip-path="url(#p234c8ae41a)" style="fill: none; stroke: #b0b0b0; stroke-width: 0.8; stroke-linecap: square"/>
     </g>
     <g id="line2d_6">
      <g>
       <use xlink:href="#me0c1f76f56" x="111.571439" y="167.300268" style="stroke: #000000; stroke-width: 0.8"/>
      </g>
     </g>
     <g id="text_3">
      <!-- 0 -->
      <g transform="translate(109.321439 180.549643) scale(0.09 -0.09)">
       <defs>
        <path id="TimesNewRomanPSMT-30" d="M 231 2094 
Q 231 2819 450 3342 
Q 669 3866 1031 4122 
Q 1313 4325 1613 4325 
Q 2100 4325 2488 3828 
Q 2972 3213 2972 2159 
Q 2972 1422 2759 906 
Q 2547 391 2217 158 
Q 1888 -75 1581 -75 
Q 975 -75 572 641 
Q 231 1244 231 2094 
z
M 844 2016 
Q 844 1141 1059 588 
Q 1238 122 1591 122 
Q 1759 122 1940 273 
Q 2122 425 2216 781 
Q 2359 1319 2359 2297 
Q 2359 3022 2209 3506 
Q 2097 3866 1919 4016 
Q 1791 4119 1609 4119 
Q 1397 4119 1231 3928 
Q 1006 3669 925 3112 
Q 844 2556 844 2016 
z
" transform="scale(0.015625)"/>
       </defs>
       <use xlink:href="#TimesNewRomanPSMT-30"/>
      </g>
     </g>
    </g>
    <g id="xtick_4">
     <g id="line2d_7">
      <path d="M 144.471439 167.300268 
L 144.471439 31.708829 
" clip-path="url(#p234c8ae41a)" style="fill: none; stroke: #b0b0b0; stroke-width: 0.8; stroke-linecap: square"/>
     </g>
     <g id="line2d_8">
      <g>
       <use xlink:href="#me0c1f76f56" x="144.471439" y="167.300268" style="stroke: #000000; stroke-width: 0.8"/>
      </g>
     </g>
     <g id="text_4">
      <!-- 1 -->
      <g transform="translate(142.221439 180.549643) scale(0.09 -0.09)">
       <use xlink:href="#TimesNewRomanPSMT-31"/>
      </g>
     </g>
    </g>
    <g id="xtick_5">
     <g id="line2d_9">
      <path d="M 177.371439 167.300268 
L 177.371439 31.708829 
" clip-path="url(#p234c8ae41a)" style="fill: none; stroke: #b0b0b0; stroke-width: 0.8; stroke-linecap: square"/>
     </g>
     <g id="line2d_10">
      <g>
       <use xlink:href="#me0c1f76f56" x="177.371439" y="167.300268" style="stroke: #000000; stroke-width: 0.8"/>
      </g>
     </g>
     <g id="text_5">
      <!-- 2 -->
      <g transform="translate(175.121439 180.549643) scale(0.09 -0.09)">
       <use xlink:href="#TimesNewRomanPSMT-32"/>
      </g>
     </g>
    </g>
    <g id="text_6">
     <!-- $x$ [m] -->
     <g transform="translate(114.4 192.724175) scale(0.09 -0.09)">
      <defs>
       <path id="STIXGeneral-Italic-78" d="M 1555 2272 
L 1632 1907 
Q 1971 2426 2179 2624 
Q 2387 2822 2598 2822 
Q 2714 2822 2787 2755 
Q 2861 2688 2861 2585 
Q 2861 2483 2800 2419 
Q 2739 2355 2643 2355 
Q 2586 2355 2490 2409 
Q 2394 2464 2310 2464 
Q 2125 2464 1683 1690 
Q 1683 1606 1734 1402 
L 1939 544 
Q 2003 282 2131 282 
Q 2234 282 2432 538 
Q 2451 563 2476 598 
Q 2502 634 2521 662 
Q 2541 691 2566 717 
L 2662 659 
Q 2387 230 2227 80 
Q 2067 -70 1882 -70 
Q 1728 -70 1645 26 
Q 1562 122 1504 365 
L 1318 1126 
L 755 365 
Q 557 96 432 13 
Q 307 -70 147 -70 
Q 0 -70 -86 0 
Q -173 70 -173 198 
Q -173 294 -112 361 
Q -51 429 45 429 
Q 122 429 250 358 
Q 346 301 416 301 
Q 525 301 742 614 
L 1267 1357 
L 1088 2150 
Q 1024 2432 969 2509 
Q 915 2586 794 2586 
Q 717 2586 544 2541 
L 429 2509 
L 410 2611 
L 480 2637 
Q 992 2822 1229 2822 
Q 1350 2822 1420 2707 
Q 1491 2592 1555 2272 
z
" transform="scale(0.015625)"/>
       <path id="TimesNewRomanPSMT-20" transform="scale(0.015625)"/>
       <path id="TimesNewRomanPSMT-5b" d="M 1900 -1269 
L 525 -1269 
L 525 4334 
L 1900 4334 
L 1900 4088 
L 994 4088 
L 994 -1025 
L 1900 -1025 
L 1900 -1269 
z
" transform="scale(0.015625)"/>
       <path id="TimesNewRomanPSMT-6d" d="M 1050 2338 
Q 1363 2650 1419 2697 
Q 1559 2816 1721 2881 
Q 1884 2947 2044 2947 
Q 2313 2947 2506 2790 
Q 2700 2634 2766 2338 
Q 3088 2713 3309 2830 
Q 3531 2947 3766 2947 
Q 3994 2947 4170 2830 
Q 4347 2713 4450 2447 
Q 4519 2266 4519 1878 
L 4519 647 
Q 4519 378 4559 278 
Q 4591 209 4675 161 
Q 4759 113 4950 113 
L 4950 0 
L 3538 0 
L 3538 113 
L 3597 113 
Q 3781 113 3884 184 
Q 3956 234 3988 344 
Q 4000 397 4000 647 
L 4000 1878 
Q 4000 2228 3916 2372 
Q 3794 2572 3525 2572 
Q 3359 2572 3192 2489 
Q 3025 2406 2788 2181 
L 2781 2147 
L 2788 2013 
L 2788 647 
Q 2788 353 2820 281 
Q 2853 209 2943 161 
Q 3034 113 3253 113 
L 3253 0 
L 1806 0 
L 1806 113 
Q 2044 113 2133 169 
Q 2222 225 2256 338 
Q 2272 391 2272 647 
L 2272 1878 
Q 2272 2228 2169 2381 
Q 2031 2581 1784 2581 
Q 1616 2581 1450 2491 
Q 1191 2353 1050 2181 
L 1050 647 
Q 1050 366 1089 281 
Q 1128 197 1204 155 
Q 1281 113 1516 113 
L 1516 0 
L 100 0 
L 100 113 
Q 297 113 375 155 
Q 453 197 493 289 
Q 534 381 534 647 
L 534 1741 
Q 534 2213 506 2350 
Q 484 2453 437 2492 
Q 391 2531 309 2531 
Q 222 2531 100 2484 
L 53 2597 
L 916 2947 
L 1050 2947 
L 1050 2338 
z
" transform="scale(0.015625)"/>
       <path id="TimesNewRomanPSMT-5d" d="M 234 4334 
L 1609 4334 
L 1609 -1272 
L 234 -1272 
L 234 -1025 
L 1141 -1025 
L 1141 4088 
L 234 4088 
L 234 4334 
z
" transform="scale(0.015625)"/>
      </defs>
      <use xlink:href="#STIXGeneral-Italic-78" transform="translate(0 0.28125)"/>
      <use xlink:href="#TimesNewRomanPSMT-20" transform="translate(44.399994 0.28125)"/>
      <use xlink:href="#TimesNewRomanPSMT-5b" transform="translate(69.399994 0.28125)"/>
      <use xlink:href="#TimesNewRomanPSMT-6d" transform="translate(102.700775 0.28125)"/>
      <use xlink:href="#TimesNewRomanPSMT-5d" transform="translate(180.483978 0.28125)"/>
     </g>
    </g>
   </g>
   <g id="matplotlib.axis_2">
    <g id="ytick_1">
     <g id="line2d_11">
      <path d="M 41.78 167.300268 
L 206.28 167.300268 
" clip-path="url(#p234c8ae41a)" style="fill: none; stroke: #b0b0b0; stroke-width: 0.8; stroke-linecap: square"/>
     </g>
     <g id="line2d_12">
      <defs>
       <path id="m30ece41e1d" d="M 0 0 
L -3.5 0 
" style="stroke: #000000; stroke-width: 0.8"/>
      </defs>
      <g>
       <use xlink:href="#m30ece41e1d" x="41.78" y="167.300268" style="stroke: #000000; stroke-width: 0.8"/>
      </g>
     </g>
     <g id="text_7">
      <!-- −1 -->
      <g transform="translate(25.204844 170.424956) scale(0.09 -0.09)">
       <use xlink:href="#TimesNewRomanPSMT-2212"/>
       <use xlink:href="#TimesNewRomanPSMT-31" x="56.396484"/>
      </g>
     </g>
    </g>
    <g id="ytick_2">
     <g id="line2d_13">
      <path d="M 41.78 134.400268 
L 206.28 134.400268 
" clip-path="url(#p234c8ae41a)" style="fill: none; stroke: #b0b0b0; stroke-width: 0.8; stroke-linecap: square"/>
     </g>
     <g id="line2d_14">
      <g>
       <use xlink:href="#m30ece41e1d" x="41.78" y="134.400268" style="stroke: #000000; stroke-width: 0.8"/>
      </g>
     </g>
     <g id="text_8">
      <!-- 0 -->
      <g transform="translate(30.28 137.524956) scale(0.09 -0.09)">
       <use xlink:href="#TimesNewRomanPSMT-30"/>
      </g>
     </g>
    </g>
    <g id="ytick_3">
     <g id="line2d_15">
      <path d="M 41.78 101.500268 
L 206.28 101.500268 
" clip-path="url(#p234c8ae41a)" style="fill: none; stroke: #b0b0b0; stroke-width: 0.8; stroke-linecap: square"/>
     </g>
     <g id="line2d_16">
      <g>
       <use xlink:href="#m30ece41e1d" x="41.78" y="101.500268" style="stroke: #000000; stroke-width: 0.8"/>
      </g>
     </g>
     <g id="text_9">
      <!-- 1 -->
      <g transform="translate(30.28 104.624956) scale(0.09 -0.09)">
       <use xlink:href="#TimesNewRomanPSMT-31"/>
      </g>
     </g>
    </g>
    <g id="ytick_4">
     <g id="line2d_17">
      <path d="M 41.78 68.600268 
L 206.28 68.600268 
" clip-path="url(#p234c8ae41a)" style="fill: none; stroke: #b0b0b0; stroke-width: 0.8; stroke-linecap: square"/>
     </g>
     <g id="line2d_18">
      <g>
       <use xlink:href="#m30ece41e1d" x="41.78" y="68.600268" style="stroke: #000000; stroke-width: 0.8"/>
      </g>
     </g>
     <g id="text_10">
      <!-- 2 -->
      <g transform="translate(30.28 71.724956) scale(0.09 -0.09)">
       <use xlink:href="#TimesNewRomanPSMT-32"/>
      </g>
     </g>
    </g>
    <g id="ytick_5">
     <g id="line2d_19">
      <path d="M 41.78 35.700268 
L 206.28 35.700268 
" clip-path="url(#p234c8ae41a)" style="fill: none; stroke: #b0b0b0; stroke-width: 0.8; stroke-linecap: square"/>
     </g>
     <g id="line2d_20">
      <g>
       <use xlink:href="#m30ece41e1d" x="41.78" y="35.700268" style="stroke: #000000; stroke-width: 0.8"/>
      </g>
     </g>
     <g id="text_11">
      <!-- 3 -->
      <g transform="translate(30.28 38.824956) scale(0.09 -0.09)">
       <defs>
        <path id="TimesNewRomanPSMT-33" d="M 325 3431 
Q 506 3859 782 4092 
Q 1059 4325 1472 4325 
Q 1981 4325 2253 3994 
Q 2459 3747 2459 3466 
Q 2459 3003 1878 2509 
Q 2269 2356 2469 2072 
Q 2669 1788 2669 1403 
Q 2669 853 2319 450 
Q 1863 -75 997 -75 
Q 569 -75 414 31 
Q 259 138 259 259 
Q 259 350 332 419 
Q 406 488 509 488 
Q 588 488 669 463 
Q 722 447 909 348 
Q 1097 250 1169 231 
Q 1284 197 1416 197 
Q 1734 197 1970 444 
Q 2206 691 2206 1028 
Q 2206 1275 2097 1509 
Q 2016 1684 1919 1775 
Q 1784 1900 1550 2001 
Q 1316 2103 1072 2103 
L 972 2103 
L 972 2197 
Q 1219 2228 1467 2375 
Q 1716 2522 1828 2728 
Q 1941 2934 1941 3181 
Q 1941 3503 1739 3701 
Q 1538 3900 1238 3900 
Q 753 3900 428 3381 
L 325 3431 
z
" transform="scale(0.015625)"/>
       </defs>
       <use xlink:href="#TimesNewRomanPSMT-33"/>
      </g>
     </g>
    </g>
    <g id="text_12">
     <!-- $y$ [m] -->
     <g transform="translate(19.279688 109.134549) rotate(-90) scale(0.09 -0.09)">
      <defs>
       <path id="STIXGeneral-Italic-79" d="M 1555 1190 
L 1690 486 
Q 2118 1190 2294 1558 
Q 2470 1926 2470 2131 
Q 2470 2234 2304 2336 
Q 2138 2445 2138 2586 
Q 2138 2688 2211 2755 
Q 2285 2822 2394 2822 
Q 2534 2822 2630 2720 
Q 2726 2618 2726 2470 
Q 2726 1914 1888 518 
Q 1389 -307 918 -812 
Q 448 -1318 173 -1318 
Q 26 -1318 -64 -1241 
Q -154 -1165 -154 -1043 
Q -154 -934 -80 -860 
Q -6 -787 96 -787 
Q 218 -787 314 -876 
Q 410 -966 486 -966 
Q 602 -966 794 -755 
Q 877 -672 1040 -457 
Q 1203 -243 1248 -173 
Q 1312 -45 1312 51 
Q 1312 243 1113 1046 
Q 915 1850 787 2176 
Q 698 2413 592 2499 
Q 486 2586 294 2586 
Q 192 2586 96 2560 
L 96 2669 
Q 237 2694 301 2707 
Q 563 2758 986 2822 
L 1011 2822 
Q 1082 2822 1277 2227 
Q 1472 1632 1555 1190 
z
" transform="scale(0.015625)"/>
      </defs>
      <use xlink:href="#STIXGeneral-Italic-79" transform="translate(0 0.28125)"/>
      <use xlink:href="#TimesNewRomanPSMT-20" transform="translate(44.399994 0.28125)"/>
      <use xlink:href="#TimesNewRomanPSMT-5b" transform="translate(69.399994 0.28125)"/>
      <use xlink:href="#TimesNewRomanPSMT-6d" transform="translate(102.700775 0.28125)"/>
      <use xlink:href="#TimesNewRomanPSMT-5d" transform="translate(180.483978 0.28125)"/>
     </g>
    </g>
   </g>
   <g id="line2d_21">
    <path d="M 111.571439 134.400268 
L 144.471439 134.400268 
L 144.471439 134.400268 
L 74.68 64.608829 
L 74.68 64.608829 
L 173.38 64.608829 
L 173.38 64.608829 
" clip-path="url(#p234c8ae41a)" style="fill: none; stroke-dasharray: 5.55,2.4; stroke-dashoffset: 0; stroke: #000000; stroke-width: 1.5"/>
   </g>
   <g id="patch_3">
    <path d="M 41.78 167.300268 
L 41.78 31.708829 
" style="fill: none; stroke: #000000; stroke-linejoin: miter; stroke-linecap: square"/>
   </g>
   <g id="patch_4">
    <path d="M 206.28 167.300268 
L 206.28 31.708829 
" style="fill: none; stroke: #000000; stroke-linejoin: miter; stroke-linecap: square"/>
   </g>
   <g id="patch_5">
    <path d="M 41.78 167.300268 
L 206.28 167.300268 
" style="fill: none; stroke: #000000; stroke-linejoin: miter; stroke-linecap: square"/>
   </g>
   <g id="patch_6">
    <path d="M 41.78 31.708829 
L 206.28 31.708829 
" style="fill: none; stroke: #000000; stroke-linejoin: miter; stroke-linecap: square"/>
   </g>
  </g>
 </g>
 <defs>
  <clipPath id="p234c8ae41a">
   <rect x="41.78" y="31.708829" width="164.5" height="135.591439"/>
  </clipPath>
 </defs>
</svg>
